<svg xmlns="http://www.w3.org/2000/svg" width="211" height="193" viewBox="0 0 211 193" fill="none">
  <path d="M15.2 15.2999L0 30.5V98.1C0 153.9 0.2 166 1.4 166.9C2.4 167.7 26 167.9 88.6 167.8L174.5 167.5L174.8 145.3C174.9 133 175.4 123 175.9 123C176.3 123 178 125.8 179.6 129.2C182.2 134.8 182.5 136.6 182.5 145.6C182.5 155.1 182.3 155.9 178.8 163.2C172.5 175.8 160.7 184.3 147 185.8C139.7 186.6 137 189 140.5 191.7C143 193.6 156.6 192.8 166.2 190.2C185.8 184.7 202.4 168.1 208.3 148.1C210.8 139.4 211 124.8 208.6 116C204.6 101.1 193.2 85.9999 180.8 78.9999L175 75.7999V54.5999V33.5L186 22.5L197 11.5V47.7999V83.9999H200.5H204V43.2C204 12.7999 203.7 2.09995 202.8 1.19995C201.9 0.299942 181.3 -4.57764e-05 116 -4.57764e-05H30.5L15.2 15.2999ZM97 6.69995C97 7.09995 92.4 12.0999 86.8 17.7L76.5 28H44H11.5L22.5 17L33.5 5.99995H65.2C82.7 5.99995 97 6.29994 97 6.69995ZM118 6.79994C118 7.19995 112.8 12.7 106.5 19L95 30.5V43.2V56H88H81V44.2999V32.5L94.2 19.2999L107.5 5.99995H112.7C115.6 5.99995 118 6.29994 118 6.79994ZM192 6.39995C192 6.59995 187.2 11.5999 181.4 17.3999L170.9 28H138.7H106.5L117.5 17L128.5 5.99995H160.2C177.7 5.99995 192 6.19995 192 6.39995ZM74.2 47.7L74.5 61.5L87.4 61.7999C97.1 62 100.5 61.7 101.2 60.7999C101.6 60.0999 102 53.7999 102 46.7V34H135.5H169V53.5C169 64.2 168.9 72.9999 168.8 72.9999C168.6 72.9999 165 72.2999 160.7 71.4999C156.4 70.7 150.9 69.9999 148.4 69.9999H144.1L143.8 60.3999C143.6 52.7999 143.2 50.5 141.9 49.7C140.6 48.8999 135 52.3999 114.4 67.2C100.2 77.2999 88.4 86.3999 88.2 87.2C88 88.2999 96.2 94.7 114.1 107.6C134.9 122.5 140.6 126.1 141.9 125.3C143.2 124.5 143.6 122.2 143.8 114.5L144.1 104.8L149 105.4C154.2 106.1 159.2 108.1 165.3 111.8L169 114.2V138.1V162H88H7V97.9999V34H40.5H73.9L74.2 47.7ZM138 67.3999C138 74.1 138.3 75.8999 139.6 76.3999C140.5 76.7 145.1 76.9999 150 76.9999C170.7 76.9999 189.6 88.8999 198.5 107.5C202.7 116.2 203.9 121.5 204 130.6C204 144.2 200.2 155.5 192 165.9C188.3 170.5 178.3 179 176.6 179C176.2 179 177.1 177.3 178.7 175.2C186.4 165.4 189 157.6 189 145C189 120.6 172.1 101.9 146.7 98.4999C138.5 97.3999 138 97.8999 138 107.6C138 112.2 137.7 116 137.4 116C136.5 116 97.9 88.2 97.9 87.4999C97.9 86.7 136.1 59.0999 137.3 59C137.7 59 138 62.7999 138 67.3999Z" fill="#2E2F8C" fill-opacity="0.6"/>
  <path d="M14 137V140H35H56V137V134H35H14V137Z" fill="#2E2F8C" fill-opacity="0.6"/>
  <path d="M14 151V154H35H56V151V148H35H14V151Z" fill="#2E2F8C" fill-opacity="0.6"/>
</svg>