<svg xmlns="http://www.w3.org/2000/svg" width="181" height="180" viewBox="0 0 181 180" fill="none">
  <path d="M35.7325 20.6038L0 41.2076L0.0720413 83.1356L0.144083 125.1L35.8045 145.704C55.4358 157.05 71.6811 166.343 71.9333 166.343C72.3295 166.379 102.407 149.234 103.559 148.333C103.812 148.117 103.271 146.676 101.866 143.83C99.6692 139.364 97.616 133.601 96.6074 129.026C95.5989 124.559 95.7069 114.726 96.7875 109.863C101.542 88.6468 117.499 75.103 138.752 74.2746L144.047 74.0584V57.633L144.011 41.2076L131.944 34.2556L119.877 27.3396L83.7841 48.1596L47.6914 69.0155L47.5113 78.7051L47.3312 88.4307L35.7325 81.7669L24.0978 75.067V65.3414V55.6159L60.0104 34.904C79.7498 23.5214 95.887 14.012 95.887 13.8319C95.887 13.3996 72.7618 -6.10352e-05 72.0053 -6.10352e-05C71.7172 -6.10352e-05 55.3998 9.25725 35.7325 20.6038Z" fill="#2E2F8C" fill-opacity="0.6"/>
  <path d="M136.086 79.9659C123.947 81.2266 113.249 87.9264 107.161 98.0843C101.974 106.693 100.101 119.264 102.443 129.422C104.424 137.923 109.467 147.469 117.031 157.014C122.47 163.894 139.58 180.319 140.949 179.995C141.921 179.779 150.818 171.747 156.186 166.271C169.657 152.439 177.186 139.868 179.563 127.297C180.427 122.506 180.103 113.789 178.879 109.071C176.933 101.65 173.764 95.923 168.937 91.0963C162.417 84.6125 154.565 80.9384 145.055 79.9299C141.273 79.5336 140.012 79.5336 136.086 79.9659ZM145.848 100.534C151.647 101.902 157.338 106.585 159.86 112.024C161.481 115.518 162.057 117.932 162.057 121.174C162.057 130.791 154.997 139.652 145.487 141.921C144.407 142.174 142.282 142.39 140.805 142.39C135.041 142.39 130.179 140.337 126 136.158C117.571 127.765 117.355 115.266 125.46 106.693C130.899 100.93 138.247 98.7326 145.848 100.534Z" fill="#2E2F8C" fill-opacity="0.6"/>
</svg>