<svg xmlns="http://www.w3.org/2000/svg" width="237" height="180" viewBox="0 0 237 180" fill="none">
  <path d="M189.805 5.74326C181.676 8.92435 174.607 11.9876 173.9 12.6945C173.075 13.5193 173.193 15.2865 174.253 18.1142C175.078 20.4705 175.314 22.8269 174.842 23.2982C173.075 25.0654 141.853 36.1404 128.304 39.7927C121.117 41.7956 113.341 44.3876 110.867 45.5658C104.858 48.7469 97.907 56.6407 92.3696 66.6553L87.7747 75.1382H49.4837C13.5492 75.1382 10.9572 75.256 7.42264 77.4946C0.117907 81.9717 8.84355e-05 82.5608 8.84355e-05 127.567C8.84355e-05 173.281 -0.11773 172.81 8.24736 177.522C12.6066 179.996 13.7848 179.996 82.7085 179.996C162.118 179.996 158.348 180.468 163.532 170.571C166.006 165.623 166.124 163.973 166.124 140.645V116.021L170.365 112.369C172.604 110.366 176.021 105.771 177.67 102.236C180.262 96.9346 182.383 94.696 188.981 90.1011C193.458 87.0378 197.817 84.5637 198.642 84.5637C199.466 84.5637 200.409 86.0953 200.88 87.9804C201.234 89.8655 202.412 91.7506 203.354 92.104C206.182 93.1644 236.108 81.736 236.579 79.3797C237.05 77.0233 208.774 1.85526 206.889 0.677078C205.239 -0.501099 206.535 -0.854553 189.805 5.74326ZM183.443 41.6778C185.564 47.4509 189.57 57.5833 192.162 64.2989C194.754 71.0146 196.521 76.9055 196.167 77.4946C195.814 77.9658 192.279 80.3222 188.156 82.5608C179.319 87.6269 174.489 92.5753 170.365 100.823C167.302 106.949 167.184 106.949 148.687 116.021C129.482 125.447 122.767 127.096 118.643 123.562C115.815 121.323 116.169 116.021 119.35 113.193C120.764 111.897 126.419 107.774 131.957 104.004C137.494 100.233 143.149 95.7564 144.563 94.1069C148.215 89.8655 148.215 83.3855 144.445 79.0262L141.618 75.7273L118.997 75.3738L96.4932 75.0204L100.146 68.3047C104.858 59.8218 110.867 53.5775 116.405 51.2211C118.879 50.1607 127.597 47.4509 135.962 45.0946C144.21 42.7382 156.934 38.6145 164.239 35.7869C171.426 32.9593 177.788 30.7207 178.377 30.8385C178.966 30.9564 181.205 35.7869 183.443 41.6778ZM139.968 85.8597C140.322 88.6873 138.79 90.1011 126.89 98.4662C119.586 103.65 112.634 109.305 111.574 110.955C109.1 114.725 108.982 122.619 111.456 126.389C113.93 130.159 122.531 133.34 127.833 132.516C130.189 132.162 137.73 129.099 144.563 125.918C151.397 122.619 157.405 119.909 157.994 119.909C158.583 119.909 159.055 125.682 159.055 132.869V145.829H83.0619H7.06918V116.61C7.06918 88.8051 7.187 87.2735 9.42555 84.7993L11.8997 82.2073L75.7572 82.4429L139.615 82.7964L139.968 85.8597Z" fill="#FF0000" fill-opacity="0.4"/>
  <path d="M25.5665 99.5266C25.0953 99.8801 24.7418 101.53 24.7418 103.061V105.771H51.2509C73.872 105.771 77.8778 105.535 78.4669 104.004C78.9382 103.061 78.5848 101.412 77.76 100.469C76.5818 99.0554 71.9869 98.7019 51.2509 98.7019C37.584 98.7019 25.92 99.0554 25.5665 99.5266Z" fill="#FF0000" fill-opacity="0.4"/>
</svg>