<svg xmlns="http://www.w3.org/2000/svg" width="189" height="180" viewBox="0 0 189 180" fill="none">
  <path d="M41.146 0.541016C40.2761 0.801979 40.0151 6.89124 40.0151 26.5508V52.1257H24.0091C15.3101 52.1257 6.95915 52.5606 5.48033 52.9956C0.260968 54.8224 0 56.3882 0 82.9199V106.929L2.52269 109.713L5.04538 112.583L41.2329 112.844C72.9841 113.018 77.7685 112.931 80.1172 111.713C84.3797 109.452 85.2495 106.059 85.2495 91.7058V79.0924H104.822H124.395L123.786 81.4411C123.351 82.8329 123.09 87.7913 123.09 92.5757C123.09 100.318 123.438 101.797 125.526 106.233C128.744 112.757 136.66 120.064 143.271 122.674C147.099 124.153 150.144 124.675 155.711 124.675C162.235 124.675 163.801 124.327 168.846 121.978C178.763 117.368 184.417 110.93 187.375 100.927C190.942 88.8352 187.027 75.1779 177.806 67.0009L173.979 63.6083V33.162C173.979 6.63026 173.805 2.45478 172.587 1.32391C171.369 0.106064 164.236 -0.0679169 106.736 0.0190735C71.2443 0.0190735 41.6679 0.280045 41.146 0.541016ZM167.889 33.423V60.8246L165.889 60.0417C164.758 59.6068 161.626 58.9978 158.843 58.6499C154.58 58.128 153.971 57.78 155.015 56.8231C155.711 56.1272 157.973 55.2573 160.147 54.9094L163.975 54.2134V40.1212V25.9419L159.19 24.2891C153.536 22.3753 150.144 18.8088 149.1 13.5894L148.317 9.93586H106.649H64.894L63.8502 14.1983C62.4583 19.7657 58.9788 23.2452 53.4115 24.6371L49.149 25.6809L48.888 38.9033C48.714 51.4298 48.5401 52.1257 46.9742 52.1257C45.3214 52.1257 45.2345 51.4298 45.2345 29.0735V6.02134H106.562H167.889V33.423ZM144.576 18.0259C145.533 21.7664 151.796 28.0296 155.711 29.1605L158.756 30.0304L159.017 39.6862L159.277 49.342L156.842 49.951C153.014 50.9078 149.013 53.6915 147.012 56.8231C145.968 58.6499 143.445 60.6507 140.575 62.0425L135.964 64.3042H110.65C85.6845 64.3042 85.2495 64.3042 85.2495 62.5644C85.2495 59.2588 82.8139 54.8224 80.1172 53.5175C78.3774 52.5606 75.0718 52.1257 69.9394 52.1257C64.981 52.1257 60.9795 51.6038 58.1959 50.6469L53.8464 49.0811L54.1074 39.6862L54.3683 30.2044L57.7609 29.0735C62.1974 27.5077 66.6338 23.1582 68.3736 18.4608L69.8524 14.7203L106.823 14.8943L143.88 15.1552L144.576 18.0259ZM77.5075 58.2149C78.5514 58.8239 79.1603 60.0417 79.1603 61.6945V64.3042H42.1898H5.21936V62.2165C5.21936 57.3451 4.95839 57.3451 41.8419 57.3451C63.5892 57.3451 76.3766 57.693 77.5075 58.2149ZM167.628 67.0009C173.544 69.8715 177.98 74.395 181.025 80.7452C183.721 86.3995 183.721 97.0122 181.025 102.667C176.24 112.757 166.585 119.281 156.407 119.368C153.362 119.368 148.926 118.76 146.403 117.89C140.662 115.976 133.79 109.887 130.658 103.971C128.657 100.144 128.309 98.491 128.309 91.7058C128.309 84.9207 128.657 83.2679 130.658 79.5273C133.355 74.395 139.705 68.2187 144.141 66.305C152.231 62.9994 159.538 63.1733 167.628 67.0009ZM128.57 72.0463C127.526 73.786 126.83 73.873 106.388 73.873C85.8585 73.873 85.2495 73.786 85.2495 72.1332C85.2495 70.4804 85.9455 70.3935 107.258 70.2195C119.262 70.0455 129.266 70.0455 129.44 70.1325C129.614 70.1325 129.179 71.0024 128.57 72.0463ZM79.1603 73.4381V76.4827H42.1898H5.21936V73.4381V70.3935H42.1898H79.1603V73.4381ZM78.9863 94.4895L78.7253 106.494L43.1467 106.755C17.6588 106.842 7.22011 106.668 6.43721 105.972C5.48033 105.189 5.21936 102.145 5.21936 93.7936V82.572H42.1898H79.2473L78.9863 94.4895Z" fill="#2E2F8C" fill-opacity="0.6"/>
  <path d="M98.211 24.1151C90.2079 28.2906 86.5544 38.3814 90.034 46.7324C95.0793 58.7369 111.955 61.2596 120.306 51.3428C127.7 42.4699 124.83 28.5516 114.565 23.7672C108.563 20.9835 103.952 21.0705 98.211 24.1151ZM112.216 28.8126C121.089 33.423 121.437 45.1666 112.912 50.3859C107.519 53.6915 99.6028 51.8647 96.1232 46.6454C92.2087 40.5561 94.5574 31.9442 101.169 28.7256C105.779 26.3769 107.432 26.4639 112.216 28.8126Z" fill="#2E2F8C" fill-opacity="0.6"/>
  <path d="M153.449 75.0907C153.188 75.7866 151.97 76.5695 150.666 76.9175C147.36 77.7004 144.489 80.6581 143.88 83.7897C142.75 90.1399 147.621 94.7503 155.363 94.7503C160.147 94.7503 162.148 96.0552 161.626 98.8388C161.365 100.144 160.147 100.492 153.188 100.84C146.838 101.188 144.837 101.622 144.141 102.753C142.663 105.102 144.924 106.929 149.187 106.929C151.709 106.929 153.101 107.364 153.449 108.234C154.058 109.886 157.364 109.973 157.973 108.234C158.234 107.538 159.799 106.581 161.452 106.059C165.28 104.754 167.02 102.231 167.02 97.795C167.02 91.7927 162.844 88.6611 154.841 88.6611C150.144 88.6611 148.143 86.9213 149.709 84.0506C150.405 82.8328 151.883 82.5718 157.886 82.5718C166.063 82.5718 168.672 81.267 167.02 78.1354C166.324 76.9175 165.193 76.4826 162.322 76.4826C159.712 76.4826 158.321 76.0476 157.973 75.1777C157.364 73.5249 154.058 73.4379 153.449 75.0907Z" fill="#2E2F8C" fill-opacity="0.6"/>
  <path d="M100.473 119.89C94.9924 122.152 66.1989 139.637 64.2851 141.812L61.9364 144.421L49.4969 140.507C42.6248 138.332 35.7526 136.505 34.1868 136.505C30.4463 136.505 27.4886 139.376 25.7488 144.682C22.8782 153.555 24.705 157.731 32.708 160.253C35.0567 161.036 48.54 165.212 62.6323 169.561C76.7246 173.911 90.034 178.086 92.1217 178.782C94.2964 179.478 96.7321 180 97.602 180C98.4719 180 105.953 176.607 114.217 172.432C126.396 166.343 129.788 165.038 131.702 165.56C133.79 166.082 134.051 166.517 133.616 168.517C132.92 171.91 133.703 172.606 140.575 174.694C148.056 176.955 149.274 176.955 150.057 174.955C152.579 168.517 162.67 134.157 162.496 132.678C162.322 131.286 160.93 130.416 156.581 128.937C148.752 126.328 147.186 126.415 145.881 129.372L144.837 131.808L124.83 125.458C103.952 118.933 103.343 118.76 100.473 119.89ZM123.786 130.938C133.964 134.07 142.489 136.94 142.75 137.201C143.097 137.549 141.706 142.856 139.705 149.119C136.573 158.775 135.79 160.427 134.312 160.253C128.048 159.471 126.743 159.905 112.39 167.213L97.776 174.694L88.2072 171.823C82.9878 170.17 69.7654 165.995 58.7178 162.602C47.7571 159.123 36.8835 155.73 34.6218 155.034C32.447 154.338 30.3593 153.207 30.0983 152.424C29.3154 150.511 32.0121 142.856 33.6649 142.247C34.7957 141.812 40.1021 143.204 60.7186 149.641C62.6323 150.337 64.0242 151.554 65.242 153.903C67.4167 158.166 70.8963 160.862 74.2019 160.862C77.2465 160.862 103.343 147.466 104.126 145.465C104.387 144.769 104.039 143.638 103.256 142.856C102.038 141.638 100.56 142.247 87.9462 148.771C74.6369 155.643 73.9409 155.904 72.3751 154.512C69.6785 152.076 67.3297 146.248 68.6346 144.943C70.8093 142.769 101.43 125.371 103.343 125.284C104.474 125.197 113.608 127.806 123.786 130.938ZM153.884 133.983C155.363 134.505 156.581 135.2 156.581 135.461C156.581 135.722 154.145 143.725 151.274 153.207C145.881 170.344 145.881 170.431 143.619 169.822C142.402 169.561 140.923 169.126 140.401 168.778C139.792 168.43 141.271 162.341 144.924 150.859C147.969 141.29 150.405 133.374 150.405 133.2C150.492 132.852 151.013 133.026 153.884 133.983Z" fill="#2E2F8C" fill-opacity="0.6"/>
</svg>