<svg xmlns="http://www.w3.org/2000/svg" width="51" height="50" viewBox="0 0 51 50" fill="none">
  <path d="M13.9584 1.54032C2.59295 8.36155 0.572208 9.58384 0.38492 9.8007C0.158203 10.0471 0.158203 10.0767 0.158203 12.9057V15.7644L0.394778 16.0009C0.81864 16.4248 1.37065 16.4445 1.8438 16.0601C2.07051 15.8728 2.08037 15.8136 2.12966 14.0985L2.17894 12.3242L9.00017 16.4248L15.8313 20.5353V28.5492C15.8313 32.9554 15.8017 36.5435 15.7623 36.5238C15.713 36.504 12.6375 34.6509 8.9016 32.4034L2.12966 28.3324V26.0061V23.6797L1.85365 23.4136C1.63679 23.2066 1.47908 23.1474 1.14393 23.1474C0.808783 23.1474 0.651066 23.2066 0.434207 23.4136L0.158203 23.6797V26.5383C0.16806 28.7759 0.197632 29.4462 0.296205 29.5842C0.365206 29.673 4.03211 31.9303 8.44816 34.5819C15.3778 38.7614 16.5114 39.4119 16.8466 39.4119C17.162 39.4119 17.6549 39.1556 19.8037 37.8643L22.3666 36.3266L22.5539 36.5632C23.7171 38.0122 24.9197 38.9979 26.4278 39.7175C29.8581 41.3538 33.8602 41.0384 36.9258 38.8796L37.5665 38.4262L38.6903 39.5598L39.8238 40.6835L39.1634 41.3735C38.434 42.1523 38.2861 42.5465 38.5325 43.0197C38.6213 43.1774 40.0801 44.6856 41.7756 46.381C45.3932 49.9888 45.4129 49.9986 46.9802 49.9986C47.7984 50.0085 47.9955 49.9691 48.4785 49.7423C49.2277 49.3973 49.967 48.6876 50.3021 47.9976C50.5485 47.4949 50.5781 47.347 50.5781 46.3613C50.5781 44.725 50.588 44.7349 46.8028 40.9595C43.7963 37.9629 43.6583 37.8348 43.2936 37.8348C42.8007 37.8348 42.6036 37.9531 41.9037 38.6332L41.3123 39.2148L40.1886 38.0911L39.0648 36.9673L39.5676 36.228C41.0954 33.9412 41.677 31.2008 41.2137 28.5197C40.7997 26.1835 39.538 23.9459 37.7932 22.4673C37.3694 22.1124 37.0244 21.7871 37.0244 21.7477C37.0244 21.7083 38.0791 20.5747 39.3704 19.2144L41.7066 16.7501L45.7283 16.7402C49.9965 16.7402 50.2824 16.7106 50.519 16.2671C50.5781 16.1488 50.6274 15.8629 50.6274 15.6263C50.6274 15.2518 50.5781 15.1433 50.3218 14.9265L50.0163 14.6702H45.4326H40.849L40.2773 15.2321C39.8436 15.6658 36.0485 19.6481 35.1909 20.5747C35.0825 20.693 34.9544 20.6733 34.3235 20.4761L33.5743 20.2395V15.2321C33.5743 11.1117 33.5448 10.1753 33.4363 9.95842C33.2392 9.58384 17.4183 0.0518684 16.9156 0.00258255C16.6198 -0.026989 16.2157 0.180016 13.9584 1.54032ZM23.7762 6.40981C27.4825 8.64741 30.4989 10.4809 30.489 10.4907C30.4792 10.5006 17.6647 18.2188 16.9057 18.6722C16.8268 18.7117 3.36181 10.609 3.32239 10.4907C3.28296 10.3626 16.7381 2.2599 16.8958 2.30919C16.9747 2.3289 20.06 4.17221 23.7762 6.40981ZM31.5043 16.1488V19.8945H31.041C30.7749 19.8945 30.1736 19.9438 29.6807 20.003C25.7082 20.486 22.3666 23.1869 21.095 26.9326C20.3755 29.0421 20.3853 31.7824 21.1049 33.7834C21.3908 34.5523 21.5485 34.365 19.6756 35.4887C18.9462 35.9323 18.2463 36.3562 18.128 36.435L17.9013 36.573V28.5492V20.5156L24.6338 16.4642C28.3303 14.2365 31.386 12.403 31.4353 12.403C31.4747 12.403 31.5043 14.0886 31.5043 16.1488ZM32.0366 22.073C32.4506 22.1223 32.9336 22.2209 33.111 22.2899L33.4462 22.4081L30.1539 25.8483C27.9163 28.1944 26.8418 29.3871 26.7827 29.5941C26.694 29.949 26.7925 30.3925 27.0291 30.6488C27.246 30.8953 27.7881 30.984 28.143 30.846C28.35 30.7573 32.8055 26.1933 35.1811 23.6304L35.4571 23.3249L35.8612 23.6107C37.2807 24.5866 38.5523 26.4496 39.055 28.2732C39.3014 29.1702 39.3113 31.4275 39.0648 32.3048C38.6114 33.9707 38.0594 34.917 36.8272 36.1689C35.3979 37.6081 33.8898 38.3572 31.869 38.6234C28.4584 39.0768 24.9591 37.1152 23.4312 33.8919C22.7905 32.5611 22.6821 31.9993 22.6821 30.2447C22.6919 28.7858 22.7018 28.6774 23.0073 27.7804C23.6382 25.9469 24.8408 24.3796 26.4081 23.3643C27.522 22.6349 28.5668 22.2603 30.1243 22.0237C30.627 21.9547 31.317 21.9646 32.0366 22.073ZM44.1512 41.2651L45.0088 42.1227L43.8752 43.2563L42.7416 44.3899L41.8544 43.5027L40.9673 42.6155L42.0713 41.5115C42.6824 40.9004 43.2049 40.3977 43.2345 40.3977C43.264 40.3977 43.678 40.7821 44.1512 41.2651ZM47.3844 44.5081C48.4785 45.622 48.5574 45.7502 48.5574 46.3712C48.5574 47.209 47.9758 47.8695 47.1576 47.9582C46.5366 48.0272 46.2113 47.83 45.1271 46.7753L44.2202 45.8684L45.3242 44.7644C45.9353 44.1533 46.4578 43.6506 46.4874 43.6506C46.5169 43.6506 46.9211 44.035 47.3844 44.5081Z" fill="#FF0000"/>
  <path d="M40.9066 10.2738C40.2265 10.5696 40.049 11.4074 40.5616 11.92L40.8475 12.2059H45.4705H50.0936L50.3597 11.9299C50.9216 11.3483 50.6062 10.3527 49.8274 10.195C49.65 10.1654 47.649 10.1358 45.3621 10.1358C42.0895 10.1457 41.1432 10.1753 40.9066 10.2738Z" fill="#FF0000"/>
  <path d="M0.444064 18.9975C0.217347 19.2341 0.158203 19.3721 0.158203 19.7171C0.158203 20.2494 0.345491 20.5353 0.798925 20.6831C1.05521 20.7718 1.23265 20.7718 1.48893 20.6831C1.94237 20.5353 2.12966 20.2494 2.12966 19.7171C2.12966 19.1158 1.72551 18.7117 1.14393 18.7117C0.81864 18.7117 0.670781 18.7708 0.444064 18.9975Z" fill="#FF0000"/>
  <path d="M44.5259 19.2439C43.8654 19.6086 43.8654 20.6239 44.516 21.0084C44.9103 21.2449 49.6911 21.2548 50.1346 21.0281C50.4994 20.8408 50.6275 20.6042 50.6275 20.0916C50.6275 19.7664 50.5684 19.6185 50.3417 19.3918L50.0558 19.1059H47.4042C45.4032 19.1158 44.7033 19.1453 44.5259 19.2439Z" fill="#FF0000"/>
</svg>