<svg xmlns="http://www.w3.org/2000/svg" width="198" height="198" viewBox="0 0 198 198" fill="none">
  <path d="M2.58768 176.621C3.40174 177.582 5.41871 178.076 8.88961 178.197L13.8843 178.372L13.7099 183.366C13.5444 188.107 14.7107 191.114 16.7425 191.185C17.0811 191.197 22.332 186.465 28.4649 180.746L39.5976 170.2L39.8163 163.936L40.0351 157.671L71.2252 128.586C102.678 99.2556 104.089 97.6944 100.163 96.0316C99.3284 95.6634 97.2464 97.0317 93.7449 100.215C90.9442 102.745 88.2519 104.6 87.7528 104.328C86.3462 103.347 86.0127 98.3346 87.071 94.7268C90.0294 85.2523 102.913 82.8204 109.171 90.4978C115.512 98.2628 111.399 109.223 101.321 111.414C96.3668 112.512 94.5998 114.569 96.9898 116.517C100.699 119.529 110.682 115.216 114.976 108.754C120.613 100.221 118.125 88.9458 109.347 83.0451C100.898 77.4102 89.5384 79.8953 83.6377 88.6738C80.4157 93.5621 79.7529 100.404 82.0129 106.078L83.5818 109.692L76.6604 116.147C70.0895 122.274 69.6544 122.598 68.2625 121.193C65.6363 118.728 62.143 109.537 61.2613 103.234C59.731 91.2293 64.1267 79.4317 73.326 70.8532C89.0117 56.1442 112.546 56.9661 127.167 72.7334C141.71 88.3284 140.967 112.035 125.463 126.411C119.245 132.128 113.893 134.907 106.13 136.331C98.7934 137.686 92.4589 137.041 84.9315 134.15C79.4122 132.008 77.3715 132.191 77.2858 134.646C77.206 136.932 78.4463 137.823 84.6369 140.158C96.0989 144.457 111.154 142.948 121.806 136.455C135.227 128.363 142.442 115.901 142.989 100.239C143.859 75.3505 125.721 55.9005 100.832 55.0313C85.0014 54.4785 71.3685 61.3765 62.5174 74.5442C53.4036 87.957 53.0711 107.186 61.7233 121.558L65.0079 127.013L58.0865 133.467C54.3192 136.98 51.0017 139.746 50.6661 139.65C49.2446 139.091 43.2265 129.388 40.7973 123.709C36.6416 114.071 35.497 108.013 35.899 96.4998C36.3129 84.6479 37.7868 78.8509 43.1392 68.7819C49.9348 56.2206 60.3607 46.4982 73.3655 40.5954C83.6958 36.0401 89.669 34.8925 101.521 35.3064C113.373 35.7203 119.251 37.2817 129.239 42.5465C145.463 51.25 157.539 67.098 161.822 85.2166C163.591 92.822 163.023 109.076 160.728 116.539C155.191 134.315 142.04 149.282 125.248 156.833C114.83 161.47 108.944 162.536 97.0924 162.122C84.8173 161.693 79.1079 160.137 68.3794 154.253C60.6423 150.084 58.1145 149.657 58.0081 152.705C57.8484 157.276 75.1151 165.253 89.4505 167.364C127.486 172.846 162.823 146.363 167.872 108.567C173.033 70.0123 147.041 35.2008 109.16 30.1485C70.4356 24.9821 35.881 50.8985 30.7323 89.1148C28.1171 108.179 33.5905 128.628 44.6662 141.559L46.7875 143.922L41.6154 148.827C36.7937 153.405 36.1046 153.72 32.5491 153.596C28.9088 153.468 28.5791 153.203 25.3554 148.428C20.5096 141.563 15.2544 129.428 12.9464 120.279C0.663186 71.5366 31.0153 22.7579 80.6559 11.4384C87.8351 9.73963 90.5529 9.58026 102.405 9.99414C114.257 10.408 116.957 10.7566 124 12.952C155.538 22.4446 179.313 47.9398 186.582 80.0633C188.281 87.2424 188.44 89.9603 188.027 101.812C187.613 113.664 187.264 116.364 185.069 123.407C175.576 154.945 150.081 178.72 117.957 185.99C106.592 188.644 87.1148 188.133 76.3763 184.961C67.1469 182.266 61.5518 179.867 53.6602 175.268C47.5139 171.663 47.1782 171.567 45.6888 172.956C43.4985 174.998 44.7122 176.651 51.6056 180.706C82.9967 199.263 123.659 197.462 153.807 176.392C178.31 159.194 192.897 132.241 193.953 102.019C195.372 61.3841 171.712 25.2979 133.588 10.2355C114.946 2.80373 90.3957 1.94641 71.2809 8.05968C38.6277 18.3619 14.2259 44.8024 6.7149 77.8507C4.61784 86.9315 4.05911 102.932 5.50579 112.475C7.42386 125.51 12.1445 138.389 19.0524 149.31L22.346 154.511L11.8324 164.315C6.04999 169.707 1.31005 174.373 1.29823 174.711C1.2864 175.05 1.84943 175.917 2.58768 176.621ZM18.8382 165.153C25.0587 159.352 25.231 159.273 29.6331 159.427L34.0352 159.581L33.8786 164.067C33.7248 168.47 33.6372 168.551 27.3291 174.434C23.8276 177.617 20.767 180.307 20.4284 180.295C20.0898 180.284 19.8073 178.663 19.709 176.626C19.5792 173.061 19.5792 173.061 15.9478 172.68C14.0066 172.443 12.41 172.048 12.4218 171.709C12.4336 171.371 15.3337 168.421 18.8382 165.153Z" fill="#1434CB" fill-opacity="0.6"/>
</svg>