<svg width="42" height="40" viewBox="0 0 42 40" fill="none" xmlns="http://www.w3.org/2000/svg">
<path d="M36.3478 5.72348C35.7353 4.04734 34.623 2.59965 33.1611 1.57606C31.6993 0.552474 29.9585 0.00233729 28.1739 0H13.5652C11.7807 0.00233729 10.0398 0.552474 8.57802 1.57606C7.1162 2.59965 6.00385 4.04734 5.39131 5.72348L0.695661 18.64C0.233833 19.9121 -0.00160823 21.2553 8.26759e-06 22.6087V24.3478C0.00311144 25.6918 0.319021 27.0166 0.92273 28.2174C1.52644 29.4182 2.40137 30.462 3.47827 31.2661C3.47827 31.28 3.47827 31.2904 3.47827 31.3043V34.7826C3.47827 36.1663 4.02796 37.4934 5.00641 38.4719C5.98486 39.4503 7.31192 40 8.69566 40C10.0794 40 11.4065 39.4503 12.3849 38.4719C13.3634 37.4934 13.9131 36.1663 13.9131 34.7826V33.0435H27.8261V34.7826C27.8261 36.1663 28.3758 37.4934 29.3542 38.4719C30.3327 39.4503 31.6597 40 33.0435 40C34.4272 40 35.7543 39.4503 36.7327 38.4719C37.7112 37.4934 38.2609 36.1663 38.2609 34.7826V31.3043C38.2609 31.2904 38.2609 31.28 38.2609 31.2661C39.3378 30.462 40.2127 29.4182 40.8164 28.2174C41.4201 27.0166 41.736 25.6918 41.7391 24.3478V22.6087C41.7409 21.2559 41.5055 19.9132 41.0435 18.6417L36.3478 5.72348ZM8.66436 6.91304C9.03207 5.90812 9.69903 5.04008 10.5753 4.42593C11.4516 3.81177 12.4951 3.48102 13.5652 3.47826H28.1739C29.2446 3.48031 30.2889 3.81073 31.1659 4.42493C32.0429 5.03914 32.7104 5.90756 33.0783 6.91304L36.8835 17.3913H4.85392L8.66436 6.91304ZM10.4348 34.7826C10.4348 35.2439 10.2516 35.6862 9.92541 36.0124C9.59926 36.3385 9.15691 36.5217 8.69566 36.5217C8.23442 36.5217 7.79206 36.3385 7.46591 36.0124C7.13976 35.6862 6.95653 35.2439 6.95653 34.7826V32.8696C7.52893 32.9858 8.11158 33.0441 8.69566 33.0435H10.4348V34.7826ZM34.7826 34.7826C34.7826 35.2439 34.5994 35.6862 34.2732 36.0124C33.9471 36.3385 33.5047 36.5217 33.0435 36.5217C32.5822 36.5217 32.1399 36.3385 31.8137 36.0124C31.4876 35.6862 31.3044 35.2439 31.3044 34.7826V33.0435H33.0435C33.6276 33.0441 34.2102 32.9858 34.7826 32.8696V34.7826ZM38.2609 24.3478C38.2609 25.7316 37.7112 27.0586 36.7327 28.0371C35.7543 29.0155 34.4272 29.5652 33.0435 29.5652H8.69566C7.31192 29.5652 5.98486 29.0155 5.00641 28.0371C4.02796 27.0586 3.47827 25.7316 3.47827 24.3478V22.6087C3.48536 22.0231 3.55591 21.44 3.6887 20.8696H6.95653V22.6087C6.95653 23.0699 7.13976 23.5123 7.46591 23.8384C7.79206 24.1646 8.23442 24.3478 8.69566 24.3478C9.15691 24.3478 9.59926 24.1646 9.92541 23.8384C10.2516 23.5123 10.4348 23.0699 10.4348 22.6087V20.8696H31.3044V22.6087C31.3044 23.0699 31.4876 23.5123 31.8137 23.8384C32.1399 24.1646 32.5822 24.3478 33.0435 24.3478C33.5047 24.3478 33.9471 24.1646 34.2732 23.8384C34.5994 23.5123 34.7826 23.0699 34.7826 22.6087V20.8696H38.0504C38.1833 21.4399 38.2539 22.0231 38.2609 22.6087V24.3478Z" fill="white"/>
</svg>
