<svg width="51" height="40" viewBox="0 0 51 40" fill="none" xmlns="http://www.w3.org/2000/svg">
<path d="M48.4204 6.31579H44.2099V2.10526C44.2099 1.54691 43.9881 1.01143 43.5933 0.616617C43.1985 0.221804 42.663 0 42.1046 0C41.5463 0 41.0108 0.221804 40.616 0.616617C40.2212 1.01143 39.9994 1.54691 39.9994 2.10526V6.31579H35.7889C35.2305 6.31579 34.695 6.53759 34.3002 6.93241C33.9054 7.32722 33.6836 7.8627 33.6836 8.42105C33.6836 8.9794 33.9054 9.51488 34.3002 9.9097C34.695 10.3045 35.2305 10.5263 35.7889 10.5263H39.9994V14.7368C39.9994 15.2952 40.2212 15.8307 40.616 16.2255C41.0108 16.6203 41.5463 16.8421 42.1046 16.8421C42.663 16.8421 43.1985 16.6203 43.5933 16.2255C43.9881 15.8307 44.2099 15.2952 44.2099 14.7368V10.5263H48.4204C48.9788 10.5263 49.5142 10.3045 49.9091 9.9097C50.3039 9.51488 50.5257 8.9794 50.5257 8.42105C50.5257 7.8627 50.3039 7.32722 49.9091 6.93241C49.5142 6.53759 48.9788 6.31579 48.4204 6.31579Z" fill="white"/>
<path d="M45.8337 20.4758C45.5615 20.4249 45.2819 20.4285 45.0111 20.4864C44.7403 20.5443 44.4836 20.6554 44.2561 20.8132C44.0285 20.9711 43.8346 21.1725 43.6855 21.4059C43.5363 21.6392 43.435 21.8998 43.3874 22.1726C43.1248 23.6298 42.3586 24.9484 41.2227 25.8981C40.0868 26.8478 38.6533 27.3682 37.1726 27.3684H11.4063L9.42737 10.5263H27.3684C27.9268 10.5263 28.4623 10.3045 28.8571 9.9097C29.2519 9.51488 29.4737 8.9794 29.4737 8.42105C29.4737 7.8627 29.2519 7.32722 28.8571 6.93241C28.4623 6.53759 27.9268 6.31579 27.3684 6.31579H8.93053L8.8421 5.57474C8.66068 4.03916 7.92223 2.62348 6.76671 1.59601C5.61119 0.568535 4.11889 0.000658603 2.57263 0L2.10526 0C1.54691 0 1.01143 0.221804 0.616617 0.616617C0.221804 1.01143 0 1.54691 0 2.10526C0 2.66361 0.221804 3.1991 0.616617 3.59391C1.01143 3.98872 1.54691 4.21053 2.10526 4.21053H2.57263C3.08828 4.21059 3.58597 4.39991 3.97131 4.74256C4.35665 5.08521 4.60283 5.55737 4.66316 6.06947L7.56 30.7011C7.86074 33.2627 9.09153 35.6248 11.0188 37.339C12.946 39.0531 15.4355 40.0001 18.0147 40H40C40.5583 40 41.0938 39.7782 41.4886 39.3834C41.8835 38.9886 42.1053 38.4531 42.1053 37.8947C42.1053 37.3364 41.8835 36.8009 41.4886 36.4061C41.0938 36.0113 40.5583 35.7895 40 35.7895H18.0147C16.7085 35.7897 15.4342 35.3849 14.3676 34.6309C13.301 33.8768 12.4944 32.8105 12.0589 31.5789H37.1726C39.6403 31.5792 42.0296 30.7125 43.9232 29.1302C45.8169 27.5478 47.0944 25.3506 47.5326 22.9221C47.5818 22.6499 47.5769 22.3707 47.5181 22.1004C47.4593 21.8301 47.3478 21.5741 47.1901 21.3469C47.0323 21.1197 46.8313 20.9258 46.5986 20.7764C46.3658 20.6269 46.1059 20.5248 45.8337 20.4758Z" fill="white"/>
</svg>
