<svg width="30" height="40" viewBox="0 0 30 40" fill="none" xmlns="http://www.w3.org/2000/svg">
<path d="M14.9997 19.9994C16.9775 19.9994 18.9108 19.413 20.5553 18.3142C22.1997 17.2154 23.4814 15.6537 24.2383 13.8265C24.9951 11.9992 25.1931 9.98863 24.8073 8.04888C24.4215 6.10912 23.4691 4.32734 22.0706 2.92885C20.6721 1.53037 18.8903 0.577988 16.9506 0.192146C15.0108 -0.193695 13.0002 0.00433274 11.173 0.761188C9.34578 1.51804 7.78404 2.79973 6.68526 4.44418C5.58647 6.08862 5 8.02197 5 9.99972C5.00265 12.651 6.05704 15.1929 7.93177 17.0677C9.80651 18.9424 12.3484 19.9968 14.9997 19.9994ZM14.9997 3.33324C16.3182 3.33324 17.6071 3.72423 18.7034 4.45675C19.7997 5.18927 20.6542 6.23043 21.1587 7.44857C21.6633 8.66671 21.7953 10.0071 21.5381 11.3003C21.2809 12.5935 20.646 13.7813 19.7136 14.7136C18.7813 15.646 17.5935 16.2809 16.3003 16.5381C15.0071 16.7953 13.6667 16.6633 12.4486 16.1588C11.2304 15.6542 10.1893 14.7997 9.45674 13.7034C8.72422 12.6071 8.33324 11.3182 8.33324 9.99972C8.33324 8.23166 9.0356 6.53602 10.2858 5.28581C11.536 4.0356 13.2317 3.33324 14.9997 3.33324Z" fill="white"/>
<path d="M14.9996 23.3338C11.0228 23.3382 7.21016 24.9199 4.39815 27.7319C1.58614 30.544 0.0044113 34.3566 0 38.3334C0 38.7754 0.17559 39.1993 0.488142 39.5119C0.800694 39.8244 1.2246 40 1.66662 40C2.10864 40 2.53255 39.8244 2.8451 39.5119C3.15765 39.1993 3.33324 38.7754 3.33324 38.3334C3.33324 35.2393 4.56237 32.2719 6.75023 30.084C8.9381 27.8962 11.9055 26.667 14.9996 26.667C18.0937 26.667 21.0611 27.8962 23.2489 30.084C25.4368 32.2719 26.6659 35.2393 26.6659 38.3334C26.6659 38.7754 26.8415 39.1993 27.1541 39.5119C27.4666 39.8244 27.8905 40 28.3325 40C28.7746 40 29.1985 39.8244 29.511 39.5119C29.8236 39.1993 29.9992 38.7754 29.9992 38.3334C29.9947 34.3566 28.413 30.544 25.601 27.7319C22.789 24.9199 18.9764 23.3382 14.9996 23.3338Z" fill="white"/>
</svg>
