<svg width="35" height="38" viewBox="0 0 35 38" fill="none" xmlns="http://www.w3.org/2000/svg">
<path d="M24.2513 0.173759C24.0403 0.335106 24.0155 0.546099 23.9783 2.37057C23.9286 4.64185 24.0279 5.21277 24.512 5.43617C25.0457 5.6844 25.6166 5.62234 25.9889 5.27483L26.3116 4.97695V2.76773C26.3116 0.0620565 26.2868 0 25.207 0C24.785 0 24.4003 0.0744681 24.2513 0.173759Z" fill="#FF5F31"/>
<path d="M17.859 2.27121C17.5612 2.49461 17.375 2.9166 17.375 3.33859C17.375 3.77298 17.7225 4.20738 19.2367 5.67192C20.1551 6.56554 20.18 6.57795 20.8254 6.57795C21.6941 6.57795 21.9672 6.31731 21.9672 5.46093V4.82795L20.6144 3.47511L19.2739 2.10986H18.6658C18.3307 2.10986 17.9707 2.18433 17.859 2.27121Z" fill="#FF5F31"/>
<path d="M29.7991 3.40064C29.0917 4.10809 28.4711 4.76589 28.4091 4.85277C28.2105 5.17547 28.285 5.90774 28.558 6.25525C28.7814 6.5283 28.9055 6.57795 29.5013 6.57795H30.1963L31.5367 5.2127C32.8647 3.88469 32.8896 3.84745 32.8896 3.28894C32.8896 2.4822 32.5048 2.10986 31.6733 2.10986C31.0775 2.10986 31.0651 2.10986 29.7991 3.40064Z" fill="#FF5F31"/>
<path d="M23.3582 6.76427C22.8369 7.19867 22.7004 7.49654 22.2908 8.93626C22.1046 9.58165 21.906 10.227 21.844 10.3636C21.7819 10.5001 21.6082 10.9221 21.4592 11.2944C20.8883 12.6845 20.1809 13.6898 18.8032 15.0799C18.0585 15.837 16.9787 16.8175 16.4078 17.2394C15.8493 17.6614 14.7447 18.6295 13.9504 19.399C11.3564 21.8937 11.8652 21.7448 5.5727 21.8316C0.83156 21.9061 0.508865 21.9185 0.260638 22.1419C0 22.3777 0 22.4398 0 28.5462V34.727L0.310284 34.9256C0.558511 35.087 1.05496 35.1242 3.43794 35.1366C8.45213 35.1366 11.977 35.3228 12.9699 35.6331C15.4645 36.3777 16.5443 36.6508 18.4681 36.9859C19.7216 37.2093 20.4415 37.2341 25.2695 37.2341C30.3954 37.2341 30.6933 37.2217 31.1401 36.9859C31.6613 36.7253 32.4557 35.8813 32.6667 35.3724C32.8901 34.8387 32.9894 33.9575 32.8901 33.4114C32.8032 32.9026 32.8032 32.8902 33.3121 32.5923C34.5656 31.86 35 31.0905 35 29.6136C35 28.5834 34.8759 28.0746 34.5408 27.665C34.4043 27.4912 34.4167 27.3795 34.6897 26.9203C34.9504 26.4487 35 26.2253 35 25.2199C35 24.1153 34.9255 23.8175 34.5284 23.321C34.4043 23.1597 34.4291 23.0355 34.6897 22.5763C34.9504 22.1047 35 21.8689 35 20.9504C35 20.3547 34.9379 19.7093 34.8511 19.5231C34.578 18.8902 33.9823 18.2324 33.3369 17.8724L32.7039 17.5001H29.8865C28.3227 17.5001 27.0567 17.4753 27.0567 17.4504C27.0567 17.4256 27.2553 16.9788 27.4911 16.4699C28.3848 14.5462 28.6702 13.3795 28.6702 11.555C28.6702 9.69335 28.2855 8.58874 27.3174 7.62065C26.5479 6.86356 25.8156 6.54087 24.6986 6.47881C23.8174 6.42916 23.7305 6.44157 23.3582 6.76427ZM25.5798 9.51959C26.1011 10.0905 26.2004 10.5249 26.1507 11.766C26.1259 12.4238 26.0142 13.2678 25.9149 13.6277C25.7287 14.2359 24.7855 16.2341 24.2021 17.2519C24.0284 17.5621 23.9539 17.9097 23.9539 18.5054C23.9539 19.8582 23.805 19.8086 28.2358 19.9203C30.2837 19.9699 32.0461 20.0568 32.1454 20.1065C32.2571 20.1685 32.4184 20.3547 32.5177 20.5409C32.6667 20.8263 32.6667 20.9132 32.5053 21.1987C32.2199 21.7324 31.8351 21.8441 30.3706 21.8441C29.0301 21.8441 29.0177 21.8441 28.6454 22.2164C28.3103 22.5639 28.2731 22.6632 28.3351 23.1597C28.4344 24.0533 28.6206 24.1526 30.445 24.2643C31.9965 24.3511 32.0213 24.3636 32.3316 24.7235C32.7163 25.1827 32.7163 25.3441 32.344 25.7785C32.0585 26.1136 32.0089 26.126 30.4699 26.188C28.9184 26.2501 28.8936 26.2625 28.5833 26.61C28.3227 26.9203 28.2855 27.0692 28.3351 27.516C28.4344 28.4097 28.5833 28.4965 30.3085 28.5958C31.9344 28.6951 32.1578 28.7572 32.4681 29.2412C32.6294 29.4894 32.6543 29.6136 32.5426 29.8494C32.2943 30.3831 31.9344 30.5072 30.3085 30.6065C28.8812 30.6809 28.7695 30.7058 28.5461 31.0036C28.1489 31.5001 28.211 32.2199 28.6826 32.6543C28.8936 32.8529 29.1791 33.0143 29.3156 33.0143C29.6135 33.0143 30.0479 33.2377 30.2465 33.4983C30.4947 33.8086 30.4326 34.243 30.0975 34.5657L29.7996 34.876H25.7287C20.6525 34.876 18.3936 34.6153 15.3901 33.6969C14.3723 33.3866 12.4238 32.9274 11.7784 32.8405L11.2074 32.7536L11.133 31.0657C11.0833 30.1348 11.0461 28.2235 11.0461 26.8086V24.2394L11.766 24.016C13.0071 23.6313 13.6649 23.2217 14.8812 22.0302C16.5567 20.4168 17.2394 19.8086 17.8723 19.3494C21.0993 17.0285 23.4574 13.9256 24.3759 10.7855C24.8475 9.15966 24.9096 9.03555 25.1702 9.17207C25.2819 9.23413 25.4805 9.38306 25.5798 9.51959ZM8.68794 28.4841V32.766H5.52305H2.35816V28.4841V24.2022H5.52305H8.68794V28.4841Z" fill="#FF5F31"/>
<path d="M4.5797 28.7818C3.57438 29.7872 4.79068 31.2517 6.11869 30.6435C6.65238 30.4077 6.90061 29.3652 6.54068 28.9059C6.08146 28.3102 5.11338 28.2481 4.5797 28.7818Z" fill="#FF5F31"/>
</svg>
