<svg width="35" height="35" viewBox="0 0 35 35" fill="none" xmlns="http://www.w3.org/2000/svg">
<path d="M9.85833 8.87834C4.98167 13.7667 0.91 17.8383 0.805 17.955C0.7 18.06 0.478333 18.3517 0.303333 18.5967C0.035 19.005 0 19.1567 0 20.1483V21.2567L2.60167 23.8933C8.12 29.4933 13.0083 34.2883 13.44 34.5217C14.0233 34.8367 15.7383 34.8717 16.4267 34.5917C16.7183 34.4633 19.635 31.6283 25.9233 25.34L35 16.275V15.7383C35 15.26 34.8833 14.8283 34.5333 14.0583C34.195 13.3 33.95 12.7167 33.95 12.67C33.95 12.635 33.7983 12.2733 33.6117 11.8767C33.425 11.4683 32.9233 10.325 32.4917 9.33334C32.06 8.34167 31.5817 7.25667 31.4417 6.94167C30.8817 5.65834 30.8117 5.915 32.095 4.59667C33.2383 3.41834 33.25 3.41834 33.25 2.835C33.25 2.19334 32.9933 1.84334 32.41 1.70334C31.8967 1.58667 31.4883 1.83167 30.3333 2.98667L29.2133 4.08334L28.7583 3.86167C28.5017 3.745 27.895 3.47667 27.4167 3.26667C26.9383 3.06834 26.3317 2.8 26.075 2.68334C25.8183 2.555 24.325 1.91334 22.7617 1.23667C20.37 0.198333 19.81 0 19.32 0H18.725L9.85833 8.87834ZM20.1367 2.67167C20.195 2.71834 20.9533 3.06834 21.8167 3.44167C22.68 3.80334 23.73 4.27 24.15 4.45667C24.57 4.64334 25.2233 4.935 25.6083 5.09834C25.9933 5.25 26.5533 5.50667 26.8567 5.64667L27.4167 5.90334L26.74 6.56834C26.0867 7.21 26.0517 7.23334 25.6667 7.11667C24.5117 6.79 23.1117 7.14 22.3183 7.95667C21.6533 8.645 21.4083 9.29834 21.42 10.3833C21.42 11.7017 21.9683 12.6117 23.1233 13.2417C23.66 13.545 23.8583 13.5917 24.675 13.58C25.7017 13.58 26.2383 13.3817 26.9967 12.7167C27.7783 12.0283 28.175 10.5467 27.8833 9.46167L27.7433 8.94834L28.3967 8.295C28.7467 7.945 29.0733 7.68834 29.12 7.72334C29.2367 7.85167 32.4333 15.1783 32.4333 15.3417C32.4333 15.4117 28.5717 19.32 23.8583 24.01C16.765 31.08 15.2367 32.55 14.98 32.55C14.7117 32.55 13.5683 31.465 8.42333 26.2967L2.18167 20.055L5.26167 16.94C14.6183 7.46667 19.5767 2.56667 19.7867 2.56667C19.915 2.56667 20.0667 2.61334 20.1367 2.67167ZM25.235 9.61334C25.69 10.0333 25.76 10.4533 25.4217 10.8033C24.8267 11.445 24.3133 11.4333 23.905 10.78C23.625 10.325 23.6833 10.01 24.1267 9.60167C24.5 9.25167 24.85 9.26334 25.235 9.61334Z" fill="#FF5F31"/>
<path d="M10.9542 14.3383C10.4408 14.8517 10.4758 15.4817 11.0592 16.1233C11.6075 16.7417 12.1909 17.325 12.8092 17.8733C13.4159 18.4217 14.0342 18.48 14.5475 18.0367C14.8275 17.7917 14.8742 17.6633 14.8742 17.1617V16.5667L13.5792 15.2833C12.3425 14.0583 12.2609 14 11.7825 14C11.3975 14 11.2225 14.07 10.9542 14.3383Z" fill="#FF5F31"/>
<path d="M20.8253 16.3569C20.6736 16.4502 20.1953 16.4852 19.5303 16.4619C18.3286 16.4269 17.9086 16.5552 17.2203 17.1502C16.1003 18.1419 16.0303 19.3552 16.9636 21.6302C17.1969 22.1785 17.3836 22.6802 17.3836 22.7502C17.3836 22.8085 17.2436 22.9952 17.0686 23.1585C16.5553 23.6252 16.0536 23.5552 15.4703 22.9485C15.1903 22.6685 14.922 22.2369 14.8286 21.9452C14.5136 20.8719 13.5686 20.5452 12.8336 21.2335C12.472 21.5719 12.4603 21.6185 12.5186 22.2252C12.5536 22.5635 12.6936 23.1002 12.822 23.4035C13.0436 23.9052 13.0553 23.9752 12.892 24.2202C12.5303 24.7802 12.787 25.6435 13.4053 25.9002C13.8136 26.0635 14.4903 25.9702 14.747 25.7135C14.887 25.5852 14.9803 25.5735 15.1553 25.6669C15.4936 25.8419 17.0453 25.8069 17.617 25.6085C18.3286 25.3519 19.0636 24.7102 19.3786 24.0685C19.6003 23.6252 19.647 23.3219 19.647 22.6335C19.6353 21.8752 19.5653 21.5952 19.1103 20.4752C18.6203 19.3085 18.597 19.1685 18.7603 18.9819C18.8536 18.8769 19.052 18.7835 19.1803 18.7835C19.542 18.7835 20.067 19.2852 20.1953 19.7519C20.2536 19.9735 20.4403 20.3002 20.6036 20.4752C20.872 20.7669 20.9536 20.7902 21.502 20.7319C22.3536 20.6502 22.5636 20.3585 22.4586 19.4252C22.3653 18.5619 22.3653 18.1652 22.4703 17.5119C22.552 16.9285 22.3886 16.5435 21.9686 16.3452C21.607 16.1819 21.117 16.1819 20.8253 16.3569Z" fill="#FF5F31"/>
</svg>
