<svg width="35" height="35" viewBox="0 0 35 35" fill="none" xmlns="http://www.w3.org/2000/svg">
<path d="M0 12.3433V24.675L4.06 28.735L8.10833 32.7833H15.19H22.26L23.2983 33.3783C25.2117 34.4867 26.2267 35 26.4833 35C26.9733 35 31.885 32.1883 32.6667 31.465C33.67 30.5317 34.4283 29.295 34.8133 27.9767C34.9767 27.4167 35 26.5767 35 22.0733V16.835L34.2883 16.7533C33.8917 16.7183 33.1683 16.6833 32.6783 16.6833C30.4267 16.6833 28.4433 15.5633 27.0317 13.51C26.8333 13.195 26.5883 12.95 26.5183 12.95C26.4367 12.95 26.285 13.09 26.1683 13.265C25.3983 14.4667 23.7883 15.8783 22.8667 16.1583C22.7033 16.205 22.5283 16.2867 22.4583 16.3333C22.26 16.4967 21 16.6717 19.4483 16.7533L17.955 16.835L17.99 22.2133L18.025 27.5917L18.34 28.42C18.6667 29.3183 19.2267 30.2633 19.8333 30.9517L20.2067 31.3833H14.7117H9.21667V30.3917V29.4H12.8333H16.45V24.2083V19.0167H10.4417H4.43333V21.2917V23.5667H2.85833H1.28333V12.425V1.28333H13.5333H25.7833V6.3V11.3167H26.4833H27.1833V5.65833V0H13.5917H0V12.3433ZM27.3117 16.0883C28.9333 17.4533 30.2283 17.955 32.305 18.0483L33.7517 18.1183L33.6817 22.5633C33.6233 26.5417 33.5883 27.0783 33.39 27.65C32.7017 29.6217 32.06 30.2633 28.9683 32.0717L26.565 33.4717L25.5733 32.9467C21.8983 30.9517 20.9417 30.2283 20.125 28.77C19.4483 27.5683 19.3783 27.0083 19.2967 22.3767L19.215 18.2233L19.7283 18.1533C20.0083 18.1183 20.685 18.0717 21.2333 18.0367C22.89 17.9317 24.4183 17.255 25.76 16.0183C26.1333 15.68 26.4367 15.4117 26.46 15.4C26.4833 15.4 26.8683 15.715 27.3117 16.0883ZM15.1667 24.2083V28H12.1917H9.21667V25.7833V23.5667H7.525H5.83333V21.9917V20.4167H10.5H15.1667V24.2083ZM7.79333 27.405C7.78167 28.8167 7.72333 30.0067 7.67667 30.0417C7.63 30.0883 6.405 28.945 4.95833 27.4867L2.32167 24.85H5.075H7.84L7.79333 27.405Z" fill="#FF5F31"/>
<path d="M27.3345 22.8898L23.6828 26.5414L22.8311 25.6898C22.3645 25.2348 21.9095 24.8498 21.8045 24.8498C21.6178 24.8498 20.8828 25.5498 20.8828 25.7364C20.8828 25.9114 23.4961 28.4664 23.6828 28.4664C23.9045 28.4664 32.0828 20.2998 32.0828 20.0781C32.0828 19.8681 31.3945 19.2498 31.1611 19.2498C31.0561 19.2498 29.3295 20.8948 27.3345 22.8898Z" fill="#FF5F31"/>
<path d="M31.3603 24.6982C31.3253 26.9966 31.3253 27.0082 30.987 27.5916C30.8003 27.9066 30.3687 28.4432 30.0187 28.7699L29.3887 29.3766L29.7153 29.9132C29.8903 30.2049 30.1003 30.4499 30.182 30.4499C30.3803 30.4499 31.442 29.5866 31.7803 29.1316C31.9437 28.9216 32.2237 28.4316 32.3987 28.0466C32.7137 27.3699 32.7253 27.2999 32.7603 24.8732L32.7953 22.3999H32.107H31.407L31.3603 24.6982Z" fill="#FF5F31"/>
<path d="M6.65039 21.9918V22.6334H10.4421H14.2337V21.9918V21.3501H10.4421H6.65039V21.9918Z" fill="#FF5F31"/>
<path d="M10.1149 23.5316C10.0682 23.5666 10.0332 23.8816 10.0332 24.2316V24.85H12.1682H14.2915L14.2565 24.15L14.2099 23.45H12.2032C11.0949 23.45 10.1499 23.485 10.1149 23.5316Z" fill="#FF5F31"/>
<path d="M10.0332 26.4834V27.1834H12.1332H14.2332V26.4834V25.7834H12.1332H10.0332V26.4834Z" fill="#FF5F31"/>
<path d="M3.38281 3.90819V5.71652H13.5911H23.7995V3.90819V2.09985H13.5911H3.38281V3.90819ZM22.5161 3.90819V4.31652H13.5911H4.66615V3.90819V3.49985H13.5911H22.5161V3.90819Z" fill="#FF5F31"/>
<path d="M3.38281 8.45832V9.09998H12.4828H21.5828V8.45832V7.81665H12.4828H3.38281V8.45832Z" fill="#FF5F31"/>
<path d="M22.5176 8.45832V9.09998H23.1592H23.8009V8.45832V7.81665H23.1592H22.5176V8.45832Z" fill="#FF5F31"/>
<path d="M3.38281 10.6749V11.3165H12.4828H21.5828V10.6749V10.0332H12.4828H3.38281V10.6749Z" fill="#FF5F31"/>
<path d="M22.5176 10.6749V11.3165H23.1592H23.8009V10.6749V10.0332H23.1592H22.5176V10.6749Z" fill="#FF5F31"/>
<path d="M3.38281 12.95V13.65H12.4828H21.5828V12.95V12.25H12.4828H3.38281V12.95Z" fill="#FF5F31"/>
<path d="M22.5176 12.95V13.65H23.1592H23.8009V12.95V12.25H23.1592H22.5176V12.95Z" fill="#FF5F31"/>
<path d="M3.38281 15.2249V15.8666H8.80781H14.2328V15.2249V14.5833H8.80781H3.38281V15.2249Z" fill="#FF5F31"/>
<path d="M15.166 15.2249V15.8666H15.8077H16.4493V15.2249V14.5833H15.8077H15.166V15.2249Z" fill="#FF5F31"/>
<path d="M3.38281 17.4417V18.0834H8.80781H14.2328V17.4417V16.8H8.80781H3.38281V17.4417Z" fill="#FF5F31"/>
<path d="M15.166 17.4417V18.0834H15.8077H16.4493V17.4417V16.8H15.8077H15.166V17.4417Z" fill="#FF5F31"/>
</svg>
