<svg width="35" height="41" viewBox="0 0 35 41" fill="none" xmlns="http://www.w3.org/2000/svg">
<path d="M10.3203 0.60546C9.97049 0.941827 9.62067 1.21092 9.51304 1.21092C9.02867 1.21092 7.13156 2.32766 6.3781 3.05421C4.93845 4.44004 4.23881 5.71823 3.82172 7.72298C3.6199 8.67826 3.51226 8.9339 3.28353 9.01462C2.86643 9.17608 2.31479 9.90263 2.20716 10.4274C2.16679 10.6695 2.1937 11.1001 2.28788 11.3557C2.44934 11.8536 3.10862 12.5128 3.44498 12.5128C3.74099 12.5128 3.70062 13.8314 3.37771 14.1812C2.98753 14.6252 2.82607 15.2979 2.82607 16.4685C2.82607 17.8274 3.12207 18.5271 3.90244 19.0922C4.2119 19.3074 4.72318 19.5362 5.03263 19.5765C5.75919 19.6976 5.82646 19.738 6.16283 20.3838C6.56647 21.1642 7.33338 22.0118 8.01957 22.4155L8.62503 22.7653L7.91193 23.4111L7.19883 24.0435L5.39591 24.1377C4.40027 24.178 3.21626 24.2184 2.7588 24.2184C1.87079 24.2184 1.50751 24.3529 0.861694 24.8911C-0.0532223 25.6715 0.000596329 25.2275 0.000596329 33.0043C0.000596329 38.292 0.0409603 40.0814 0.162052 40.2025C0.283144 40.3236 2.27443 40.364 8.30212 40.364H16.2807L16.3614 40.0411C16.4018 39.8527 16.4018 39.5836 16.3479 39.4356C16.2672 39.18 16.1596 39.1531 14.8545 39.1531H13.4552V33.6367V28.1337L14.0337 28.5104C16.5229 30.1788 17.0341 30.4613 17.532 30.4613C18.3661 30.4748 18.4334 30.2864 18.4334 27.8242V25.6984H19.1062H19.7789V32.4257V39.1396L18.8102 39.18L17.828 39.2203V39.7585V40.2967L26.2237 40.3371C32.3052 40.3505 34.6732 40.3236 34.7943 40.216C35.0499 40.0007 35.0768 30.5555 34.8212 30.2999C34.579 30.0577 34.1081 30.0981 33.8659 30.3806C33.6641 30.5959 33.6372 31.1206 33.6372 34.8879V39.1531H27.448H21.2589V31.4166V23.6802H21.5953H21.9316V30.8784C21.9316 37.848 21.9451 38.0767 22.1873 38.2112C22.5909 38.4131 32.5877 38.3996 32.803 38.1843C32.9241 38.0632 32.9645 36.2469 32.9645 30.8515V23.6802H33.3008H33.6372V26.0079C33.6372 28.5239 33.7314 28.9275 34.3637 28.9275C34.9557 28.9275 34.9827 28.7661 34.9827 25.6984C34.9827 23.0882 34.9557 22.7518 34.7539 22.5769C34.579 22.4155 34.1216 22.3482 33.0452 22.3078C31.9284 22.2675 31.5517 22.2136 31.5113 22.0656C31.3768 21.6889 30.8117 21.2584 30.4484 21.2584C30.1255 21.2584 30.0313 21.1507 29.7757 20.5991C29.3586 19.6169 28.5917 19.1056 27.5691 19.1056C27.1386 19.1056 26.6408 19.1594 26.4659 19.2267C25.9411 19.4285 25.1742 20.3031 25.08 20.8009C25.0128 21.1911 24.9455 21.2584 24.6226 21.2584C24.2189 21.2584 23.5462 21.7158 23.5462 21.9849C23.5462 22.2271 22.9407 22.3347 21.6625 22.3347C21.084 22.3347 20.5054 22.3751 20.3843 22.4155C20.0749 22.5366 19.7789 23.1824 19.7789 23.7475V24.2184H18.9985C18.2451 24.2184 18.2047 24.2049 17.5185 23.5187L16.8054 22.8056L17.1821 22.55C17.6934 22.2002 19.1062 20.7336 19.1062 20.5587C19.1062 20.4914 19.2272 20.2627 19.3752 20.0474C19.5771 19.7649 19.7923 19.6573 20.2498 19.59C21.0302 19.4689 21.9047 18.8096 22.3084 18.0292C22.5775 17.5045 22.6178 17.2758 22.5775 16.3474C22.5371 15.4729 22.4429 15.0961 22.0931 14.383C21.5953 13.3605 21.5145 12.5128 21.9182 12.5128C22.0527 12.5128 22.3891 12.2706 22.6582 11.9746C23.0618 11.5172 23.1426 11.3423 23.1426 10.8175C23.1426 10.0372 22.8062 9.45863 22.1738 9.13571C21.7567 8.92044 21.6625 8.79935 21.6625 8.48989C21.6625 7.81716 21.2589 6.43133 20.7476 5.38186C20.0749 3.96913 18.5007 2.42184 17.0476 1.70874C16.4825 1.43965 15.9309 1.21092 15.8232 1.21092C15.7156 1.21092 15.3523 0.941827 15.0159 0.60546L14.3836 0H12.6614H10.9258L10.3203 0.60546ZM13.7108 1.56074C13.9934 1.76256 14.0203 1.85674 13.953 2.54293C13.6974 4.84368 13.4418 6.37751 13.2938 6.48515C12.8498 6.75424 11.8407 6.47169 11.8407 6.06805C11.8407 5.9066 11.4505 2.90621 11.3563 2.40838C11.2218 1.66838 11.612 1.34547 12.6211 1.34547C13.1189 1.34547 13.509 1.42619 13.7108 1.56074ZM10.0647 4.19785C10.2665 5.85278 10.4683 7.22515 10.5625 7.62879C10.6298 7.93825 10.6701 7.93825 12.648 7.93825C13.7512 7.93825 14.6796 7.88443 14.7199 7.81716C14.7603 7.74988 14.8545 7.27897 14.9352 6.78115C15.0698 5.82587 15.4734 2.94657 15.4734 2.86584C15.4734 2.74475 15.8905 2.86584 16.4556 3.1753C18.3392 4.17095 19.7654 6.22951 20.1153 8.43607L20.2094 9.01462H15.5003C10.3203 9.01462 10.4414 9.00117 10.5221 9.84881L10.5625 10.2928L15.9039 10.3601C21.2051 10.4408 21.7164 10.4812 21.4742 10.8848C21.4069 10.9925 18.7832 11.0328 12.648 11.0328C4.10426 11.0328 3.47189 11.0059 3.84862 10.6292C3.9159 10.5619 5.08645 10.4677 6.45883 10.4139C8.03302 10.3601 8.9883 10.2659 9.04212 10.1717C9.20358 9.94299 9.16321 9.35099 8.9883 9.17608C8.88067 9.06844 8.2483 9.01462 7.03738 9.01462H5.24791V8.57062C5.24791 7.3597 6.45883 5.0455 7.57557 4.10367C8.30212 3.49821 9.4054 2.82548 9.68795 2.82548C9.86286 2.82548 9.94358 3.12148 10.0647 4.19785ZM5.62464 12.8088C5.55737 13.2663 5.11336 13.3067 5.11336 12.8627C5.11336 12.5936 5.18064 12.5128 5.39591 12.5128C5.59773 12.5128 5.665 12.5801 5.62464 12.8088ZM18.2585 15.594C18.1643 18.998 18.0701 19.4016 17.2225 20.3704C16.469 21.218 15.7829 21.5275 14.3028 21.6755C12.7556 21.8369 10.724 21.7293 9.7014 21.4467C8.74612 21.1776 7.81775 20.2627 7.41411 19.1998C7.15847 18.4867 7.13156 18.1638 7.13156 15.4729V12.5128H12.7422H18.3392L18.2585 15.594ZM20.1825 12.8627C20.1825 13.2797 19.8731 13.2394 19.8058 12.8088C19.7789 12.607 19.8327 12.5128 19.9673 12.5128C20.1153 12.5128 20.1825 12.6339 20.1825 12.8627ZM5.63809 16.6434C5.65155 18.3791 5.58428 18.4598 4.79045 17.7063C4.33299 17.2892 4.30608 17.1951 4.30608 16.455C4.30608 15.5805 4.60209 15.0154 5.16718 14.8001C5.57082 14.6521 5.62464 14.8943 5.63809 16.6434ZM20.2363 14.827C20.788 15.0692 21.0167 15.5536 21.0167 16.455C21.0167 17.222 20.9898 17.3027 20.5323 17.7198C20.2633 17.962 19.9942 18.1638 19.9134 18.1638C19.8327 18.1638 19.7789 17.5045 19.7789 16.4147C19.7789 15.4459 19.8058 14.6656 19.8462 14.6656C19.8731 14.6656 20.048 14.7329 20.2363 14.827ZM27.9055 20.7336C28.0939 20.8278 28.2688 20.9758 28.3091 21.07C28.363 21.218 28.188 21.2584 27.5153 21.2584C26.5869 21.2584 26.4524 21.1373 26.9368 20.8009C27.3 20.5453 27.4615 20.5318 27.9055 20.7336ZM30.0044 23.3438V23.9493H27.5153H25.0262V23.3438V22.7384H27.5153H30.0044V23.3438ZM14.6661 23.7878C14.6661 24.4068 14.6258 24.4606 13.657 25.4293L12.648 26.4249L11.7061 25.4966C10.7778 24.5682 10.7643 24.5548 10.7643 23.8551V23.142H12.7152H14.6661V23.7878ZM9.33813 24.918C9.37849 25.1468 9.72831 25.6984 10.105 26.1289C10.4818 26.573 10.7778 26.9362 10.7509 26.9497C10.724 26.9766 10.4818 27.138 10.2261 27.3264C9.9705 27.5148 9.47267 27.8377 9.13631 28.0261L8.51739 28.3893L8.43666 26.8151C8.36939 25.2409 8.36939 25.2275 8.73267 24.8642C9.17667 24.3933 9.23049 24.3933 9.33813 24.918ZM16.9534 26.8017C16.9534 27.6762 16.913 28.3893 16.8592 28.3893C16.7516 28.3893 15.1101 27.3533 14.7738 27.0708C14.5585 26.8824 14.5854 26.8151 15.2043 26.1424C15.5676 25.7522 15.9309 25.214 16.025 24.9718L16.1865 24.5144L16.5767 24.8642C16.9534 25.2275 16.9534 25.2409 16.9534 26.8017ZM31.6055 31.5781L31.619 37.0003H27.5153H23.4116V31.6992C23.4116 28.793 23.452 26.0482 23.4924 25.5908C23.5866 24.7835 23.5866 24.77 23.8153 25.066C24.0575 25.362 24.1247 25.362 27.475 25.362C30.5023 25.362 30.9193 25.3351 31.1212 25.1333C31.2423 25.0122 31.3633 24.8238 31.3633 24.7297C31.3768 24.6355 31.4306 24.918 31.4844 25.362C31.5383 25.806 31.5921 28.6046 31.6055 31.5781ZM6.86247 27.8377V29.9904L7.21229 30.2595C7.84466 30.7574 7.91193 30.717 10.401 29.089C11.1276 28.6181 11.76 28.2548 11.8003 28.3086C11.8407 28.349 11.908 30.7977 11.9483 33.7712L12.0156 39.1531H6.66065H1.3057L1.38642 37.7134C1.44024 36.933 1.4806 34.0941 1.4806 31.4166C1.4806 25.2679 1.23842 25.7119 4.68281 25.6984H6.86247V27.8377Z" fill="#FF5F31"/>
<path d="M9.30964 13.7506C9.09437 13.9658 9.10782 15.6073 9.33655 15.9033C9.53837 16.1859 10.2246 16.2262 10.4667 15.984C10.682 15.7688 10.682 13.9658 10.4667 13.7506C10.3726 13.6564 10.1169 13.5891 9.88819 13.5891C9.65946 13.5891 9.40382 13.6564 9.30964 13.7506Z" fill="#FF5F31"/>
<path d="M14.895 13.8316C14.5587 14.1949 14.5856 15.6211 14.9085 15.9171C15.2045 16.1861 15.7561 16.2131 15.9849 15.9843C16.2001 15.7691 16.2001 13.9661 15.9849 13.7509C15.7427 13.5087 15.1372 13.5625 14.895 13.8316Z" fill="#FF5F31"/>
<path d="M11.8016 15.0153C11.6401 15.1902 11.694 17.5582 11.8689 17.7331C12.0841 17.9484 13.618 17.9484 13.8333 17.7331C14.2369 17.3295 13.8737 16.4146 13.322 16.4146C13.1067 16.4146 13.0663 16.2935 13.026 15.7015L12.9856 15.0018L12.4474 14.9615C12.138 14.9346 11.8554 14.9615 11.8016 15.0153Z" fill="#FF5F31"/>
<path d="M10.1309 18.7154C9.8484 18.9979 9.91567 19.6976 10.2655 20.0205C11.2208 20.922 13.1179 21.1372 14.4095 20.478C15.2302 20.0743 15.5531 19.6034 15.4186 19.0652C15.2841 18.4867 14.7728 18.4463 13.8579 18.9576C13.4273 19.1863 12.9295 19.3747 12.7277 19.3747C12.3241 19.3747 11.4226 19.0249 11.3015 18.823C11.1535 18.6078 10.3059 18.527 10.1309 18.7154Z" fill="#FF5F31"/>
<path d="M25.3484 26.963C25.1735 27.0841 25.012 27.111 24.8775 27.0303C24.6084 26.8554 24.0298 26.8823 23.8415 27.0706C23.5051 27.407 23.6531 28.0394 24.1913 28.5641C24.9044 29.2637 25.3349 29.2368 26.1018 28.4565L26.6938 27.851L26.8418 28.295L26.9764 28.7256L28.8466 28.7659C30.8917 28.8063 31.3492 28.6717 31.3492 28.0797C31.3357 27.3801 31.1473 27.3128 29.008 27.3128C27.2589 27.3128 27.0302 27.3397 26.936 27.5416C26.8688 27.7299 26.8284 27.6626 26.7746 27.3128C26.7073 26.8688 26.6669 26.8419 26.1691 26.8015C25.8597 26.7746 25.5098 26.8419 25.3484 26.963Z" fill="#FF5F31"/>
<path d="M23.7343 29.7885C23.6939 29.8961 23.6804 30.1786 23.7074 30.4343L23.7477 30.8783L24.7568 30.9187C26.2234 30.9725 26.3714 30.9187 26.3714 30.2863C26.3714 29.6405 26.2772 29.6001 24.8779 29.6001C24.0841 29.6001 23.7881 29.6539 23.7343 29.7885Z" fill="#FF5F31"/>
<path d="M26.9372 29.7619C26.7488 29.9503 26.7219 30.5288 26.8834 30.7845C26.9775 30.9055 27.5023 30.9459 29.063 30.919C30.8256 30.8786 31.135 30.8517 31.2696 30.6499C31.3638 30.5019 31.3638 30.3001 31.2696 30.0444L31.1485 29.6677L29.1303 29.6274C27.6637 29.6004 27.0583 29.6408 26.9372 29.7619Z" fill="#FF5F31"/>
<path d="M23.9224 31.8876C23.586 32.1971 23.6129 32.9102 23.9358 33.0985C24.2991 33.2869 26.0078 33.2734 26.2097 33.0716C26.4653 32.816 26.4115 32.0491 26.1424 31.9145C26.0078 31.8472 25.51 31.7531 25.0257 31.7261C24.326 31.6723 24.0973 31.6992 23.9224 31.8876Z" fill="#FF5F31"/>
<path d="M27.016 31.9009C26.7469 32.0489 26.7066 32.5737 26.9084 32.9773C27.0429 33.206 27.2178 33.2329 29.0208 33.2329C30.7295 33.2329 30.9986 33.206 31.1601 32.9908C31.4291 32.6409 31.3888 32.1969 31.0524 31.9682C30.8102 31.7933 30.3662 31.7529 28.9938 31.7529C28.0386 31.7529 27.1371 31.8202 27.016 31.9009Z" fill="#FF5F31"/>
<path d="M23.775 34.1343C23.6001 34.2958 23.6808 35.1031 23.8961 35.3049C24.1383 35.5605 25.6856 35.6009 26.1161 35.3856C26.4525 35.1972 26.4794 34.242 26.1565 34.1209C25.8739 34.0132 23.8826 34.0132 23.775 34.1343Z" fill="#FF5F31"/>
<path d="M26.9366 34.2017C26.7213 34.417 26.7348 34.9956 26.9635 35.2781C27.1115 35.4934 27.3806 35.5203 28.9413 35.5203C30.3675 35.5203 30.8115 35.4799 31.0537 35.305C31.3766 35.0897 31.4305 34.713 31.2152 34.2959C31.0806 34.0672 30.9057 34.0403 29.0893 34.0403C27.717 34.0403 27.0442 34.0941 26.9366 34.2017Z" fill="#FF5F31"/>
</svg>
