<svg width="35" height="29" viewBox="0 0 35 29" fill="none" xmlns="http://www.w3.org/2000/svg">
<path d="M10.1009 0.0443947C8.94588 0.347743 7.59247 1.49113 7.06745 2.58786C6.70576 3.35789 6.50742 4.34961 6.56575 5.11965L6.60076 5.67968H3.45059C1.14048 5.67968 0.253763 5.71468 0.148758 5.81969C-0.0495859 6.01803 -0.0495859 24.7091 0.148758 24.9074C0.230429 24.9891 0.580447 25.0474 0.942132 25.0474H1.5955L1.81718 25.6541C2.36554 27.2292 3.56727 28.1859 5.21235 28.3726C6.98578 28.5826 8.60753 27.7075 9.35423 26.1558C9.54091 25.7708 9.69258 25.3624 9.69258 25.2457C9.69258 25.0591 9.94926 25.0474 13.4611 25.0474C15.5379 25.0474 19.0614 25.0824 21.2782 25.1291L25.3267 25.1991L25.4434 25.6424C25.7351 26.7275 26.9485 27.9292 28.1152 28.2676C29.0136 28.5359 30.3203 28.4426 31.1604 28.0576C32.0121 27.6609 32.7938 26.8092 33.1555 25.8874L33.4355 25.1641H34.0422C35.0572 25.1641 35.0222 25.3274 34.9872 21.2205L34.9522 17.6387L34.4039 17.6037C34.0888 17.5804 33.8438 17.557 33.8438 17.5337C33.8438 17.5103 33.4705 16.4253 33.0271 15.1186C32.5721 13.8118 32.0937 12.4234 31.9654 12.0384C31.5104 10.6966 31.8604 10.8133 28.1852 10.8133H24.9767V8.36315C24.9767 6.0647 24.965 5.91303 24.755 5.79635C24.6033 5.72635 23.0749 5.67968 20.5665 5.67968H16.6113L16.5529 4.57129C16.5063 3.62624 16.4363 3.35789 16.1096 2.68119C15.6196 1.68948 14.7212 0.767765 13.8228 0.359411C13.2044 0.0677292 12.9944 0.0327274 11.7344 0.00939287C10.9643 -0.0139417 10.2293 0.00939287 10.1009 0.0443947ZM13.0178 1.64281C13.9628 2.09783 14.6628 2.87954 14.9895 3.85959C15.3395 4.92131 15.1762 5.59801 14.1378 7.63978C13.6711 8.53816 11.8744 11.455 11.606 11.7351C11.466 11.8751 9.64591 8.94652 8.78254 7.19643C8.03583 5.70302 8.00083 5.58634 8.00083 4.80464C8.0125 3.83625 8.29251 3.17122 9.01588 2.42451C9.72758 1.67781 10.486 1.36279 11.5593 1.36279C12.236 1.36279 12.5627 1.42113 13.0178 1.64281ZM7.61581 8.24648C8.32751 9.57655 9.48257 11.455 10.416 12.7618C11.0693 13.6835 11.1277 13.7302 11.5477 13.7302C11.956 13.7302 12.0144 13.6835 12.6211 12.8201C14.0561 10.8133 15.0362 9.22653 15.6779 7.87313L16.0512 7.07975H19.8781H23.6933V15.4219V23.764L16.7396 23.7407L9.77425 23.7057L9.63425 23.2156C9.30756 22.1306 8.65419 21.3255 7.65081 20.7772C7.14912 20.4972 6.89244 20.4505 5.87739 20.4038C4.804 20.3572 4.64066 20.3805 4.05729 20.6488C2.92557 21.1622 2.14386 22.0606 1.75884 23.2623C1.67717 23.5423 1.53716 23.764 1.44382 23.764C1.31548 23.764 1.29215 22.3173 1.29215 15.4219V7.07975L4.1623 7.10309L7.02078 7.13809L7.61581 8.24648ZM30.7987 13.1701C31.0087 13.7652 31.2187 14.3369 31.2654 14.4302C31.3237 14.5352 31.4054 14.7919 31.452 15.0136C31.4987 15.2352 31.5804 15.4919 31.6387 15.5969C31.8487 15.9936 32.2221 17.277 32.1637 17.417C32.1171 17.5454 31.4287 17.5804 28.5352 17.5804H24.9767V14.8385V12.0967H27.7068H30.4253L30.7987 13.1701ZM33.8438 21.3255C33.8438 23.5657 33.8322 23.7757 33.6455 23.7407C33.5288 23.7173 33.3655 23.4607 33.2371 23.0873C32.9571 22.2706 32.7471 21.9439 32.1287 21.3605C31.4054 20.6838 30.5537 20.3805 29.3753 20.3805C28.8502 20.3922 28.2202 20.4622 27.9635 20.5555C26.8085 20.9639 25.7117 22.1306 25.4201 23.2623C25.3501 23.554 25.2334 23.764 25.14 23.764C25.0117 23.764 24.9767 23.3206 24.9767 21.3139V18.8638H29.4103H33.8438V21.3255ZM6.68243 21.9439C7.18412 22.1539 7.86082 22.784 8.10583 23.2623C8.22251 23.5073 8.29251 23.9157 8.29251 24.429C8.28084 25.0941 8.23417 25.2924 7.96583 25.6774C7.03245 27.0308 5.45736 27.3692 4.1973 26.5058C3.4856 26.0041 3.15891 25.3624 3.15891 24.429C3.15891 24.009 3.20558 23.5307 3.26392 23.379C3.45059 22.9123 4.11563 22.2356 4.61732 22.0022C5.18902 21.7456 6.14573 21.7222 6.68243 21.9439ZM30.3903 21.9556C31.0087 22.2123 31.6854 22.9706 31.8604 23.589C32.1871 24.7557 31.7787 25.8758 30.7403 26.5991C30.3203 26.8908 30.1453 26.9375 29.4569 26.9375C28.2085 26.9492 27.5202 26.5058 26.9135 25.3158C26.5168 24.534 26.7851 23.2623 27.4968 22.5506C28.2202 21.8272 29.4686 21.5706 30.3903 21.9556Z" fill="#FF5F31"/>
<path d="M10.87 2.19114C10.2983 2.29614 9.71496 2.7045 9.31828 3.25286C9.0966 3.56787 9.03826 3.81289 9.01493 4.62959C8.97993 5.58631 8.99159 5.64465 9.36495 6.19301C9.93664 7.04472 10.5667 7.3364 11.675 7.28973C12.4101 7.25473 12.6317 7.19639 13.0401 6.91638C13.8101 6.40302 14.1252 5.76132 14.1252 4.72293C14.1252 3.97623 14.0785 3.78955 13.7868 3.32286C13.3434 2.62282 12.8651 2.30781 12.06 2.17947C11.6867 2.10946 11.3834 2.07446 11.3834 2.07446C11.3834 2.08613 11.15 2.1328 10.87 2.19114ZM12.3634 3.94123C12.8651 4.44292 12.8651 5.04962 12.3634 5.55131C12.0951 5.83132 11.9084 5.91299 11.5584 5.91299C11.2084 5.91299 11.0217 5.83132 10.7534 5.55131C10.2633 5.06128 10.2517 4.45459 10.73 3.94123C11.2084 3.42787 11.8617 3.42787 12.3634 3.94123Z" fill="#FF5F31"/>
<path d="M10.8239 14.2785C10.7772 14.3135 10.7422 14.6869 10.7422 15.0952V15.8303H7.91877C6.35535 15.8303 4.96695 15.8653 4.82694 15.9003C4.57026 15.9703 4.55859 16.0169 4.55859 17.347C4.55859 18.4904 4.5936 18.7354 4.74527 18.7937C5.02528 18.8988 18.9443 18.8754 19.1193 18.7587C19.2243 18.7004 19.2593 18.4787 19.236 18.152L19.201 17.6387L12.5273 17.6037C6.6937 17.5803 5.84199 17.557 5.84199 17.4053C5.84199 17.2537 6.23868 17.2303 8.6188 17.2303C10.6139 17.2303 11.4656 17.1837 11.6756 17.0787C11.9556 16.9387 11.9673 16.8803 12.0023 15.7253C12.0256 14.9435 11.9906 14.4652 11.8973 14.3602C11.7573 14.1968 10.9639 14.1268 10.8239 14.2785Z" fill="#FF5F31"/>
<path d="M19.8666 17.6035C19.7849 17.6852 19.7266 17.9302 19.7266 18.1635C19.7266 18.5135 19.7849 18.6185 20.0182 18.7235C20.4383 18.9219 21.0216 18.8986 21.3366 18.6769C21.675 18.4435 21.6983 17.7552 21.3716 17.5802C21.0566 17.4168 20.0416 17.4285 19.8666 17.6035Z" fill="#FF5F31"/>
<path d="M15.5022 22.0955C15.2805 22.1538 15.1289 22.5622 15.1989 22.9005C15.2805 23.3556 15.7006 23.4139 18.3024 23.3906C20.9858 23.3556 21.0092 23.3439 21.0092 22.7139C21.0092 22.0722 20.9858 22.0722 18.244 22.0488C16.844 22.0488 15.6072 22.0605 15.5022 22.0955Z" fill="#FF5F31"/>
<path d="M21.5473 22.2006C21.2673 22.4689 21.3139 23.0173 21.6173 23.2273C21.909 23.4373 22.4806 23.4723 22.924 23.2973C23.1924 23.204 23.2274 23.1223 23.2274 22.6673C23.2274 22.2356 23.1924 22.1422 22.9707 22.0839C22.469 21.9556 21.7339 22.0139 21.5473 22.2006Z" fill="#FF5F31"/>
<path d="M4.97799 22.7141C4.80299 22.7724 4.49964 22.9824 4.31296 23.1925C4.00961 23.5308 3.97461 23.6591 3.97461 24.3475C3.97461 25.1409 4.11462 25.4676 4.61631 25.8876C4.93133 26.1559 5.70137 26.261 6.26139 26.1093C7.18311 25.8643 7.63813 24.9775 7.42812 23.8458C7.24144 22.8774 6.14472 22.3641 4.97799 22.7141ZM6.00471 24.2658C6.19139 24.5575 5.81804 24.9192 5.56136 24.6975C5.33968 24.5225 5.31634 24.1608 5.52636 24.0792C5.73637 23.9858 5.86471 24.0442 6.00471 24.2658Z" fill="#FF5F31"/>
<path d="M28.6279 22.714C28.4295 22.784 28.1262 22.994 27.9512 23.204C27.6595 23.5541 27.6362 23.6357 27.6828 24.4758C27.7178 25.3391 27.7412 25.3975 28.1145 25.7358C28.8379 26.3775 30.1446 26.3192 30.7397 25.6308C31.3347 24.9191 31.2997 23.7291 30.6697 23.099C30.3313 22.7607 30.168 22.6907 29.6313 22.6557C29.2813 22.6323 28.8379 22.6557 28.6279 22.714ZM29.6896 24.2774C29.7946 24.4291 29.7713 24.5108 29.5963 24.6391C29.3279 24.8374 29.0596 24.6858 29.0596 24.3474C29.0596 23.9741 29.4796 23.9274 29.6896 24.2774Z" fill="#FF5F31"/>
</svg>
