<svg width="35" height="8" viewBox="0 0 35 8" fill="none" xmlns="http://www.w3.org/2000/svg">
<path d="M0 3.79656V7.58424H0.946921H1.89384V5.99702C1.89384 4.46391 1.90286 4.41882 2.06519 4.53606C2.15537 4.59919 2.91291 5.31163 3.74259 6.12328L5.23963 7.58424H12.1747C19.0015 7.58424 19.1188 7.58424 19.6148 7.39486C20.5437 7.05216 21.0758 6.38481 21.1659 5.45593C21.2651 4.48195 20.7782 3.60718 19.8944 3.20135C19.4525 2.99393 19.3623 2.98491 17.0897 2.98491C14.4834 2.98491 14.3391 2.95786 14.3391 2.44382C14.3391 1.91174 14.3932 1.90272 18.0366 1.90272H21.3283L21.3012 3.67932C21.2651 5.70844 21.3373 6.22248 21.7341 6.70045C22.0948 7.14235 22.8884 7.50308 23.6009 7.56621C24.6831 7.64737 25.8104 6.971 26.0539 6.08721C26.108 5.8888 26.1531 4.94188 26.1531 3.94987V2.17327H26.6761H27.1902L28.0289 3.01197L28.8676 3.85067L28.6692 4.03104C28.5609 4.12122 27.7493 4.95992 26.8565 5.8888L25.2332 7.58424H26.3965C27.7583 7.58424 27.4968 7.72854 28.9848 6.12328L29.9588 5.05912L30.7524 5.89782C31.1853 6.34874 31.7173 6.92591 31.9338 7.16038L32.3306 7.59326L33.6653 7.56621L35 7.53915L33.4759 5.96095C31.4378 3.85067 31.4288 3.84165 31.5821 3.63423C31.6452 3.53503 32.4388 2.69633 33.3497 1.75843L34.991 0.0539683L33.7555 0.0269134L32.511 -0.000141477L32.2945 0.252371C31.8256 0.811505 30.1842 2.534 30.1301 2.534C30.1031 2.534 29.571 1.96585 28.9577 1.27144L27.8305 0.00887682H20.9675C13.3471 0.00887682 13.6266 -0.00915977 12.9052 0.613102C12.5084 0.946779 12.31 1.27144 12.1206 1.85763C12.0304 2.14621 12.0033 2.17327 12.0033 1.98388C11.9853 1.56904 11.7238 0.946779 11.4262 0.640157C10.9753 0.171206 10.4793 0.00887682 9.55939 0.00887682C8.378 0.00887682 7.74671 0.342554 7.28678 1.19027C7.0974 1.56002 7.07936 1.70432 7.05231 3.49896L7.01623 5.41985H6.43004H5.84385L4.86086 4.5541C4.31976 4.07613 3.87787 3.65227 3.87787 3.61619C3.87787 3.50797 5.14043 2.35363 6.52023 1.19027C7.25071 0.577029 7.84592 0.0539683 7.84592 0.04495C7.84592 0.0269134 7.23267 0.00887682 6.49317 0.00887682H5.14043L4.31074 0.793468C3.85081 1.23536 3.14738 1.90272 2.74156 2.28149C2.34476 2.66927 1.99304 2.98491 1.95697 2.98491C1.9209 2.98491 1.89384 2.31756 1.89384 1.4969V0.00887682H0.946921H0V3.79656ZM10.1636 1.66824L10.4161 1.88468V3.66129C10.4161 5.41985 10.4161 5.43789 10.1997 5.60924C9.91111 5.84371 9.1175 5.84371 8.82891 5.60924C8.62149 5.43789 8.61247 5.40182 8.58542 3.7154L8.55836 1.9929L8.82891 1.72235C9.18062 1.36162 9.78485 1.34358 10.1636 1.66824ZM24.3945 1.94781C24.6199 2.16425 24.6199 2.18229 24.6199 3.79656C24.6199 5.87077 24.5478 6.05113 23.7181 6.05113C23.5197 6.05113 23.2943 5.97899 23.168 5.87979C22.9516 5.70844 22.9516 5.6904 22.9516 3.84165C22.9516 1.70432 22.9425 1.72235 23.7362 1.72235C24.0879 1.72235 24.2231 1.76744 24.3945 1.94781ZM12.6978 3.82362C12.833 3.96791 13.1036 4.17533 13.302 4.27453C13.6447 4.46391 13.798 4.47293 16.2329 4.49999C17.6488 4.50901 18.8933 4.53606 18.9925 4.56312C19.245 4.61722 19.3262 4.9509 19.1549 5.21243L19.0286 5.41985H15.5566H12.0845V4.08515V2.75946L12.2739 3.16528C12.3731 3.39074 12.5625 3.68834 12.6978 3.82362Z" fill="#151515"/>
</svg>
