<svg xmlns="http://www.w3.org/2000/svg" width="50" height="50" viewBox="0 0 50 50" fill="none">
<path d="M23.6426 0.185547C22.4707 0.625 21.6211 1.39648 21.0645 2.5293C20.7617 3.1543 20.752 3.22266 20.752 4.39453C20.752 5.58594 20.7617 5.63477 21.084 6.29883C21.4941 7.13867 22.3047 7.96875 23.0762 8.33984L23.6328 8.61328V10.166V11.7188H22.4121H21.1914L19.2773 15.5469L17.3633 19.3652L19.2285 21.2305L21.0938 23.0957L22.1875 21.9922L23.291 20.8984L22.1973 19.8047L21.1133 18.7207L22.1289 16.6797L23.1445 14.6484H25.0977H27.0508L28.0664 16.6797L29.082 18.7207L27.998 19.8047L26.9043 20.8984L28.0078 21.9922L29.1016 23.0957L30.9668 21.2305L32.832 19.3652L30.918 15.5469L29.0039 11.7188H27.7832H26.5625V10.166V8.61328L27.1289 8.33984C27.4316 8.19336 27.9297 7.82227 28.2324 7.5293C28.5254 7.22656 28.8965 6.72852 29.043 6.41602L29.3164 5.85938H32.334H35.3516V7.32422V8.78906H42.6758H50V4.39453V0H42.6758H35.3516V1.46484V2.92969H32.334H29.3164L29.043 2.36328C28.6719 1.5918 27.8418 0.791016 27.002 0.390625C26.3672 0.078125 26.2305 0.0488281 25.2441 0.0292969C24.3652 0 24.0723 0.0292969 23.6426 0.185547ZM47.0703 4.39453V5.85938H42.6758H38.2812V4.39453V2.92969H42.6758H47.0703V4.39453ZM25.8203 3.21289C26.2402 3.49609 26.4648 3.89648 26.4648 4.39453C26.4648 4.6582 26.3867 4.94141 26.2793 5.11719C25.9961 5.53711 25.5957 5.76172 25.0977 5.76172C24.3164 5.76172 23.7305 5.17578 23.7305 4.39453C23.7305 3.61328 24.3164 3.02734 25.0977 3.02734C25.3613 3.02734 25.6445 3.10547 25.8203 3.21289Z" fill="white"/>
<path d="M10.5566 30.9863L9.04297 35.5078L4.52148 37.0215L0 38.5254V44.2578V50H5.84961H11.6895L11.7383 49.082C11.7773 48.3789 11.8359 48.0859 11.9922 47.8418C12.5488 46.9336 13.8184 46.9336 14.375 47.8418C14.5312 48.0859 14.5898 48.3789 14.6289 49.082L14.6777 50H25H35.3223L35.3711 49.082C35.4297 48.0566 35.6055 47.6367 36.1133 47.334C36.748 46.9727 37.6172 47.1973 38.0078 47.8418C38.1641 48.0859 38.2227 48.3789 38.2617 49.082L38.3105 50H44.1504H50V44.2578V38.5254L45.4785 37.0215L40.957 35.5078L39.4434 30.9863L37.9395 26.4648H25H12.0605L10.5566 30.9863ZM23.5352 32.3242V35.2539H17.9688C14.9023 35.2539 12.4023 35.2246 12.4023 35.1855C12.4023 35.1465 12.832 33.8281 13.3496 32.2559L14.3066 29.3945H18.916H23.5352V32.3242ZM36.6504 32.2559C37.168 33.8281 37.5977 35.1465 37.5977 35.1855C37.5977 35.2246 35.0977 35.2539 32.0312 35.2539H26.4648V32.3242V29.3945H31.084H35.6934L36.6504 32.2559ZM43.1836 39.4727L47.0703 40.7715V43.916V47.0703H44.0527H41.0352L40.7617 46.5137C40.3906 45.7422 39.5605 44.9316 38.7207 44.5215C38.0566 44.1992 38.0078 44.1895 36.8164 44.1895C35.625 44.1895 35.5762 44.1992 34.9121 44.5215C34.0625 44.9414 33.1934 45.7812 32.8516 46.5332L32.6074 47.0703H25H17.4023L17.1289 46.5039C16.7578 45.7422 15.9277 44.9316 15.0879 44.5215C14.4238 44.1992 14.375 44.1895 13.1836 44.1895C11.9922 44.1895 11.9434 44.1992 11.2793 44.5215C10.4297 44.9414 9.56055 45.7812 9.21875 46.5332L8.97461 47.0703H5.94727H2.92969V43.916V40.7715L6.76758 39.4824L10.5957 38.2031L24.9512 38.1934L39.3066 38.1836L43.1836 39.4727Z" fill="white"/>
</svg>