<svg xmlns="http://www.w3.org/2000/svg" width="312" height="310" viewBox="0 0 312 310" fill="none">
  <path d="M268.154 161.382C275.784 139.539 282.499 120.507 282.989 119.138C283.808 116.81 282.754 116.964 262.641 121.558C250.857 124.218 240.911 126.416 240.354 126.387C239.798 126.358 242.651 117.164 246.725 105.942C250.734 94.647 253.872 85.3286 253.747 85.0432C253.55 84.8237 250.593 85.366 247.197 86.3036C243.808 87.1022 234.271 89.4612 226.147 91.4759L211.238 95.2268L193.579 75.6145L175.92 56.0022L132.964 68.045C109.397 74.6891 89.7164 80.3514 89.4237 80.615C89.1309 80.8786 81.4424 99.8597 72.3713 122.603L55.9044 164.065L73.4975 183.604L91.0906 203.143L83.6732 223.602C79.6646 234.897 76.4535 244.282 76.6511 244.501C76.8488 244.721 86.0929 242.625 97.1813 239.929C108.409 237.241 117.711 235.357 117.968 235.789C118.29 236.294 115.43 245.627 111.568 256.79C107.779 267.887 105.073 276.949 105.563 276.905C106.119 276.935 126.027 272.26 149.895 266.538L193.319 256.194L200.612 235.449C204.628 224.015 208.271 214.374 208.783 213.913C209.222 213.517 219.264 210.836 230.916 208.03C242.707 205.232 252.749 202.551 253.195 202.016C253.78 201.489 260.525 183.225 268.154 161.382ZM230.555 197.622C222.079 199.688 214.687 201.044 214.358 200.678C214.028 200.312 218.753 185.987 224.803 169.012L235.834 138.143L240.913 137.014C243.665 136.392 250.655 134.736 256.444 133.366C262.241 131.857 267.167 130.999 267.284 131.424C267.54 131.856 262.822 146.042 256.919 162.885C251.009 179.868 246.24 193.703 246.167 193.769C246.159 193.908 239.169 195.563 230.555 197.622ZM154.965 254.951C138.511 258.899 123.902 262.248 122.709 262.394C120.536 262.629 120.806 261.458 125.568 247.762C128.435 239.615 131.032 232.639 131.471 232.243C132.569 231.255 194.723 216.105 195.674 216.573C196.216 216.88 186.224 246.548 185.273 247.405C185.053 247.602 171.418 251.002 154.965 254.951ZM213.457 134.042C206.394 135.763 192.268 139.207 182.168 141.675C171.928 144.137 163.109 146.115 162.553 146.086C161.44 146.028 171.264 116.909 172.8 115.525C173.752 114.668 237.186 99.0271 237.648 99.5394C238.043 99.9785 227.561 129.691 226.822 130.489C226.529 130.752 220.52 132.32 213.457 134.042ZM108.048 226.832C99.8577 228.774 92.9484 230.225 92.7508 230.005C92.4872 229.712 97.4101 215.607 103.533 198.565C110.884 178.033 115.281 167.316 116.349 166.884C117.272 166.583 124.408 164.796 132.173 162.972C141.351 160.803 146.197 160.151 146.153 160.985C146.007 163.766 125.408 221.536 124.318 222.386C123.667 222.84 116.311 224.825 108.048 226.832ZM127.017 115.008C113.443 99.9331 102.454 87.4338 102.673 87.2362C102.893 87.0385 118.819 82.5042 138.061 77.2372L173.083 67.5676L186.59 82.5696C194.036 90.8389 199.952 97.7033 199.879 97.7692C199.732 97.901 191.886 99.9302 182.496 102.157C173.032 104.451 165.113 106.546 164.893 106.743C164.601 107.007 161.748 114.876 158.603 124.334C155.391 133.718 152.539 141.587 152.239 141.99C151.946 142.253 140.591 130.083 127.017 115.008ZM125.247 154.102L107.183 158.176L105.062 164.061C103.848 167.275 101.141 175.012 98.859 181.307L94.8504 192.602L81.2767 177.527L67.703 162.452L80.9804 128.633C88.2298 110.047 94.404 94.6819 94.6236 94.4843C94.8431 94.2866 106.125 106.522 119.699 121.597C133.273 136.672 144.189 149.238 143.896 149.501C143.603 149.765 135.267 151.838 125.247 154.102Z" fill="#1434CB" fill-opacity="0.6"/>
</svg>