<svg width="300" height="285" viewBox="0 0 300 285" fill="none" xmlns="http://www.w3.org/2000/svg">
<path d="M22.1 3.5L19 7.1V75.8V144.5L15.8 146C10.6 148.6 9 153 9 164.7C9 173.4 8.8 175 7.4 175C6.6 175 4.5 176.3 2.9 177.9L0 180.8V209.8V238.8L2.5 241.9C4.4 244.1 6.3 245.1 9.5 245.6L14 246.2V260.1V274H8.7C1.7 274 -0.2 275.5 0.2 280.5L0.5 284.5H150H299.5L299.8 280.7C300.2 275.6 298.2 274.1 290.8 274H285V260V246H287.6C291.1 246 296.7 243.2 298.5 240.6C299.7 238.9 300 233.4 300 209.9V181.2L297.1 178.1C295.5 176.4 293.5 175 292.7 175C291.5 175 291.1 172.9 290.9 163.5L290.5 152.1L287 148.5C285.2 146.6 283 145 282.3 145C281.2 145 281 132.2 281 76.7V8.3L278 4.2L275 -4.23938e-06H260.2C245.7 -4.23938e-06 245.3 0.0999958 243 2.5C240.5 5.1 239.2 11.1 239.1 19.7L239 25H210H181V14.4C181 8.6 180.5 3 180 1.9C179 0.0999958 177.6 -4.23938e-06 150 -4.23938e-06C122.4 -4.23938e-06 121 0.0999958 120 1.9C119.5 3 119 8.6 119 14.4V25H89.5H60V15.6C60 6.9 59.8 5.9 57.4 3.1L54.8 -4.23938e-06H40H25.2L22.1 3.5ZM49.3 62.4C49.6 90.6 49.6 120.5 49.3 128.9L48.7 144H39.8H31V77.5V11H39.8H48.7L49.3 62.4ZM169 42.5V74H150H131V42.5V11H150H169V42.5ZM269 77.5V144H260.1C252.9 144 251.1 143.7 250.6 142.4C249.8 140.3 249.8 68.8 250.7 36.7L251.3 11H260.2H269V77.5ZM119 42V49H89.5H60V42V35H89.5H119V42ZM239 42V49H210H181V42V35H210H239V42ZM119 71.9C119 82.1 119.2 83 121.2 84.4C122.6 85.4 125.6 86 128.7 86H134V90.2C134.1 98.8 135.5 103 139.7 106.9C143.4 110.3 143.8 111.2 144.4 117.4C145.1 123.2 145.5 124.3 147.6 125.2C149.4 126 150.7 126 152.5 125.2C154.8 124.1 155 123.5 155 117.1C155 110.4 155.1 110.1 158.3 108.2C163.3 105 165 101.3 165 93.1V86H171C179.9 86 181 84.5 181 71.3V61H210H239V102.5V144H149.5H60V102.5V61H89.5H119V71.9ZM154 90.9C154 99.4 148.8 101.9 146.1 94.7C145.5 93.1 145 90.5 145 88.9C145 86.1 145.2 86 149.5 86H154V90.9ZM278.8 165.7L279.1 175H150H21V166.1C21 159.9 21.4 157 22.3 156.7C22.9 156.4 80.9 156.2 151 156.3L278.5 156.5L278.8 165.7ZM246.5 185.9L288.5 186.5V210V233.5H150H11.5V210V186.5L52.5 186C112.1 185.2 198.3 185.2 246.5 185.9ZM44 260V274H34.5H25V260V246H34.5H44V260ZM244 260V274H150H56V260V246H150H244V260ZM274 260V274H265H256V260V246H265H274V260Z" fill="#EC1515"/>
<path d="M42.9998 195.7C36.2998 198.2 31.7998 210.1 35.2998 216.3C41.1998 227 52.8998 229.1 60.9998 221C65.9998 216 67.0998 210.3 64.1998 203.8C61.5998 197.8 56.9998 195 49.8998 195.1C46.8998 195.1 43.7998 195.4 42.9998 195.7ZM52.3998 207.6C53.2998 208.4 53.9998 209.5 53.9998 210C53.9998 211.3 50.9998 214 49.5998 214C46.1998 214 44.7998 208.8 47.7998 207.1C50.0998 205.7 50.5998 205.7 52.3998 207.6Z" fill="#EC1515"/>
<path d="M78.9004 199C72.7004 205.5 72.4004 214 78.1004 220.5C85.7004 229.1 100.2 226.7 104.5 216.3C106.5 211.5 106.4 207.7 104 202.9C101 197.2 96.9004 195 89.1004 195C82.9004 195 82.6004 195.1 78.9004 199ZM93.8004 210.3C94.2004 212.2 90.8004 214.2 88.6004 213.4C86.1004 212.4 85.5004 208.8 87.6004 207.3C89.1004 206.2 89.7004 206.2 91.4004 207.4C92.6004 208.1 93.6004 209.4 93.8004 210.3Z" fill="#EC1515"/>
<path d="M123 195.7C122.2 196 120.1 197.8 118.4 199.6C110.5 208 114.8 222.6 125.8 225.1C131.8 226.4 137.7 224.8 141.4 220.9C143.9 218.2 144.5 216.7 144.8 211.5C145.5 200.5 140.6 194.9 130.3 195.1C127.1 195.1 123.8 195.4 123 195.7ZM132.5 208C134.3 210 134.3 210.1 132.2 212.3C130.4 214 129.6 214.2 128.2 213.4C125.9 211.9 125.6 209.6 127.5 207.6C129.6 205.5 130.3 205.6 132.5 208Z" fill="#EC1515"/>
<path d="M162.4 195.9C161.3 196.4 159.1 198.3 157.6 200.1C155 203.2 154.8 203.9 155.2 210.7C155.5 217.3 155.8 218.3 158.6 221.1C164.5 227 175.9 227 181.2 221.1C186.9 214.7 187 205.4 181.3 199.3C178.2 195.8 177.6 195.5 171.2 195.3C167.5 195.1 163.6 195.4 162.4 195.9ZM173.4 208.7C174.1 210.4 172.4 214 170.9 214C168.9 214 166 211.9 166 210.5C166 206.7 172.1 205.2 173.4 208.7Z" fill="#EC1515"/>
<path d="M199.9 197.7C186.5 209 197.8 229.6 214.8 225C223.5 222.7 228 212.4 224.2 203.8C221.5 197.6 217 195 209.2 195C204.1 195 202.7 195.4 199.9 197.7ZM212.4 207.6C213.3 208.4 214 209.5 214 210C214 211.3 211 214 209.6 214C206.2 214 204.8 208.8 207.8 207.1C210.1 205.7 210.6 205.7 212.4 207.6Z" fill="#EC1515"/>
<path d="M240.2 197.5C230.1 206 233.1 221.8 245.3 225.1C255.8 227.9 266 220.4 266 209.8C266 205.6 262.4 199.2 258.7 197C253.8 193.9 244.1 194.2 240.2 197.5ZM252.2 207.7C254.7 209.9 254.5 211.8 251.5 213.2C249.6 214 248.7 214 247.5 213C245.5 211.3 245.6 208.3 247.8 207.1C250.1 205.7 250.1 205.7 252.2 207.7Z" fill="#EC1515"/>
</svg>
