<svg width="282" height="300" viewBox="0 0 282 300" fill="none" xmlns="http://www.w3.org/2000/svg">
<path d="M195.4 1.40007C193.7 2.70007 193.5 4.40007 193.2 19.1001C192.8 37.4001 193.6 42.0001 197.5 43.8001C201.8 45.8001 206.4 45.3001 209.4 42.5001L212 40.1001V22.3001C212 0.500068 211.8 6.98217e-05 203.1 6.98217e-05C199.7 6.98217e-05 196.6 0.60007 195.4 1.40007Z" fill="#EC1515"/>
<path d="M143.9 18.3C141.5 20.1 140 23.5 140 26.9C140 30.4 142.8 33.9 155 45.7C162.4 52.9 162.6 53 167.8 53C174.8 53 177 50.9 177 44V38.9L166.1 28L155.3 17H150.4C147.7 17 144.8 17.6 143.9 18.3Z" fill="#EC1515"/>
<path d="M240.1 27.4C234.4 33.1 229.4 38.4 228.9 39.1C227.3 41.7 227.9 47.6 230.1 50.4C231.9 52.6 232.9 53 237.7 53H243.3L254.1 42C264.8 31.3 265 31 265 26.5C265 20 261.9 17 255.2 17C250.4 17 250.3 17 240.1 27.4Z" fill="#EC1515"/>
<path d="M188.2 54.5C184 58 182.9 60.4 179.6 72C178.1 77.2 176.5 82.4 176 83.5C175.5 84.6 174.1 88 172.9 91C168.3 102.2 162.6 110.3 151.5 121.5C145.5 127.6 136.8 135.5 132.2 138.9C127.7 142.3 118.8 150.1 112.4 156.3C91.5 176.4 95.6 175.2 44.9 175.9C6.7 176.5 4.1 176.6 2.1 178.4C0 180.3 0 180.8 0 230V279.8L2.5 281.4C4.5 282.7 8.5 283 27.7 283.1C68.1 283.1 96.5 284.6 104.5 287.1C124.6 293.1 133.3 295.3 148.8 298C158.9 299.8 164.7 300 203.6 300C244.9 300 247.3 299.9 250.9 298C255.1 295.9 261.5 289.1 263.2 285C265 280.7 265.8 273.6 265 269.2C264.3 265.1 264.3 265 268.4 262.6C278.5 256.7 282 250.5 282 238.6C282 230.3 281 226.2 278.3 222.9C277.2 221.5 277.3 220.6 279.5 216.9C281.6 213.1 282 211.3 282 203.2C282 194.3 281.4 191.9 278.2 187.9C277.2 186.6 277.4 185.6 279.5 181.9C281.6 178.1 282 176.2 282 168.8C282 164 281.5 158.8 280.8 157.3C278.6 152.2 273.8 146.9 268.6 144L263.5 141H240.8C228.2 141 218 140.8 218 140.6C218 140.4 219.6 136.8 221.5 132.7C228.7 117.2 231 107.8 231 93.1C231 78.1 227.9 69.2 220.1 61.4C213.9 55.3 208 52.7 199 52.2C191.9 51.8 191.2 51.9 188.2 54.5ZM206.1 76.7C210.3 81.3 211.1 84.8 210.7 94.8C210.5 100.1 209.6 106.9 208.8 109.8C207.3 114.7 199.7 130.8 195 139C193.6 141.5 193 144.3 193 149.1C193 160 191.8 159.6 227.5 160.5C244 160.9 258.2 161.6 259 162C259.9 162.5 261.2 164 262 165.5C263.2 167.8 263.2 168.5 261.9 170.8C259.6 175.1 256.5 176 244.7 176C233.9 176 233.8 176 230.8 179C228.1 181.8 227.8 182.6 228.3 186.6C229.1 193.8 230.6 194.6 245.3 195.5C257.8 196.2 258 196.3 260.5 199.2C263.6 202.9 263.6 204.2 260.6 207.7C258.3 210.4 257.9 210.5 245.5 211C233 211.5 232.8 211.6 230.3 214.4C228.2 216.9 227.9 218.1 228.3 221.7C229.1 228.9 230.3 229.6 244.2 230.4C257.3 231.2 259.1 231.7 261.6 235.6C262.9 237.6 263.1 238.6 262.2 240.5C260.2 244.8 257.3 245.8 244.2 246.6C232.7 247.2 231.8 247.4 230 249.8C226.8 253.8 227.3 259.6 231.1 263.1C232.8 264.7 235.1 266 236.2 266C238.6 266 242.1 267.8 243.7 269.9C245.7 272.4 245.2 275.9 242.5 278.5L240.1 281H207.3C166.4 281 148.2 278.9 124 271.5C115.8 269 100.1 265.3 94.9 264.6L90.3 263.9L89.7 250.3C89.3 242.8 89 227.4 89 216V195.3L94.8 193.5C104.8 190.4 110.1 187.1 119.9 177.5C133.4 164.5 138.9 159.6 144 155.9C170 137.2 189 112.2 196.4 86.9C200.2 73.8 200.7 72.8 202.8 73.9C203.7 74.4 205.3 75.6 206.1 76.7ZM70 229.5V264H44.5H19V229.5V195H44.5H70V229.5Z" fill="#EC1515"/>
<path d="M36.9 231.9C28.8 240 38.5999 251.8 49.2999 246.9C53.5999 245 55.5999 236.6 52.6999 232.9C48.9999 228.1 41.2 227.6 36.9 231.9Z" fill="#EC1515"/>
</svg>
