<svg width="300" height="244" viewBox="0 0 300 244" fill="none" xmlns="http://www.w3.org/2000/svg">
<path d="M86.575 0.380532C76.675 2.98053 65.075 12.7805 60.575 22.1805C57.475 28.7805 55.775 37.2805 56.275 43.8805L56.575 48.6805H29.575C9.775 48.6805 2.175 48.9805 1.275 49.8805C-0.425 51.5805 -0.425 211.781 1.275 213.481C1.975 214.181 4.975 214.681 8.075 214.681H13.675L15.575 219.881C20.275 233.381 30.575 241.581 44.675 243.181C59.875 244.981 73.775 237.481 80.175 224.181C81.775 220.881 83.075 217.381 83.075 216.381C83.075 214.781 85.275 214.681 115.375 214.681C133.175 214.681 163.375 214.981 182.375 215.381L217.075 215.981L218.075 219.781C220.575 229.081 230.975 239.381 240.975 242.281C248.675 244.581 259.875 243.781 267.075 240.481C274.375 237.081 281.075 229.781 284.175 221.881L286.575 215.681H291.775C300.475 215.681 300.175 217.081 299.875 181.881L299.575 151.181L294.875 150.881C292.175 150.681 290.075 150.481 290.075 150.281C290.075 150.081 286.875 140.781 283.075 129.581C279.175 118.381 275.075 106.481 273.975 103.181C270.075 91.6805 273.075 92.6805 241.575 92.6805H214.075V71.6805C214.075 51.9805 213.975 50.6805 212.175 49.6805C210.875 49.0805 197.775 48.6805 176.275 48.6805H142.375L141.875 39.1805C141.475 31.0805 140.875 28.7805 138.075 22.9805C133.875 14.4805 126.175 6.58053 118.475 3.08053C113.175 0.580532 111.375 0.280532 100.575 0.0805321C93.975 -0.119468 87.675 0.0805321 86.575 0.380532ZM111.575 14.0805C119.675 17.9805 125.675 24.6805 128.475 33.0805C131.475 42.1805 130.075 47.9805 121.175 65.4805C117.175 73.1805 101.775 98.1805 99.475 100.581C98.275 101.781 82.675 76.6805 75.275 61.6805C68.875 48.8805 68.575 47.8805 68.575 41.1805C68.675 32.8805 71.075 27.1805 77.275 20.7805C83.375 14.3805 89.875 11.6805 99.075 11.6805C104.875 11.6805 107.675 12.1805 111.575 14.0805ZM65.275 70.6805C71.375 82.0805 81.275 98.1805 89.275 109.381C94.875 117.281 95.375 117.681 98.975 117.681C102.475 117.681 102.975 117.281 108.175 109.881C120.475 92.6805 128.875 79.0805 134.375 67.4805L137.575 60.6805H170.375H203.075V132.181V203.681L143.475 203.481L83.775 203.181L82.575 198.981C79.775 189.681 74.175 182.781 65.575 178.081C61.275 175.681 59.075 175.281 50.375 174.881C41.175 174.481 39.775 174.681 34.775 176.981C25.075 181.381 18.375 189.081 15.075 199.381C14.375 201.781 13.175 203.681 12.375 203.681C11.275 203.681 11.075 191.281 11.075 132.181V60.6805L35.675 60.8805L60.175 61.1805L65.275 70.6805ZM263.975 112.881C265.775 117.981 267.575 122.881 267.975 123.681C268.475 124.581 269.175 126.781 269.575 128.681C269.975 130.581 270.675 132.781 271.175 133.681C272.975 137.081 276.175 148.081 275.675 149.281C275.275 150.381 269.375 150.681 244.575 150.681H214.075V127.181V103.681H237.475H260.775L263.975 112.881ZM290.075 182.781C290.075 201.981 289.975 203.781 288.375 203.481C287.375 203.281 285.975 201.081 284.875 197.881C282.475 190.881 280.675 188.081 275.375 183.081C269.175 177.281 261.875 174.681 251.775 174.681C247.275 174.781 241.875 175.381 239.675 176.181C229.775 179.681 220.375 189.681 217.875 199.381C217.275 201.881 216.275 203.681 215.475 203.681C214.375 203.681 214.075 199.881 214.075 182.681V161.681H252.075H290.075V182.781ZM57.275 188.081C61.575 189.881 67.375 195.281 69.475 199.381C70.475 201.481 71.075 204.981 71.075 209.381C70.975 215.081 70.575 216.781 68.275 220.081C60.275 231.681 46.775 234.581 35.975 227.181C29.875 222.881 27.075 217.381 27.075 209.381C27.075 205.781 27.475 201.681 27.975 200.381C29.575 196.381 35.275 190.581 39.575 188.581C44.475 186.381 52.675 186.181 57.275 188.081ZM260.475 188.181C265.775 190.381 271.575 196.881 273.075 202.181C275.875 212.181 272.375 221.781 263.475 227.981C259.875 230.481 258.375 230.881 252.475 230.881C241.775 230.981 235.875 227.181 230.675 216.981C227.275 210.281 229.575 199.381 235.675 193.281C241.875 187.081 252.575 184.881 260.475 188.181Z" fill="#EC1515"/>
<path d="M93.1753 18.7807C88.2753 19.6807 83.2753 23.1807 79.8753 27.8807C77.9753 30.5807 77.4753 32.6807 77.2753 39.6807C76.9753 47.8807 77.0753 48.3807 80.2753 53.0807C85.1753 60.3807 90.5753 62.8807 100.075 62.4807C106.375 62.1807 108.275 61.6807 111.775 59.2807C118.375 54.8807 121.075 49.3807 121.075 40.4807C121.075 34.0807 120.675 32.4807 118.175 28.4807C114.375 22.4807 110.275 19.7807 103.375 18.6807C100.175 18.0807 97.5753 17.7807 97.5753 17.7807C97.5753 17.8807 95.5753 18.2807 93.1753 18.7807ZM105.975 33.7807C110.275 38.0807 110.275 43.2807 105.975 47.5807C103.675 49.9807 102.075 50.6807 99.0753 50.6807C96.0753 50.6807 94.4753 49.9807 92.1753 47.5807C87.9753 43.3807 87.8753 38.1807 91.9753 33.7807C96.0753 29.3807 101.675 29.3807 105.975 33.7807Z" fill="#EC1515"/>
<path d="M92.7752 122.381C92.3752 122.681 92.0752 125.881 92.0752 129.381V135.681H67.8752C54.4752 135.681 42.5752 135.981 41.3752 136.281C39.1752 136.881 39.0752 137.281 39.0752 148.681C39.0752 158.481 39.3752 160.581 40.6752 161.081C43.0752 161.981 162.375 161.781 163.875 160.781C164.775 160.281 165.075 158.381 164.875 155.581L164.575 151.181L107.375 150.881C57.3752 150.681 50.0752 150.481 50.0752 149.181C50.0752 147.881 53.4752 147.681 73.8752 147.681C90.9752 147.681 98.2752 147.281 100.075 146.381C102.475 145.181 102.575 144.681 102.875 134.781C103.075 128.081 102.775 123.981 101.975 123.081C100.775 121.681 93.9752 121.081 92.7752 122.381Z" fill="#EC1515"/>
<path d="M170.275 150.88C169.575 151.58 169.075 153.68 169.075 155.68C169.075 158.68 169.575 159.58 171.575 160.48C175.175 162.18 180.175 161.98 182.875 160.08C185.775 158.08 185.975 152.18 183.175 150.68C180.475 149.28 171.775 149.38 170.275 150.88Z" fill="#EC1515"/>
<path d="M132.875 189.38C130.975 189.88 129.675 193.38 130.275 196.28C130.975 200.18 134.575 200.68 156.875 200.48C179.875 200.18 180.075 200.08 180.075 194.68C180.075 189.18 179.875 189.18 156.375 188.98C144.375 188.98 133.775 189.08 132.875 189.38Z" fill="#EC1515"/>
<path d="M184.675 190.281C182.275 192.581 182.675 197.281 185.275 199.081C187.775 200.881 192.675 201.181 196.475 199.681C198.775 198.881 199.075 198.181 199.075 194.281C199.075 190.581 198.775 189.781 196.875 189.281C192.575 188.181 186.275 188.681 184.675 190.281Z" fill="#EC1515"/>
<path d="M42.6752 194.681C41.1752 195.181 38.5752 196.981 36.9752 198.781C34.3752 201.681 34.0752 202.781 34.0752 208.681C34.0752 215.481 35.2752 218.281 39.5752 221.881C42.2752 224.181 48.8752 225.081 53.6752 223.781C61.5752 221.681 65.4752 214.081 63.6752 204.381C62.0752 196.081 52.6752 191.681 42.6752 194.681ZM51.4752 207.981C53.0752 210.481 49.8752 213.581 47.6752 211.681C45.7752 210.181 45.5752 207.081 47.3752 206.381C49.1752 205.581 50.2752 206.081 51.4752 207.981Z" fill="#EC1515"/>
<path d="M245.375 194.68C243.675 195.28 241.075 197.08 239.575 198.88C237.075 201.88 236.875 202.58 237.275 209.78C237.575 217.18 237.775 217.68 240.975 220.58C247.175 226.08 258.375 225.58 263.475 219.68C268.575 213.58 268.275 203.38 262.875 197.98C259.975 195.08 258.575 194.48 253.975 194.18C250.975 193.98 247.175 194.18 245.375 194.68ZM254.475 208.08C255.375 209.38 255.175 210.08 253.675 211.18C251.375 212.88 249.075 211.58 249.075 208.68C249.075 205.48 252.675 205.08 254.475 208.08Z" fill="#EC1515"/>
</svg>
