<svg width="211" height="224" viewBox="0 0 211 224" fill="none" xmlns="http://www.w3.org/2000/svg">
<path d="M168.23 9.4L155.43 18.7L154.93 23.6L154.43 28.5L101.93 43.7C73.0301 52 48.8301 59.3 48.0301 59.7C45.6301 61.2 44.3301 63.8 45.5301 65C46.7301 66.2 64.2301 61.7 113.43 47.5C133.23 41.8 150.63 36.8 152.23 36.5L154.93 35.8V44.7V53.7L96.7301 70.5C15.6301 93.9 14.9301 94 11.2301 92.5C5.43012 90 4.73012 82.3 10.1301 78.6C11.3301 77.7 18.0301 75.2 25.0301 73C37.7301 69 40.6301 67.3 39.5301 64.5C38.7301 62.3 36.7301 62.6 21.5301 66.9C7.43012 70.8 4.23012 72.7 1.33012 78.2C-0.669883 82.1 -0.369883 88.9 1.93012 92.8C4.23012 96.5 9.43012 100 12.7301 100H14.9301V154.3C14.9301 184.2 15.2301 212.1 15.5301 216.3C16.1301 223.4 16.4301 224 18.4301 224C20.4301 224 20.7301 223.4 21.3301 216.3C21.6301 212.1 21.9301 184 21.9301 153.9V99.1L25.1301 98.2C26.9301 97.7 40.7301 93.8 55.7301 89.5C70.7301 85.3 83.2301 82 83.4301 82.2C83.8301 82.6 81.9301 99.3 73.9301 166C70.6301 193.2 67.7301 216.1 67.4301 216.7C67.1301 217.6 64.3301 218 58.4301 218H49.9301V221V224L110.73 223.9C144.13 223.8 172.73 223.5 174.43 223.1C178.13 222.3 179.03 219.3 175.73 218.6C174.43 218.3 170.33 217.9 166.53 217.6C162.73 217.3 159.43 216.9 159.23 216.7C158.83 216.2 156.83 200.8 147.43 123.2C143.83 93.9 140.93 68.8 140.93 67.5C140.93 65.4 141.83 64.8 147.53 63C151.13 61.9 154.33 61 154.53 61C154.73 61 154.93 63.1 154.93 65.7C154.93 68.4 155.33 71 155.73 71.6C156.13 72.2 161.73 76.6 168.23 81.5L179.93 90.2V101.6V113H175.93H171.93V132V151H182.93H193.93V132V113H189.93H185.93V101.6V90.2L197.83 81.4C204.43 76.5 210.03 71.6 210.33 70.5C212.03 64.5 210.23 58 207.03 58C204.83 58 203.93 59.9 203.93 64.6C203.93 67.8 203.23 68.6 193.83 75.5C188.33 79.6 183.43 83 182.93 83C182.23 83 176.33 78.9 164.33 70.2L162.03 68.5V45.5V22.5L169.73 16.8C173.93 13.7 178.83 10.4 180.53 9.4L183.63 7.6L193.73 15.1L203.83 22.5L203.93 33.1C203.93 38.9 204.23 45.8 204.53 48.4C205.13 52.4 205.53 53 207.53 53C209.43 53 209.93 52.3 210.43 48.7C210.83 46.3 210.93 38.9 210.73 32.3C210.43 21.9 210.13 19.9 208.43 18C205.13 14.3 184.73 -3.33786e-06 182.83 -3.33786e-06C181.93 -3.33786e-06 175.33 4.2 168.23 9.4ZM136.43 88.4C137.23 96 137.83 102.5 137.53 102.7C137.23 103 132.73 99 127.43 93.9L117.83 84.6L125.53 77C134.73 68.1 133.93 67.3 136.43 88.4ZM120.93 71.8C120.93 72.2 119.23 74.3 117.13 76.3L113.33 80L110.53 77.2L107.83 74.3L113.13 72.7C119.33 70.9 120.93 70.7 120.93 71.8ZM104.43 81L108.43 85.1L99.1301 94.2C94.0301 99.2 89.6301 103 89.2301 102.7C88.9301 102.3 89.2301 96.8 89.9301 90.5L91.1301 79L94.3301 78.1C99.5301 76.6 100.33 76.8 104.43 81ZM123.93 100.5L134.43 111H113.53C93.8301 111 92.7301 110.9 94.0301 109.2C95.9301 106.6 112.33 90 112.93 90C113.23 90 118.13 94.7 123.93 100.5ZM126.33 123.6C122.53 126.7 118.03 130.4 116.23 131.7L113.03 134.2L104.03 126.8L95.0301 119.5L103.23 118.9C107.73 118.6 116.33 118.3 122.33 118.2L133.23 118L126.33 123.6ZM187.93 132V145H182.93H177.93V132V119H182.93H187.93V132ZM97.1301 130.2L107.23 138.4L102.83 142.2C90.8301 152.8 82.4301 159 82.1301 157.6C81.9301 156.8 82.7301 148.8 83.8301 139.8C85.0301 130.8 85.9301 123.1 85.9301 122.7C85.9301 121.3 87.2301 122.2 97.1301 130.2ZM140.23 123.7C140.53 124.2 141.43 130.6 142.33 138C143.23 145.4 144.23 153.3 144.43 155.4L145.03 159.3L141.23 156.5C130.33 148.4 119.93 139.5 120.23 138.6C120.63 137.3 137.93 123 139.03 123C139.53 123 140.03 123.3 140.23 123.7ZM126.63 154L139.23 164H113.43H87.7301L93.6301 159.2C104.43 150.2 112.43 144.1 113.33 144C113.73 144 119.83 148.5 126.63 154ZM130.43 171.9L136.43 172.5L124.73 180.4L113.03 188.2L101.53 180.4L90.0301 172.5L95.2301 171.9C102.33 171.1 123.13 171.1 130.43 171.9ZM92.4301 182.5C98.6301 186.7 104.23 190.7 104.83 191.4C105.83 192.6 104.33 194 96.7301 199.3C82.1301 209.4 75.9301 213.3 75.4301 212.8C75.0301 212.4 78.4301 181.5 79.4301 177.2C79.7301 176 80.2301 175 80.5301 175C80.8301 175 86.2301 178.4 92.4301 182.5ZM146.93 175.7C146.93 176.2 148.03 184.8 149.33 195C150.63 205.2 151.53 213.6 151.43 213.7C151.23 214 129.23 199.1 124.13 195.2C120.93 192.8 120.93 192.6 122.63 190.9C125.13 188.5 145.03 175 146.13 175C146.53 175 146.93 175.3 146.93 175.7ZM128.93 207L143.33 217H113.43C97.0301 217 83.9301 216.7 84.3301 216.3C86.0301 214.5 112.53 197.1 113.43 197.1C114.03 197.1 120.93 201.6 128.93 207Z" fill="#EC1515"/>
<path d="M174.03 37.5C166.83 45.8 172.43 57 183.73 57C192.03 57 197.13 48.1 193.33 40.3C191.03 35.7 187.93 34 181.83 34C177.73 34 176.73 34.4 174.03 37.5ZM186.73 42.3C188.83 43.9 188.13 47.8 185.43 49.6C183.13 51.1 182.73 51.1 180.43 49.6C177.33 47.6 177.13 43.7 180.03 41.6C182.13 40.2 184.23 40.4 186.73 42.3Z" fill="#EC1515"/>
<path d="M12.3303 83.5C11.3303 86 12.7303 88 15.2303 88C18.1303 88 20.4303 85.6 19.5303 83.5C18.8303 81.5 13.0303 81.5 12.3303 83.5Z" fill="#EC1515"/>
</svg>
