<svg width="211" height="211" viewBox="0 0 211 211" fill="none" xmlns="http://www.w3.org/2000/svg">
<path d="M135.234 0.426169C131.234 2.02617 135.634 7.02617 148.234 15.2262C152.434 18.0262 153.934 19.6262 153.934 21.3262C153.934 26.3262 152.134 28.2262 141.334 34.6262C128.434 42.3262 125.234 45.1262 126.934 47.2262C127.934 48.4262 130.734 48.7262 138.934 48.7262H149.734L149.134 53.4262C148.934 56.1262 148.134 58.8262 147.534 59.6262C146.934 60.4262 140.434 65.0262 133.134 69.9262C122.034 77.3262 119.834 79.2262 120.134 81.0262C120.434 83.1262 121.034 83.2262 132.434 83.7262L144.434 84.2262L144.134 88.2262C143.934 90.4262 143.234 92.8262 142.634 93.6262C141.934 94.4262 135.034 99.2262 127.234 104.426C113.034 113.626 110.334 116.526 114.534 118.126C115.434 118.426 129.834 118.726 146.534 118.726C170.134 118.726 176.934 119.026 176.934 119.926C176.934 120.626 179.634 139.326 182.934 161.526C186.234 183.726 188.934 202.226 188.934 202.726C188.934 203.326 186.934 203.726 184.434 203.726C179.934 203.726 179.934 203.726 179.934 207.226V210.826L187.734 210.526L195.434 210.226L195.734 205.426C195.934 202.826 193.634 183.926 190.534 163.426C183.534 115.326 184.034 119.726 185.834 119.626C186.734 119.526 192.634 119.226 198.934 118.826C208.534 118.326 210.434 117.926 210.734 116.526C211.134 114.226 208.834 112.326 194.634 103.426C187.734 99.2262 181.734 95.1262 181.134 94.4262C180.634 93.8262 179.834 91.3262 179.434 89.1262C178.834 85.4262 179.034 84.9262 181.134 84.3262C182.434 84.0262 187.334 83.7262 192.134 83.7262C196.834 83.7262 201.434 83.4262 202.334 83.1262C205.934 81.7262 203.934 78.8262 195.734 73.5262C174.334 59.7262 175.634 60.8262 174.334 54.4262L173.234 48.7262H183.934C195.034 48.7262 197.934 47.7262 196.634 44.4262C196.334 43.6262 191.234 40.2262 185.234 36.7262C171.434 28.7262 169.934 27.3262 169.934 22.7262C169.934 19.2262 170.334 18.7262 179.534 12.3262C187.934 6.32617 189.034 5.22617 188.734 2.92617L188.434 0.226169L162.434 0.0261687C148.134 -0.0738313 135.834 0.126169 135.234 0.426169ZM169.934 9.72617C164.534 13.3262 160.234 13.5262 154.734 10.4262L150.634 8.22617L153.534 7.62617C155.134 7.22617 160.534 6.92617 165.434 6.82617L174.434 6.72617L169.934 9.72617ZM162.934 25.3262C162.934 26.6262 162.534 27.7262 161.934 27.7262C161.434 27.7262 160.934 26.3262 160.934 24.6262C160.934 22.9262 161.334 21.8262 161.934 22.2262C162.534 22.5262 162.934 23.9262 162.934 25.3262ZM163.734 35.9262C165.634 37.8262 165.134 41.5262 162.934 42.2262C160.134 43.1262 157.734 41.0262 158.534 38.3262C159.634 34.9262 161.734 33.9262 163.734 35.9262ZM150.734 41.2262C150.534 41.4262 149.234 41.8262 147.634 42.2262C144.134 43.1262 144.134 41.6262 147.734 39.5262C150.134 38.0262 150.434 38.0262 150.734 39.3262C150.934 40.2262 150.934 41.0262 150.734 41.2262ZM177.034 42.1262C174.734 43.1262 171.934 41.4262 171.934 39.1262C171.934 38.0262 172.634 38.1262 175.534 39.4262C178.834 41.0262 178.934 41.2262 177.034 42.1262ZM166.434 49.9262C166.534 50.1262 166.934 52.3262 167.134 54.9262L167.734 59.7262H161.634H155.634L156.334 55.0262C156.634 52.4262 157.534 49.9262 158.234 49.5262C159.234 48.7262 165.734 49.1262 166.434 49.9262ZM168.834 67.3262C169.034 67.5262 169.434 69.9262 169.734 72.7262L170.234 77.7262H161.534H152.834L153.434 73.9262C154.534 67.7262 154.934 66.8262 157.234 66.4262C159.434 65.9262 168.134 66.6262 168.834 67.3262ZM184.434 77.0262C180.534 78.3262 176.934 76.5262 176.934 73.2262V70.6262L182.034 73.4262C187.134 76.1262 187.134 76.1262 184.434 77.0262ZM145.934 74.7262C145.934 77.5262 145.734 77.7262 142.134 77.7262C136.734 77.7262 136.234 76.6262 140.634 74.0262C145.534 71.0262 145.934 71.1262 145.934 74.7262ZM171.434 84.9262C171.534 85.1262 172.034 87.3262 172.334 89.9262L173.034 94.7262H161.634H150.234L150.634 91.9262C151.634 85.2262 151.834 84.8262 155.234 84.4262C158.334 83.9262 170.934 84.4262 171.434 84.9262ZM173.834 103.326C174.334 103.826 174.934 106.226 175.234 108.626L175.734 112.926L162.434 112.526C155.034 112.326 148.834 111.926 148.534 111.626C148.134 111.326 148.234 108.926 148.534 106.226L149.234 101.526L161.134 101.926C167.634 102.126 173.334 102.726 173.834 103.326ZM188.234 108.226L193.434 111.726H188.234C182.934 111.726 181.934 110.926 181.934 106.626C181.934 104.126 182.134 104.126 188.234 108.226ZM140.734 108.926C140.434 111.726 140.034 112.326 137.534 112.526C136.034 112.726 133.534 112.626 132.134 112.226C129.634 111.626 129.734 111.526 134.534 108.626C137.234 107.026 139.834 105.726 140.234 105.726C140.734 105.726 140.934 107.226 140.734 108.926Z" fill="#EC1515"/>
<path d="M0.533884 43.6261C-0.166116 44.8261 2.73388 53.2261 14.9339 84.9261L25.2339 111.626L31.8339 111.926L38.4339 112.226L38.7339 126.426C38.9339 137.526 38.7339 140.726 37.7339 140.726C35.3339 140.726 34.3339 139.226 32.4339 132.926L30.6339 126.726H17.4339H4.23388L2.33388 132.426C0.733884 137.526 0.533884 142.726 0.133884 173.226C-0.166116 205.626 -0.0661157 208.226 1.53388 209.426C4.03388 211.226 161.934 211.326 163.734 209.526C164.634 208.626 164.934 198.026 164.934 168.026C164.934 132.326 164.734 127.626 163.334 127.026C161.034 126.126 158.434 127.626 145.834 137.426L134.234 146.526L133.534 140.426C133.234 137.126 132.934 132.926 132.934 131.026C132.934 124.226 129.634 125.426 113.434 138.126L102.434 146.626L102.134 138.926C102.034 134.726 101.734 130.226 101.434 128.926C100.334 124.426 96.5339 126.326 78.7339 140.426C75.0339 143.326 71.7339 145.726 71.4339 145.726C71.1339 145.726 70.4339 144.626 69.9339 143.326C69.1339 141.226 68.2339 140.826 64.2339 140.526L59.4339 140.226L59.1339 132.926L58.8339 125.726H65.9339C69.8339 125.726 72.9339 125.326 72.9339 124.726C72.9339 124.226 74.7339 123.426 76.9339 123.126C80.6339 122.526 80.9339 122.226 80.9339 119.126C80.9339 116.126 80.6339 115.826 77.7339 115.526C75.9339 115.326 74.4339 114.726 74.4339 114.226C74.4339 113.626 79.9339 112.926 87.4339 112.426C105.334 111.326 105.334 111.326 104.534 107.626C104.034 104.826 85.8339 56.5261 81.8339 46.9261L80.0339 42.7261H40.5339C18.8339 42.7261 0.833884 43.1261 0.533884 43.6261ZM20.4339 49.7261H25.6339L27.8339 54.8261C31.0339 62.7261 31.0339 62.7261 22.0339 62.7261H14.0339L12.1339 57.4261C11.0339 54.6261 9.73388 51.3261 9.33388 50.3261C8.63388 48.6261 8.93388 48.5261 11.9339 49.0261C13.7339 49.4261 17.5339 49.7261 20.4339 49.7261ZM52.7339 55.6261C53.9339 59.1261 54.7339 62.2261 54.4339 62.5261C54.1339 62.9261 50.4339 63.1261 46.3339 63.2261H38.7339L36.3339 56.7261C35.0339 53.1261 33.9339 50.1261 33.9339 50.0261C33.9339 49.4261 39.2339 48.9261 44.4339 49.1261L50.4339 49.2261L52.7339 55.6261ZM71.3339 49.5261C74.7339 50.1261 75.3339 50.7261 76.9339 54.7261C80.7339 64.6261 81.1339 63.8261 71.9339 63.5261L63.7339 63.2261L61.3339 57.3261C60.0339 54.0261 58.9339 51.0261 58.9339 50.6261C58.9339 48.9261 65.1339 48.4261 71.3339 49.5261ZM60.6339 76.2261C61.9339 79.4261 62.9339 82.5261 62.9339 83.0261C62.9339 83.4261 59.3339 83.7261 54.8339 83.5261L46.7339 83.2261L44.3339 77.3261C41.4339 70.0261 41.8339 69.6261 51.3339 69.9261L58.3339 70.2261L60.6339 76.2261ZM85.5339 76.6261C86.8339 80.1261 87.7339 83.2261 87.5339 83.5261C87.2339 83.7261 83.5339 84.0261 79.3339 84.1261L71.7339 84.2261L69.9339 79.7261C66.6339 71.3261 66.6339 70.9261 69.1339 70.4261C70.4339 70.1261 74.0339 70.0261 77.3339 70.1261L83.1339 70.2261L85.5339 76.6261ZM36.5339 77.1261C39.4339 84.4261 39.0339 84.8261 29.5339 84.5261L22.5339 84.2261L20.2339 78.2261C18.9339 75.0261 17.9339 71.9261 17.9339 71.4261C17.9339 71.0261 21.5339 70.7261 26.0339 70.9261L34.1339 71.2261L36.5339 77.1261ZM44.5339 97.6261C45.8339 101.126 46.7339 104.326 46.4339 104.626C46.1339 104.926 42.4339 105.126 38.1339 105.226H30.4339L28.2339 99.2261C27.0339 95.9261 26.0339 92.9261 26.0339 92.5261C25.9339 91.5261 29.8339 90.9261 36.3339 91.1261L42.1339 91.2261L44.5339 97.6261ZM61.4339 91.7261H66.6339L68.8339 96.8261C72.1339 104.826 72.1339 104.826 62.8339 104.526L54.7339 104.226L52.8339 99.2261C49.3339 90.0261 49.3339 90.3261 52.9339 91.1261C54.7339 91.4261 58.5339 91.7261 61.4339 91.7261ZM93.6339 97.6261C94.9339 101.126 95.7339 104.226 95.4339 104.526C95.1339 104.826 91.4339 105.126 87.3339 105.226H79.7339L77.8339 100.226C74.5339 91.7261 74.5339 91.9261 77.6339 91.4261C79.1339 91.2261 82.8339 91.0261 85.8339 91.1261L91.2339 91.2261L93.6339 97.6261ZM52.9339 126.226V140.726H48.9339H44.9339V126.226V111.726H48.9339H52.9339V126.226ZM66.9339 115.726V119.726H62.9339H58.9339V115.726V111.726H62.9339H66.9339V115.726ZM21.2339 133.326C25.4339 133.926 25.7339 134.226 26.1339 137.326L26.5339 140.726H21.4339C18.7339 140.726 14.7339 140.426 12.7339 140.126C9.43388 139.526 8.93388 139.126 8.93388 136.726C8.93388 135.226 9.23388 133.726 9.63388 133.426C10.4339 132.526 15.3339 132.526 21.2339 133.326ZM94.9339 145.926V151.726L88.7339 151.626C77.8339 151.526 77.6339 150.926 86.0339 144.026C90.8339 140.026 93.7339 138.326 94.1339 139.126C94.5339 139.726 94.9339 142.826 94.9339 145.926ZM126.934 145.926V151.726L121.234 151.626C118.034 151.526 114.334 151.226 112.934 150.826C110.634 150.226 110.834 149.826 117.934 144.026C123.034 139.826 125.634 138.226 126.134 139.026C126.534 139.726 126.934 142.826 126.934 145.926ZM157.634 150.426C157.334 150.626 153.634 150.726 149.434 150.526L141.634 150.226L149.534 143.926L157.434 137.726L157.734 143.826C157.934 147.226 157.834 150.126 157.634 150.426ZM63.9339 175.226V203.726H35.4339H6.93388V192.726V181.726H31.4339H55.9339V168.826C55.9339 158.026 55.6339 155.826 54.3339 155.326C53.4339 155.026 42.4339 154.726 29.8339 154.726H6.93388V150.726V146.726H35.4339H63.9339V175.226ZM94.9339 180.726V203.726H82.4339H69.9339V180.726V157.726H82.4339H94.9339V180.726ZM126.934 180.726V203.726H114.434H101.934V180.726V157.726H114.434H126.934V180.726ZM158.934 180.726V203.726H145.934H132.934V180.726V157.726H145.934H158.934V180.726ZM24.9339 168.226V175.726H15.9339H6.93388V168.226V160.726H15.9339H24.9339V168.226ZM48.5339 162.126C48.6339 162.126 48.9339 165.226 49.2339 168.926L49.8339 175.726H40.4339H30.9339V168.226V160.826L39.7339 161.426C44.5339 161.726 48.4339 162.026 48.5339 162.126Z" fill="#EC1515"/>
<path d="M14.1336 192.927C14.4336 195.827 14.8336 196.227 17.7336 196.527C20.8336 196.827 20.9336 196.727 20.9336 193.327C20.9336 189.827 20.8336 189.727 17.3336 189.727C13.9336 189.727 13.8336 189.827 14.1336 192.927Z" fill="#EC1515"/>
<path d="M27.9336 191.627C27.9336 195.327 29.1336 196.727 32.0336 196.727C34.6336 196.727 34.9336 196.427 34.9336 193.227C34.9336 189.927 34.7336 189.727 31.4336 189.727C28.6336 189.727 27.9336 190.127 27.9336 191.627Z" fill="#EC1515"/>
<path d="M42.9336 193.227C42.9336 196.427 43.1336 196.727 45.9336 196.727C48.7336 196.727 48.9336 196.427 48.9336 193.227C48.9336 190.027 48.7336 189.727 45.9336 189.727C43.1336 189.727 42.9336 190.027 42.9336 193.227Z" fill="#EC1515"/>
<path d="M77.9336 168.727C77.9336 171.627 78.0336 171.727 82.9336 171.727C87.8336 171.727 87.9336 171.627 87.9336 168.727C87.9336 165.827 87.8336 165.727 82.9336 165.727C78.0336 165.727 77.9336 165.827 77.9336 168.727Z" fill="#EC1515"/>
<path d="M77.9336 182.727C77.9336 185.627 78.0336 185.727 82.9336 185.727C87.8336 185.727 87.9336 185.627 87.9336 182.727C87.9336 179.827 87.8336 179.727 82.9336 179.727C78.0336 179.727 77.9336 179.827 77.9336 182.727Z" fill="#EC1515"/>
<path d="M108.934 168.727C108.934 171.627 109.034 171.727 113.934 171.727C118.834 171.727 118.934 171.627 118.934 168.727C118.934 165.827 118.834 165.727 113.934 165.727C109.034 165.727 108.934 165.827 108.934 168.727Z" fill="#EC1515"/>
<path d="M108.934 182.727C108.934 185.627 109.034 185.727 113.934 185.727C118.834 185.727 118.934 185.627 118.934 182.727C118.934 179.827 118.834 179.727 113.934 179.727C109.034 179.727 108.934 179.827 108.934 182.727Z" fill="#EC1515"/>
<path d="M140.934 168.727C140.934 171.627 141.034 171.727 145.934 171.727C150.834 171.727 150.934 171.627 150.934 168.727C150.934 165.827 150.834 165.727 145.934 165.727C141.034 165.727 140.934 165.827 140.934 168.727Z" fill="#EC1515"/>
<path d="M140.934 182.727C140.934 185.627 141.034 185.727 145.934 185.727C150.834 185.727 150.934 185.627 150.934 182.727C150.934 179.827 150.834 179.727 145.934 179.727C141.034 179.727 140.934 179.827 140.934 182.727Z" fill="#EC1515"/>
</svg>
