<svg width="286" height="301" viewBox="0 0 286 301" fill="none" xmlns="http://www.w3.org/2000/svg">
<path d="M215.55 4.4C210.05 6.8 201.95 10.4 197.55 12.5C181.45 20 175.45 22.8 170.05 25.3C153.55 32.8 149.05 35.1 149.05 35.9C149.05 36.4 151.25 41.5 153.95 47.2C159.75 59.5 162.95 66.3 172.75 87.5C187.05 118.3 188.45 121 189.75 121C190.55 121 193.95 119.7 197.35 118.1C200.75 116.5 206.05 114.1 209.15 112.7C217.05 109.1 229.95 103 249.55 93.5C267.85 84.6 272.55 81 278.45 71.6C283.55 63.6 285.05 58 285.05 46.5C285.05 34.9 283.65 29.5 278.25 21C273.35 13.1 266.65 7.1 258.35 3.3C251.35 0.0999982 250.75 -1.80304e-06 238.35 -1.80304e-06H225.55L215.55 4.4Z" fill="#EC1515"/>
<path d="M34.5495 28.9C18.3495 33.5 7.7495 43.4 1.1495 60.3C-0.650497 64.8 -0.250497 85.6 1.7495 91C5.8495 102.1 14.4495 111.9 24.4495 116.9C30.5495 120 34.2495 121.1 62.5495 128.9C70.8495 131.2 78.9495 133.4 80.5495 134C87.2495 136.1 103.45 140 105.55 140C107.45 140 108.05 139.1 109.35 134.2C110.15 131.1 112.25 123.8 113.85 118C122.65 87 125.45 77 126.65 72.5C131.75 53.2 132.25 50.8 131.25 49.8C130.65 49.2 127.15 47.9 123.35 46.8C109.45 42.8 91.3495 37.7 86.3495 36.4C83.4495 35.6 78.4495 34.3 75.3495 33.4C61.8495 29.7 49.2495 27 45.0495 27.1C42.5495 27.1 37.8495 27.9 34.5495 28.9Z" fill="#EC1515"/>
<path d="M173.95 114.7C173.05 115.7 171.85 117.8 171.25 119.5C168.95 125.7 163.35 149.7 160.55 165C158.05 178.3 158.25 178 155.85 174C145.05 156.5 132.15 138.5 124.55 130.5C120.65 126.3 116.45 125.8 113.25 129.3C109.65 133.1 110.45 136.1 117.05 144.7C128.55 159.6 144.05 182.5 144.05 184.5C144.05 184.6 140.55 185.1 136.35 185.4C103.35 188.1 75.7498 195.2 66.4498 203.3C62.7498 206.6 62.0498 207.7 62.0498 210.9C62.0498 219.9 78.1498 228 105.05 232.5C119.75 235 126.85 235.7 150.55 237C199.55 239.8 254.05 232.3 271.15 220.5C281.65 213.2 278.95 204.2 264.45 197.9C247.05 190.4 222.05 186.1 185.75 184.4C172.15 183.8 171.85 183.7 172.45 181.6C172.75 180.5 173.75 175.4 174.55 170.5C175.45 165.5 176.55 159.9 177.05 158C177.55 156.1 179.85 146.5 182.15 136.7L186.45 119L184.35 116.2C181.85 112.8 176.25 112 173.95 114.7ZM167.95 190.7C166.75 196 166.85 205.5 168.15 214.5C169.55 223.5 168.55 227 164.65 227C161.15 227 160.45 225.5 158.65 215C156.95 204.9 153.65 193.8 151.45 190.5C150.65 189.4 150.05 188.2 150.05 187.8C150.05 187.3 154.25 187 159.45 187H168.85L167.95 190.7Z" fill="#EC1515"/>
<path d="M61.549 227.5C61.149 230.6 61.149 243.1 61.549 255.4C62.149 273.8 62.549 278 63.949 279.7C70.249 287.7 94.349 294.8 127.449 298.5C148.449 300.8 193.949 300.5 214.549 298C236.249 295.3 245.149 293.6 256.149 289.9C265.749 286.7 271.449 283.7 274.949 279.8C277.049 277.7 277.049 276.7 276.849 250.6C276.649 230.1 276.249 223.6 275.349 223.2C274.649 223 274.049 223.5 274.049 224.3C274.049 227.7 263.949 233.8 252.549 237.4C232.349 243.8 206.549 246.5 168.049 246.4C136.949 246.3 118.049 244.8 98.549 240.6C82.349 237.2 67.049 229.8 64.549 224.2C63.049 220.7 62.249 221.6 61.549 227.5Z" fill="#EC1515"/>
</svg>
