<svg xmlns="http://www.w3.org/2000/svg" width="30" height="30" viewBox="0 0 30 30" fill="none">
  <path d="M10.7594 0.039608C7.39583 0.425966 4.40441 2.11892 2.39609 4.79534C0.00857063 7.97051 -0.644485 12.1783 0.661627 15.9436C2.04498 19.9406 5.39453 22.884 9.58673 23.7902C10.0993 23.8955 10.619 23.9447 11.6723 23.9728C12.9082 24.0079 13.1891 23.9939 13.9896 23.8534C15.6609 23.5724 17.1917 22.9683 18.5961 22.041L19.3404 21.5493L23.3711 25.5885C25.6042 27.8223 27.5423 29.705 27.7178 29.8103C27.9776 29.9649 28.1181 30 28.4902 30C28.9888 29.993 29.2486 29.8946 29.5717 29.5715C29.8947 29.2484 29.993 28.9884 30 28.4897C30 28.1174 29.9649 27.9769 29.8104 27.717C29.7051 27.5414 27.8231 25.6025 25.5901 23.3687L21.5524 19.3365L22.0439 18.5919C22.8936 17.3063 23.4484 15.9646 23.7995 14.37C23.9399 13.7167 23.961 13.4428 23.954 11.9816C23.954 10.5415 23.9329 10.2395 23.7995 9.61429C22.7251 4.67592 18.9261 1.00199 14.0247 0.152002C13.2172 0.0115089 11.5319 -0.0446892 10.7594 0.039608ZM14.2003 3.3342C15.1763 3.58709 16.4543 4.17716 17.2198 4.73914C17.7815 5.1536 18.6804 6.01764 19.0876 6.54449C22.4021 10.8436 21.1802 16.9692 16.4473 19.765C14.9376 20.6571 12.9784 21.0856 11.2299 20.917C9.03198 20.6993 7.20623 19.8282 5.65435 18.2547C4.91 17.5101 4.46761 16.8778 3.97606 15.8803C2.3048 12.4804 2.99297 8.39901 5.7035 5.6945C6.74277 4.64782 8.10506 3.83295 9.49544 3.41849C10.4715 3.13048 11.0473 3.06023 12.2341 3.08833C13.2031 3.11643 13.47 3.14453 14.2003 3.3342Z" fill="black"/>
</svg>