<svg width="279" height="300" viewBox="0 0 279 300" fill="none" xmlns="http://www.w3.org/2000/svg">
<path d="M55 2.50585C51.6 5.80585 51.3 11.6059 54.1 17.6059C55.3 20.1059 56.5 21.1059 59.1 21.6059L62.5 22.2059V72.6059C62.5 112.206 62.2 123.006 61.3 123.006C59 123.006 43.7 131.406 37.4 136.006C25.3 144.806 13.5 159.206 7.6 172.406C0.5 188.206 0 191.006 0 215.006C0 234.906 0.2 237.006 2.3 243.506C6.1 254.606 12.2 266.406 18.3 274.006C24.3 281.406 34.6 291.006 41.5 295.606L48 300.006H80.2C97.9 300.006 113.1 299.706 114 299.406C114.8 299.006 116.2 297.506 117 295.906C120.1 290.006 117.9 280.906 112.9 279.006C111.5 278.406 98.9 278.006 84.9 278.006C62.5 278.006 59.1 277.806 56.7 276.306C55.2 275.306 53.8 274.306 53.5 274.006C53.2 273.706 50.8 271.806 48.2 269.606C42.4 265.006 33.9 253.806 29.6 245.306C25.6 237.306 22.5 225.906 22.5 219.406C22.5 214.606 22.7 214.206 25.5 213.106C38.1 208.406 43.3 207.506 57.5 207.506C67.2 207.506 72 207.906 74.5 209.006C76.4 209.806 81 210.506 84.7 210.506C90.4 210.506 91.7 210.106 93.9 208.106C96.2 206.006 96.5 204.806 96.5 199.506C96.5 192.806 95.8 191.706 89.7 188.506C87.8 187.606 83.1 186.006 79.2 185.006C69.9 182.506 44.9 182.206 36.2 184.506C26.9 186.906 26.9 186.906 32.2 177.906C41.7 162.006 57.7 149.506 76.2 143.506C79 142.606 82.4 140.706 83.7 139.306L86 136.806L86.3 79.4059L86.6 22.0059H95.9H105.2L105.8 79.7059L106.4 137.506L109.5 140.206C113.7 144.106 121 144.206 125.4 140.406L128.5 137.806V79.9059V22.0059H130.9C132.3 22.0059 134.7 20.9059 136.2 19.6059C138.7 17.4059 139 16.6059 139 10.5059C139 -0.594145 141.4 0.0058549 95.8 0.0058549H57.4L55 2.50585Z" fill="#EC1515"/>
<path d="M177.4 128.906C167.5 130.806 163.8 134.806 163.3 144.406C163 149.106 162.8 149.506 158.5 152.006L154 154.606L149.6 151.806C141.8 146.906 136.9 148.306 128.8 157.706C119 169.206 110.5 186.806 110.5 195.706C110.5 199.506 115 205.106 119.5 207.006C122.5 208.206 122.6 208.406 122.3 214.306C122 220.206 121.9 220.406 118 222.606C113.5 225.106 110.5 229.206 110.5 233.106C110.5 243.106 124.7 269.306 134 276.406C138.5 279.906 144.3 279.906 150.2 276.406L154.6 273.906L159 276.706C163.3 279.406 163.5 279.706 163.5 284.506C163.5 290.506 166 295.206 170.7 297.706C173.6 299.306 176.7 299.506 194.5 299.506C210.2 299.506 215.8 299.206 218.5 298.006C224.6 295.506 226.5 292.406 226.5 284.806C226.5 279.506 226.5 279.506 231.3 276.906L236.1 274.206L240.1 276.606C245.3 279.806 250.9 279.806 255.7 276.506C260.7 273.106 268.8 262.206 273.8 252.006C277.5 244.506 278 242.506 278.3 235.406L278.7 227.306L275.3 224.906C273.5 223.606 271.1 222.006 270 221.406C268.4 220.506 267.9 219.106 267.7 214.306L267.4 208.306L271.5 206.506C277.3 203.906 278.5 201.706 278.5 194.006C278.5 188.906 277.8 185.906 275.2 180.006C267.5 162.506 255.9 149.006 248.3 149.006C247 149.006 243.7 150.206 240.9 151.606L235.8 154.206L231.4 151.806C227 149.306 227 149.306 226.4 142.706C225.8 135.106 224.7 133.506 218.5 130.806C214.8 129.106 211.2 128.706 198 128.406C189.2 128.306 179.9 128.506 177.4 128.906ZM201.5 155.706C201.5 162.806 203.1 165.006 211.3 169.206C215.3 171.206 221.4 174.806 224.8 177.106C229.9 180.606 231.7 181.306 235.9 181.306C239.2 181.406 242 180.806 243.6 179.706L246.2 177.906L249.3 182.706C251.6 186.206 252.1 187.806 251.3 188.706C250.7 189.406 249.7 190.006 249.1 190.006C248.4 190.006 246.7 191.306 245.2 192.806L242.5 195.606V214.106C242.5 234.406 242.7 234.806 249.2 238.606L252.4 240.406L249.8 245.206C248.4 247.806 246.9 250.006 246.5 250.006C246.1 250.006 244.4 249.306 242.9 248.506C241.3 247.706 237.9 247.006 235.3 247.006C231.5 247.006 229.8 247.606 226.2 250.406C223.7 252.306 218 255.706 213.6 258.006C203.6 263.206 201.5 265.606 201.5 272.206V277.106L195.3 276.806L189 276.506L188.4 270.906C188.1 267.806 187.5 264.806 187.1 264.106C186.7 263.506 183.1 261.306 179.2 259.406C175.3 257.406 170.3 254.606 168.2 253.106C166 251.706 163.1 249.706 161.6 248.806C158.3 246.606 151.4 246.506 147.3 248.606C144.3 250.206 144.1 250.106 142.4 247.906C141.4 246.606 140 244.406 139.3 243.106C138.2 241.006 138.2 240.606 139.9 239.606C141 239.006 143.2 237.306 144.9 235.906L147.9 233.206L148 215.906C148.1 196.106 147.4 193.106 141.9 190.506C138.1 188.706 137.9 188.306 139.8 184.906C142.4 179.806 144.2 178.006 145.9 178.606C146.8 178.906 147.5 179.606 147.5 180.106C147.5 180.606 150.2 181.006 153.6 181.006C158.9 181.006 160.2 180.606 165.3 177.106C168.4 175.006 173.9 171.906 177.5 170.106C187.2 165.406 187.7 164.806 188.2 158.806C188.9 150.906 188.8 151.006 195.5 151.006H201.5V155.706Z" fill="#EC1515"/>
<path d="M181.2 179.406C174.5 182.206 173.4 183.006 167.9 188.706C156.5 200.506 154.4 217.206 162.4 232.806C173 253.506 204.7 258.006 221.5 241.006C229.4 233.106 233 223.506 232.3 211.906C231.6 198.206 224 186.806 211.6 180.706C205.9 177.906 203.9 177.506 196 177.206C188.3 177.006 186.1 177.306 181.2 179.406ZM200.3 202.506C207 205.206 210.3 213.606 207.1 219.806C201.5 230.706 187.3 229.706 182.6 218.106C180.2 212.506 183.7 205.206 190 202.406C193.9 200.706 195.7 200.706 200.3 202.506Z" fill="#EC1515"/>
</svg>
