<svg width="300" height="300" viewBox="0 0 300 300" fill="none" xmlns="http://www.w3.org/2000/svg">
<path d="M197.1 1.4C196.2 2.5 195.9 7.4 196.2 20.2C196.5 36.2 196.7 37.8 198.8 41.2C201.6 45.7 206.4 48.6 212.2 49.5C219.7 50.6 221.2 52.8 222.5 64C223.3 71.3 224.3 73 227.4 73C232 72.9 233 70.9 233 61.5C233 47 229.4 42 216.5 38.6C210.4 37 208.1 35.2 207.9 31.6C207.8 30.4 207.5 23 207.1 15L206.5 0.499999L202.4 0.199999C199.7 -1.08778e-06 197.9 0.399999 197.1 1.4Z" fill="#EC1515"/>
<path d="M238.7 0.700054C238.3 1.00005 238 10.5001 238 21.7001V42.0001L240.5 43.2001C242.3 44.0001 244 44.1001 245.8 43.4001L248.5 42.5001L248.8 23.5001C248.9 13.0001 248.8 3.50005 248.5 2.20005C248 0.300054 247.3 5.44946e-05 243.6 5.44946e-05C241.3 5.44946e-05 239 0.300054 238.7 0.700054Z" fill="#EC1515"/>
<path d="M216.6 13.6C215.4 14.7 215 17.1 215 22.5C215 32.2 215.4 33 219.9 33C225.2 33 226 31.7 226 22.9C226 16 225.7 14.9 223.8 13.6C220.9 11.6 218.6 11.6 216.6 13.6Z" fill="#EC1515"/>
<path d="M266.3 16.1998C265.7 16.8998 265 23.1998 264.8 30.2998C264.5 39.9998 264 43.3998 262.9 44.5998C261.9 45.4998 258.6 46.2998 254.2 46.6998C247.4 47.2998 246.8 47.4998 243.5 51.0998C240.1 54.8998 240 55.2998 240 62.9998C240 70.5998 240.1 71.0998 242.5 72.1998C244.3 72.9998 245.7 72.9998 247.4 72.1998C249.3 71.3998 249.8 70.1998 250.3 65.4998C251 58.3998 252.4 57.2998 261.2 56.7998C267 56.4998 268.4 55.9998 271 53.4998C272.6 51.8998 274.5 48.9998 275 47.0998C276.4 41.8998 276.2 20.9998 274.7 17.9998C273.3 15.1998 268 13.9998 266.3 16.1998Z" fill="#EC1515"/>
<path d="M195.2 78C193.3 79.8 193 81.1 193 88.3C193 97.2 194.5 101 198 101C199 101 200.1 101.4 200.4 101.9C201 102.7 200.1 113 196.6 149L195.5 160.5L192.3 160.8L189 161.1V130.1V99L185.4 95L181.8 91H135C84.1 91 87 90.7 87 96.5C87 101.3 87.3 101.3 133.4 101.8L176.7 102.3L177.4 111.3C177.7 116.2 178 129.5 178 140.7V161H120H62L62.2 131.7L62.5 102.5L70.8 101.6C78.2 100.9 79.1 100.6 79.6 98.5C79.9 97.2 80 95.1 79.8 93.9C79.5 91.6 79.2 91.5 68.7 91.2L57.9 90.9L54.4 94.4L51 97.8V129.4V161H27.4C13.1 161 3.1 161.4 1.9 162C0.2 163 0 164.2 0 173.5C0 185.4 0 185.4 8.8 186.6L14 187.3V209.5C14 229.7 14.2 231.8 15.8 233.3C18.2 235.5 21.3 235.4 23.3 233.2C24.8 231.6 25 228.4 25 209.2V187H119.5H214V238.5V290H191.5H169V270.2C169 254.7 168.7 250 167.6 248.4C166.2 246.6 164.4 246.5 120.8 246.2C75.8 245.9 75.4 245.9 72.7 248L70 250.1V270.1V290H47.5H25V267.2C25 246.3 24.8 244.2 23.2 242.7C20.8 240.5 17.7 240.6 15.7 242.8C14.2 244.4 14 247.6 14 267.3V289.9L7.3 290.2L0.5 290.5V295V299.5H150H299.5V295V290.5L292.5 290L285.5 289.5L284.9 282.7C284.3 275 283.3 273.8 278 274.2L274.5 274.5L274.2 282.2L273.9 290H249.5H225V270.5V251H247.9H270.7L271.2 257.5C271.5 261.1 272.3 264.7 273 265.5C274.8 267.6 279.4 267.4 281.5 265C283.2 263.1 283.2 262.2 282.2 253.2C281.5 247.9 280.8 240.3 280.5 236.5C280.2 232.6 279.5 225.9 278.9 221.5C278.4 217.1 277.3 205.8 276.4 196.5C275.6 187.1 274.2 173 273.4 165C272.6 157 271.3 144 270.5 136C269.7 128 268.6 117.2 268.1 112C267.5 106.8 267.4 102.4 267.8 102.2C274 99.9 276 96.7 276 89.4C276 83.2 274.4 78.3 272 77C270.9 76.4 255.6 76 233.8 76C198.5 76 197.3 76.1 195.2 78ZM265 89C265 91 264.3 91 234 91C203.7 91 203 91 203 89C203 87 203.7 87 234 87C264.3 87 265 87 265 89ZM256 102.7C256 103.2 256.7 110.9 257.5 120C258.3 129.1 259 137.3 259 138.2C259 139.9 257.1 140 234 140H209L209.6 131.7C209.9 127.2 210.6 120.8 211.1 117.5C211.6 114.2 212 109.7 212 107.4C212 105.2 212.3 103 212.7 102.7C213.6 101.7 256 101.8 256 102.7ZM261.9 164.2C262.6 171 263.4 179.2 263.7 182.6L264.2 188.7L259.5 189.3C256.9 189.7 248 190 239.9 190C227.3 190 225 189.8 225 188.5C225 187.5 226 187 227.8 187C232.4 187 237.9 185 239 183C240.6 179.9 240.3 165.8 238.4 163.2C237 161.1 236.3 161 221.9 161C205.7 161 206.4 161.3 207.6 155.1L208.3 152H234.5H260.7L261.9 164.2ZM230 174C230 176 229.3 176 119.5 176C9.7 176 9 176 9 174C9 172 9.7 172 119.5 172C229.3 172 230 172 230 174ZM265.4 203.2C265.9 205.6 267.5 220.7 268.5 232.1L269.1 238.7L265.3 239.3C263.2 239.7 253.3 240 243.3 240H225V220.5V201H245C264.9 201 265 201 265.4 203.2ZM114 273.5V290H97H80V273.5V257H97H114V273.5ZM159 273.5V290H142H125V273.5V257H142H159V273.5Z" fill="#EC1515"/>
<path d="M89.4 112.9C87.3 114.4 82 119.3 77.8 123.8L70 131.8V137.5C70 144.3 72 148.1 76.7 150.4C84.3 154 88.8 152 100.7 139.8C107.8 132.5 110 129.6 110.5 126.7C112.9 113.8 99.8 105.2 89.4 112.9ZM99 123.3C99 124.1 98.2 125.4 97.1 126.4C95.6 127.8 95.1 127.8 94.1 126.6C93.2 125.5 93.3 124.9 94.5 123.6C96.5 121.7 99 121.5 99 123.3ZM85.1 138.4C83.5 140 82.8 140.2 81.8 139.2C80 137.4 83.7 133.5 85.7 135.2C86.9 136.2 86.8 136.7 85.1 138.4Z" fill="#EC1515"/>
<path d="M121.2 116.2C119.7 117.7 119.6 121.5 121 124.1C122 125.9 123.3 126 138.3 126C147.2 126 158.3 125.7 162.8 125.3C170.3 124.8 171.3 124.4 172.3 122.3C173 120.7 173 119.3 172.2 117.5L171 115H146.7C129.1 115 122.1 115.3 121.2 116.2Z" fill="#EC1515"/>
<path d="M121.6 137.6C119.8 139.4 119.6 142.3 121 145.1C122 146.9 123.4 147 146 147C166.4 147 170.1 146.8 171.4 145.4C173.4 143.4 173.4 141.1 171.4 138.2C169.9 136 169.5 136 146.5 136C126.6 136 122.9 136.2 121.6 137.6Z" fill="#EC1515"/>
<path d="M34.9001 196.9C32.6001 198.7 32.5001 199.4 32.2001 214.3C31.7001 236.9 32.2001 237.6 51.9001 237.3C59.5001 237.3 61.7001 236.9 63.9001 235.3L66.5001 233.3L66.8001 216.5C67.1001 194.3 67.7001 195 49.9001 195C38.9001 195 36.9001 195.3 34.9001 196.9ZM56.0001 216.5V226H49.5001H43.0001V216.5V207H49.5001H56.0001V216.5Z" fill="#EC1515"/>
<path d="M82.0004 196.8C79.6004 198.8 79.5004 199.3 79.2004 213.7C79.0004 222.6 79.3004 230 79.9004 232.2C81.3004 236.8 83.4004 237.3 98.9004 236.8C114.2 236.4 113.5 237.3 113.5 216C113.5 194.4 114.4 195.6 97.2004 195.2C85.6004 194.9 84.2004 195 82.0004 196.8ZM103 216.5V226H96.5004H90.0004V216.5V207H96.5004H103V216.5Z" fill="#EC1515"/>
<path d="M130 195.7C125.9 197.3 125.5 199 125.1 214.5C124.6 236.7 125.3 237.5 144.2 237.4C154.6 237.3 158.5 235.9 159.9 231.8C161.3 227.7 161.3 204.2 159.9 200.1C159.2 198.2 157.7 196.5 156.3 195.9C153.7 194.9 132.5 194.8 130 195.7ZM150 216.5V226H143H136V216.5V207H143H150V216.5Z" fill="#EC1515"/>
<path d="M176.2 196C172.6 197.5 171.8 201.3 172.2 217.7C172.6 237.3 171.8 236.4 189 236.8C201.8 237.2 202 237.1 204.5 234.6L207.1 232L206.8 215.4C206.4 194.3 207 195 190.1 195.1C183.7 195.1 177.5 195.5 176.2 196ZM196 216.5V226H189.5H183V216.5V207H189.5H196V216.5Z" fill="#EC1515"/>
</svg>
