<svg width="90" height="91" viewBox="0 0 90 91" fill="none" xmlns="http://www.w3.org/2000/svg">
<rect x="1.41421" y="45.9736" width="61.6396" height="61.6396" transform="rotate(-45 1.41421 45.9736)" stroke="#FF5F31" stroke-width="2"/>
<path d="M44.8071 32.5476C44.9193 32.6118 44.5985 32.6599 44.0853 32.6278C43.588 32.5957 43.2191 32.6278 43.2512 32.6759C43.3314 32.8203 42.2246 33.0128 42.0322 32.9005C41.9359 32.8524 41.8718 32.8844 41.8718 32.9646C41.8718 33.0609 41.7755 33.1411 41.6632 33.1411C41.551 33.1411 40.9414 33.3817 40.3159 33.6864C39.6903 33.9912 39.1289 34.2157 39.0808 34.1676C39.0327 34.1355 39.0167 34.1516 39.0487 34.1997C39.0969 34.2639 38.7921 34.5686 38.3751 34.9055C37.958 35.2263 37.3485 35.7877 37.0277 36.1566C36.7069 36.5095 36.4182 36.7661 36.3701 36.734C36.338 36.7019 36.3059 36.7661 36.3059 36.8784C36.3059 36.9746 35.9691 37.6162 35.552 38.2738C35.151 38.9315 34.8142 39.557 34.8142 39.6854C34.8142 39.7976 34.75 39.8618 34.6859 39.8137C34.6217 39.7816 34.5576 39.8618 34.5415 40.0062C34.5255 40.4392 34.0764 41.9791 33.9962 41.8989C33.9641 41.8668 33.948 42.1715 33.9801 42.5725C34.0122 43.1339 33.9801 43.2623 33.8678 43.0858C33.7395 42.9094 33.7235 42.9896 33.7876 43.4066C33.8358 43.7114 33.8999 44.0482 33.932 44.1605C33.9641 44.2728 33.932 44.4011 33.8518 44.4492C33.7556 44.5134 33.6914 44.6417 33.6914 44.7379C33.6914 44.8502 33.7556 44.8342 33.8518 44.6898C33.9962 44.4653 34.0603 44.9465 34.0764 46.4061C34.0764 46.5986 34.1566 46.7108 34.2368 46.6627C34.317 46.5986 34.349 46.7108 34.3009 46.9033C34.2368 47.1279 34.2688 47.2241 34.3811 47.1439C34.4774 47.0798 34.5094 47.176 34.4613 47.3845C34.3972 47.6091 34.4292 47.7053 34.5415 47.6251C34.6378 47.561 34.6698 47.6572 34.6057 47.8818C34.5576 48.0903 34.5576 48.2026 34.6057 48.1544C34.718 48.0582 35.8568 50.3038 35.8247 50.5765C35.8247 50.6887 35.8728 50.7529 35.937 50.7048C36.0653 50.6246 36.6909 51.9078 36.6107 52.1163C36.5946 52.1965 36.6428 52.2125 36.723 52.1644C36.8673 52.0682 37.3325 52.9985 37.2523 53.2391C37.2362 53.3032 37.2843 53.3514 37.3806 53.3514C37.5891 53.3514 38.0382 54.2496 37.8939 54.394C37.8297 54.4742 37.8778 54.4581 38.0061 54.394C38.1826 54.2977 38.2147 54.3298 38.1184 54.5704C38.0543 54.7308 38.0543 54.811 38.1184 54.7468C38.2788 54.5864 38.8563 55.5809 38.7279 55.7894C38.6638 55.8857 38.6798 55.9178 38.7921 55.8536C38.9525 55.7574 39.2412 56.3348 39.1771 56.6075C39.161 56.6877 39.2252 56.6877 39.3214 56.6235C39.4658 56.5433 39.4818 56.5914 39.4177 56.7839C39.3535 56.9283 39.3695 57.0085 39.4497 56.9604C39.5941 56.8802 39.8828 57.4736 39.8187 57.7303C39.8026 57.8105 39.8668 57.8105 39.963 57.7463C40.1074 57.6661 40.1234 57.7142 40.0593 57.9067C39.9951 58.0511 40.0111 58.1313 40.0913 58.0831C40.2357 58.0029 40.5244 58.5964 40.4603 58.837C40.4442 58.9172 40.4923 58.9653 40.5886 58.9653C40.7971 58.9653 41.2462 59.8636 41.1018 60.0079C41.0377 60.0881 41.0698 60.0881 41.166 60.04C41.3585 59.9277 41.8236 60.842 41.7434 61.1307C41.7114 61.2109 41.7434 61.243 41.8076 61.1788C41.968 61.0024 42.5454 61.9969 42.4171 62.2214C42.353 62.3337 42.353 62.3658 42.4332 62.3016C42.6096 62.1252 43.187 63.1036 43.0587 63.3442C42.9946 63.4565 42.9946 63.4886 43.0748 63.4244C43.2512 63.248 43.8286 64.2264 43.7003 64.467C43.6362 64.5793 43.6522 64.6114 43.7164 64.5312C43.7966 64.467 44.0051 64.6916 44.1815 65.0124C44.374 65.3332 44.7589 65.7502 45.0637 65.9267C45.3685 66.1031 45.5609 66.1673 45.4968 66.055C45.4005 65.8785 45.577 65.7823 45.9299 65.8465C45.994 65.8465 46.0261 65.8144 46.0101 65.7502C45.9619 65.4936 46.4111 64.7557 46.5715 64.852C46.6677 64.9001 46.6837 64.868 46.6196 64.7718C46.4913 64.5472 47.0687 63.5848 47.2451 63.7452C47.3253 63.8094 47.3253 63.7613 47.2612 63.665C47.1168 63.4084 47.6461 62.4781 47.8547 62.6064C47.9509 62.6545 47.9669 62.6224 47.9028 62.5262C47.7745 62.3016 48.3519 61.3392 48.5283 61.4996C48.6085 61.5638 48.6085 61.5317 48.5444 61.4194C48.416 61.1949 48.9935 60.2004 49.1539 60.3769C49.218 60.441 49.2501 60.4089 49.218 60.3287C49.1378 60.0721 49.587 59.1257 49.7474 59.222C49.8276 59.2701 49.8757 59.2541 49.8596 59.1739C49.7794 58.9333 50.2446 58.0029 50.389 58.0992C50.4692 58.1473 50.5173 58.1313 50.5012 58.0511C50.4371 57.7944 50.7258 57.2009 50.8702 57.2811C50.9504 57.3293 50.9664 57.2491 50.9022 57.1047C50.8381 56.9122 50.8541 56.8641 50.9985 56.9443C51.0947 57.0085 51.1589 57.0085 51.1428 56.9283C51.0787 56.6716 51.3674 56.0782 51.5118 56.1584C51.592 56.2065 51.608 56.1263 51.5438 55.9819C51.4797 55.7894 51.4957 55.7413 51.6401 55.8215C51.7363 55.8857 51.8005 55.8857 51.7844 55.8055C51.7203 55.5488 52.009 54.9554 52.1533 55.0356C52.2335 55.0837 52.2496 55.0035 52.1854 54.8591C52.1213 54.6666 52.1373 54.6185 52.2817 54.6987C52.3779 54.7629 52.4421 54.7629 52.426 54.6827C52.3619 54.426 52.6506 53.8326 52.7949 53.9128C52.8751 53.9609 52.8912 53.8807 52.827 53.7363C52.7629 53.5438 52.7789 53.4957 52.9233 53.5759C53.0195 53.6401 53.0837 53.6401 53.0676 53.5599C52.9874 53.3353 53.4526 52.389 53.5969 52.4852C53.6771 52.5333 53.6932 52.4371 53.629 52.2927C53.5649 52.1003 53.5809 52.0521 53.7253 52.1323C53.8215 52.1965 53.8857 52.1965 53.8696 52.1163C53.7894 51.8757 54.2546 50.9454 54.3989 51.0416C54.4791 51.0897 54.5273 51.0737 54.5112 50.9935C54.431 50.7689 55.0566 49.5018 55.2009 49.598C55.2811 49.6461 55.2972 49.5499 55.233 49.4056C55.1689 49.2131 55.1849 49.165 55.3132 49.2452C55.4415 49.3253 55.4736 49.2612 55.3934 49.0848C55.3293 48.9083 55.3613 48.8442 55.4576 48.9083C55.5538 48.9725 55.634 48.9244 55.618 48.8121C55.6019 48.2667 55.6821 48.0422 55.8586 48.1544C55.9548 48.2186 55.9869 48.2026 55.9388 48.1063C55.8265 47.9299 56.1954 46.5665 56.3398 46.6948C56.3879 46.7429 56.3879 46.5986 56.3398 46.358C56.2916 46.1174 56.3237 45.957 56.4039 46.0051C56.4841 46.0532 56.5483 45.6201 56.5643 45.0106C56.5804 44.4171 56.6285 43.6151 56.6926 43.2302C56.7568 42.8131 56.7408 42.6046 56.6606 42.7329C56.4841 43.0056 56.2435 41.4016 56.4039 41.129C56.4681 41.0167 56.452 41.0006 56.3398 41.0648C56.1633 41.1771 56.0831 40.8723 56.0992 40.2307C56.1152 40.1184 56.0831 40.0543 56.035 40.1024C55.9067 40.2147 54.8801 38.0653 54.9764 37.8889C55.0245 37.8087 54.9924 37.7927 54.8962 37.8568C54.7197 37.9691 54.6235 37.7445 54.7037 37.3917C54.7197 37.2954 54.6716 37.2794 54.6075 37.3435C54.4952 37.4719 53.629 36.4293 53.5809 36.1085C53.5488 35.8999 52.9233 35.2263 52.7949 35.2744C52.6185 35.3385 51.8165 34.6328 51.9448 34.5045C52.009 34.4563 51.993 34.4082 51.8967 34.4243C51.5599 34.5045 51.3193 34.4243 51.4155 34.2639C51.4797 34.1676 51.4636 34.1195 51.3834 34.1355C51.1268 34.1997 50.5333 33.911 50.6135 33.7666C50.6616 33.6864 50.5814 33.6704 50.4371 33.7346C50.2606 33.7987 50.1965 33.7666 50.2606 33.6704C50.3248 33.5742 50.2767 33.51 50.1644 33.51C49.8276 33.5421 47.983 32.9326 48.0471 32.8203C48.0792 32.7722 47.8867 32.7561 47.6141 32.7882C47.3414 32.8363 47.1649 32.8042 47.2131 32.724C47.2612 32.6438 46.8923 32.5957 46.395 32.6278C45.8817 32.6599 45.5609 32.6118 45.6732 32.5476C45.7855 32.4674 45.6091 32.4193 45.2401 32.4193C44.8712 32.4193 44.6948 32.4674 44.8071 32.5476ZM46.8281 39.7656C47.1008 39.8778 47.2772 40.0382 47.2131 40.1184C47.1329 40.1826 47.181 40.1986 47.2933 40.1345C47.7584 39.8618 50.0682 42.0111 49.7955 42.4603C49.7153 42.5886 49.7474 42.6046 49.8917 42.5244C50.0521 42.4282 50.0842 42.4603 50.004 42.6688C49.9398 42.8131 49.9559 42.9094 50.0361 42.8613C50.2125 42.749 50.421 43.5189 50.2767 43.7595C50.2125 43.8718 50.2286 43.8878 50.3408 43.8237C50.4852 43.7435 50.5333 44.0482 50.5333 44.9304C50.5333 45.7003 50.4692 46.1174 50.3729 46.0532C50.2767 46.0051 50.2606 46.0692 50.3088 46.2136C50.3729 46.3419 50.2125 46.8552 49.988 47.3364C49.5068 48.2988 47.9028 49.8867 47.5339 49.7584C47.4055 49.7103 47.3574 49.7263 47.4055 49.8065C47.4537 49.8867 47.1008 50.0792 46.6196 50.2075C45.6411 50.4963 44.5344 50.5444 44.6787 50.3038C44.7269 50.2075 44.6627 50.1915 44.5183 50.2396C44.1976 50.3679 42.9785 49.983 43.0908 49.8065C43.1389 49.7263 43.0748 49.6943 42.9625 49.7424C42.7058 49.8386 41.0377 48.4111 41.166 48.2026C41.2141 48.1224 41.166 48.0742 41.0377 48.0903C40.9254 48.1224 40.8452 48.0101 40.8452 47.8657C40.8612 47.7053 40.8131 47.6091 40.749 47.6572C40.5725 47.7695 40.3961 47.2722 40.5405 47.0637C40.5886 46.9675 40.5565 46.9354 40.4763 46.9835C40.2197 47.1439 40.0913 46.6627 39.9951 45.1871C39.9309 44.3049 39.947 43.8718 40.0593 43.9359C40.1555 44.0001 40.1876 43.8718 40.1395 43.6151C40.0753 43.3104 40.1074 43.2302 40.2678 43.3264C40.4121 43.4066 40.4442 43.3906 40.364 43.2623C40.2036 43.0056 40.4121 42.4121 40.6206 42.5405C40.7169 42.6046 40.749 42.5725 40.7008 42.4923C40.3801 41.963 42.8181 39.8458 43.7805 39.8137C44.0372 39.7976 44.2136 39.7495 44.1655 39.6693C44.0372 39.4768 46.2988 39.541 46.8281 39.7656Z" fill="white"/>
</svg>
