<svg width="90" height="91" viewBox="0 0 90 91" fill="none" xmlns="http://www.w3.org/2000/svg">
<rect x="1.41421" y="45.9736" width="61.6396" height="61.6396" transform="rotate(-45 1.41421 45.9736)" stroke="#FF5F31" stroke-width="2"/>
<path d="M31.033 34.7725C30.9042 34.8441 32.965 36.9907 37.3298 41.3413C44.0274 48.0388 44.1275 48.1104 45.2295 48.1104C46.3314 48.1104 46.4316 48.0388 53.1291 41.3413C57.494 36.9907 59.5548 34.8441 59.426 34.7725C59.197 34.6294 31.262 34.6294 31.033 34.7725Z" fill="white"/>
<path d="M29.3146 36.4613C29.1429 36.8906 29.1715 55.2229 29.3432 55.3946C29.4434 55.4948 31.0176 54.0208 34.3234 50.715L39.1462 45.8922L34.2805 41.0264C30.1303 36.8763 29.4148 36.218 29.3146 36.4613Z" fill="white"/>
<path d="M56.1333 41.0697L51.3105 45.8925L56.1763 50.7583C60.3264 54.9084 61.042 55.5667 61.1422 55.3235C61.3139 54.8941 61.2853 36.5618 61.1136 36.3901C61.0134 36.2899 59.4392 37.7639 56.1333 41.0697Z" fill="white"/>
<path d="M35.6551 52.1033C31.9343 55.8242 30.8753 56.969 31.0613 57.0406C31.3762 57.1551 59.0822 57.1551 59.397 57.0406C59.583 56.969 58.524 55.8242 54.8032 52.1033L49.9661 47.2662L48.95 48.2394C47.5046 49.5989 46.8463 49.8994 45.2292 49.8994C43.612 49.8994 42.9537 49.5989 41.5083 48.2394L40.4922 47.2662L35.6551 52.1033Z" fill="white"/>
</svg>
