<svg width="300" height="300" viewBox="0 0 300 300" fill="none" xmlns="http://www.w3.org/2000/svg">
<path d="M57.5003 1.80195C47.1003 5.70195 45.0003 7.90195 45.0003 15.3019C45.0003 20.6019 45.2003 21.0019 62.8003 38.7019C69.1003 45.1019 70.1003 46.5019 69.5003 48.7019C67.8003 55.5019 56.8003 67.1019 50.1003 69.1019L46.3003 70.2019L33.5003 57.6019L20.7003 45.0019H15.2003C10.3003 45.0019 9.4003 45.3019 6.6003 48.3019C1.5003 53.8019 -0.199698 61.7019 0.200302 77.9019L0.500302 91.702L4.7003 100.102C10.0003 110.802 21.2003 122.402 31.5003 127.802L35.5003 129.902L31.5003 130.002C29.3003 130.002 26.5003 130.802 25.4003 131.802C23.4003 133.302 16.2003 144.902 4.2003 165.702C0.400302 172.102 0.000301631 173.502 0.000301631 179.402V185.902L5.8003 189.802C8.9003 191.902 13.4003 194.702 15.8003 196.002C19.8003 198.302 20.0003 198.602 20.0003 203.102V207.802L12.2003 212.402C0.700301 219.102 0.000301631 220.002 0.000301631 227.102C0.000301631 233.502 -0.199699 233.102 9.7003 250.002C25.0003 276.102 24.9003 276.002 31.2003 276.002C35.3003 276.002 43.5003 272.702 50.2003 268.402C52.8003 266.602 53.0003 266.702 57.7003 269.202L62.5003 271.902L63.1003 282.702C63.4003 288.602 64.0003 294.302 64.4003 295.302C66.3003 299.502 69.5003 300.002 96.9003 300.002C122.7 300.002 122.9 300.002 125.6 297.702C128.6 295.102 129.8 289.702 129.9 278.302L130 272.102L134.6 269.402C138.9 266.802 139.4 266.802 141.9 268.202C157 277.202 162.7 278.102 168.7 272.602L172.4 269.202L174.5 272.602C175.7 274.502 179.7 279.302 183.5 283.202C189.2 288.902 192.3 291.202 200 294.902L209.5 299.502H223C245.1 299.502 255 294.602 255 283.702C255 279.802 252.3 276.302 238.2 262.202L229 253.002L230.5 249.402C234 240.902 240.9 234.002 249.4 230.502L253 229.002L261.3 237.202C276.5 252.402 279.8 255.002 283.9 255.002C288.6 255.002 293.5 251.902 295.3 247.802C296.1 246.002 297.3 243.102 298 241.502C299.8 237.102 300.5 217.702 299.1 210.702C297.2 201.702 291.9 192.302 284.4 184.602C277.9 178.002 267 170.002 264.4 170.002C263.7 170.002 262.9 169.702 262.7 169.202C262.4 168.802 264.3 168.602 266.9 168.802C270.4 169.102 272.2 168.702 274.1 167.102C276.2 165.502 293 139.202 293 137.602C293 137.402 294.6 134.602 296.5 131.402C299.4 126.702 300 124.602 300 120.202C300 115.302 299.7 114.402 296.6 111.602C294.8 109.902 290.3 107.002 286.6 105.102L280 101.702V96.402V91.202L287.9 86.6019C292.3 84.1019 296.8 80.9019 297.9 79.4019C300.7 75.8019 300.7 68.8019 297.9 63.5019C290.7 49.9019 275.7 26.0019 273.4 24.5019C269.3 21.9019 263.4 23.0019 254.2 28.2019L246.2 32.7019L241.6 30.1019C237 27.5019 237 27.5019 237 22.0019C237 19.0019 236.5 13.6019 236 10.0019C234.5 -0.398051 235.7 0.00194865 203.3 0.00194865C187.5 0.00194865 175.1 0.401949 174.1 1.00195C171.2 2.50195 170.7 4.70195 170.1 16.4019L169.5 27.4019L165 30.1019L160.5 32.8019L156.3 30.3019C142.7 22.6019 138.3 21.5019 133 24.7019C131.4 25.6019 129.6 27.4019 128.9 28.6019C127.7 30.9019 127.7 30.9019 125 26.7019C119.7 18.4019 109.2 9.20195 100.1 4.70195L91.5003 0.501949L77.0003 0.201949C64.9003 0.00194865 61.7003 0.301949 57.5003 1.80195ZM213 31.4019C213 42.7019 213.3 43.3019 224.5 49.1019C228.9 51.4019 234.4 54.6019 236.7 56.1019C242.5 60.1019 247.6 59.9019 256 55.5019L262.4 52.1019L265.3 56.3019C266.8 58.6019 269 62.1019 270 64.1019L271.9 67.7019L265.9 71.0019C255.4 76.9019 255.6 76.6019 255.2 95.802C254.8 115.202 254.7 115.002 265.8 121.502C269.8 123.802 271.8 125.602 271.3 126.302C270.6 127.502 262.9 139.202 262.4 139.902C262.2 140.102 259.5 138.802 256.4 137.102C248.5 132.902 241.6 132.802 235.7 136.902C233.4 138.402 227.8 141.702 223.3 144.002C214.1 148.902 213 150.402 213 159.102V165.102L209.9 163.302C204.7 160.302 139.5 94.802 136.4 89.4019C133.9 85.1019 133.5 83.5019 133.6 77.0019C133.6 70.5019 134.1 68.7019 137 63.5019C138.8 60.2019 141.2 56.3019 142.2 54.8019L144.1 52.1019L150.6 55.5019C154.9 57.8019 158.5 59.0019 161.1 59.0019C164.9 59.0019 168.8 57.6019 170 56.0019C170.3 55.6019 174.9 52.9019 180.4 49.9019C185.8 46.9019 190.9 43.5019 191.7 42.3019C192.5 41.1019 193.4 36.3019 193.7 31.1019L194.3 22.0019H203.6H213V31.4019ZM89.3003 26.2019C93.3003 28.5019 105.5 41.4019 107.5 45.5019C109.3 49.1019 109.5 51.6019 109.5 69.5019C109.5 88.3019 109.6 89.9019 111.9 95.502C115.1 103.402 117.2 106.102 131.4 121.002C168.4 159.502 192 181.902 199.1 185.302C208.4 189.702 210.8 190.002 230.6 189.902C253 189.802 254.2 190.202 263.8 199.302C270 205.302 275.8 213.502 274.7 214.702C274.4 215.002 272.1 213.302 269.6 211.002C262.6 204.502 261.1 203.602 256 203.702C245.5 203.902 230.8 211.102 221 220.902C210.6 231.302 204 245.002 204 256.102C204 261.502 204.3 262.102 208.7 267.102C211.4 270.102 213.9 272.802 214.5 273.202C215 273.602 215.2 274.202 214.9 274.502C213.6 275.702 205.7 270.402 200.1 264.602C190.3 254.402 190 253.402 190 230.302C190 209.702 189.5 206.902 185 198.102C182.7 193.502 171.2 181.102 143 152.902C108.2 118.102 105.2 115.602 93.0003 110.902C90.4003 109.902 84.6003 109.602 71.0003 109.702C58.7003 109.902 51.4003 109.602 49.0003 108.802C43.8003 107.002 38.1003 102.902 32.5003 96.902C23.7003 87.4019 22.1003 81.2019 30.5003 89.1019C33.1003 91.502 36.1003 94.002 37.3003 94.702C45.2003 99.202 66.0003 91.002 78.5003 78.5019C91.0003 66.0019 99.2003 45.2019 94.7003 37.3019C94.0003 36.1019 91.6003 33.1019 89.3003 30.6019C86.9003 28.2019 85.0003 25.9019 85.0003 25.6019C85.0003 24.6019 86.9003 24.9019 89.3003 26.2019ZM55.0003 133.902L62.5003 134.502L57.8003 137.202L53.1003 139.802L48.5003 136.902C46.0003 135.302 43.5003 134.002 43.0003 134.002C42.5003 134.002 41.8003 133.502 41.4003 132.802C40.9003 132.002 41.6003 131.902 44.1003 132.502C46.0003 133.002 50.9003 133.602 55.0003 133.902ZM126.5 171.602C145 190.002 161.4 207.202 163.1 209.802C165.6 213.802 166 215.302 166 221.602C166 229.202 165.3 231.402 160.5 239.502C155.7 247.602 155.8 247.602 149.3 244.102C141.5 239.902 134.6 239.802 128.7 243.902C126.4 245.402 120.8 248.702 116.3 251.002C111.3 253.702 107.8 256.202 107.1 257.702C106.5 259.002 106 263.902 106 268.502V277.002H96.6003H87.3003L86.7003 267.902C86.4003 262.502 85.5003 257.902 84.7003 256.702C83.9003 255.502 79.7003 252.702 75.4003 250.502C71.0003 248.302 67.3003 246.302 67.0003 246.002C66.7003 245.702 65.3003 244.902 63.8003 244.102C62.2003 243.302 61.0003 242.302 61.0003 241.802C61.0003 241.402 58.3003 241.002 54.9003 241.002C50.0003 241.002 47.7003 241.602 43.3003 244.002C40.3003 245.602 37.7003 247.002 37.5003 247.002C36.8003 247.002 29.3003 235.602 28.7003 233.502C28.1003 231.902 29.0003 231.002 33.3003 228.602C36.1003 227.002 39.8003 224.402 41.3003 222.802L44.2003 219.802L43.8003 202.402L43.5003 184.902L40.0003 182.002C38.1003 180.402 34.6003 178.202 32.2003 177.002C28.7003 175.202 28.0003 174.502 28.6003 172.702C28.9003 171.602 29.7003 170.202 30.2003 169.602C30.7003 169.002 32.4003 166.402 34.0003 163.702L37.0003 159.002L43.8003 162.502C51.0003 166.202 56.4003 166.902 60.3003 164.902C61.5003 164.202 62.7003 163.402 63.0003 163.002C63.3003 162.602 67.1003 160.402 71.5003 158.002C85.3003 150.602 85.8003 150.102 86.6003 142.002L87.3003 135.102L90.1003 136.602C91.7003 137.402 108.1 153.102 126.5 171.602ZM251.7 162.802C254.3 164.402 257.4 165.902 258.4 166.302C259.4 166.702 260.1 167.302 259.8 167.602C259.5 167.802 258.1 167.602 256.6 167.002C255.1 166.502 251 166.002 247.5 166.002C238.2 166.002 236.9 165.202 241.6 162.402C243.8 161.102 245.8 160.002 246.2 160.002C246.6 160.002 249.1 161.302 251.7 162.802Z" fill="#EC1515"/>
<path d="M192.2 64.502C186.5 66.302 179.4 71.902 175.5 77.702C164.7 94.102 170.2 116.802 187.4 125.802C192 128.302 193.5 128.502 203.5 128.502C213.7 128.502 214.8 128.302 219.1 125.802C225.6 122.002 232.5 113.902 234.5 108.002C236.4 102.202 236.7 92.302 235.1 86.402C232.5 76.902 223.3 67.502 213.6 64.502C207.6 62.702 198 62.702 192.2 64.502ZM209.8 90.702C214.7 96.002 210.5 105.002 203.1 105.002C198.9 105.002 194 100.402 194 96.302C194.1 88.302 204.2 84.602 209.8 90.702Z" fill="#EC1515"/>
<path d="M84.5 171.902C76.9 174.502 70.6 180.202 66.2 188.502C63.8 192.902 63.5 194.602 63.5 203.002C63.5 211.502 63.8 213.102 66.3 217.802C69.5 223.902 75.7 230.302 81.5 233.302C84.9 235.102 87.2 235.502 96 235.502C105.1 235.502 107.1 235.202 111 233.202C124.5 226.102 131.2 212.802 128.9 197.502C127.6 189.502 124.6 183.702 118.7 178.502C109.8 170.402 96.3 167.802 84.5 171.902ZM101.7 196.202C106.6 201.602 106.7 204.402 102.2 209.202C96.7 215.102 88 211.302 88 203.002C88 195.302 96.9 190.902 101.7 196.202Z" fill="#EC1515"/>
</svg>
