<svg width="511" height="370" viewBox="0 0 511 370" fill="none" xmlns="http://www.w3.org/2000/svg">
<path d="M196.038 2.70009C194.938 4.20009 193.938 6.70009 193.938 8.30009C193.938 11.7001 197.838 16.1001 200.938 16.1001H202.938L202.838 110.8C202.838 163 202.438 207.7 202.138 210.3L201.438 215L162.338 196.6C140.838 186.5 122.038 177.9 120.538 177.5C118.838 177.1 116.038 177.5 113.138 178.6C103.238 182.4 27.2378 218.7 20.2378 223.1L16.9378 225.1V289V352.9L9.93775 353.6C4.43775 354.2 2.63775 354.8 1.43775 356.4C-0.462247 359.1 -0.462247 365.1 1.33775 367.7C2.73775 369.6 6.43774 369.6 254.938 369.6H507.138L509.038 367.2C511.238 364.6 511.438 361 509.838 357.8C508.138 354.7 507.238 354.3 500.338 353.6L494.138 352.9L493.738 236.7C493.438 172.9 492.938 119.9 492.538 119C491.038 115.5 487.138 115.1 454.838 114.4L422.938 113.8V83.0001V52.3001L425.438 51.7001C428.138 51.0001 431.938 45.8001 431.938 42.9001C431.938 42.0001 430.738 39.9001 429.338 38.2001L426.738 35.1001H396.438H366.138L364.038 38.5001C362.838 40.3001 361.938 42.8001 361.938 44.0001C361.938 46.3001 366.238 51.4001 368.838 52.2001C369.938 52.6001 370.338 58.5001 370.738 83.4001L371.238 114.1H353.038H334.938V82.7001V51.3001L337.738 50.8001C342.638 49.8001 344.538 42.3001 341.038 38.0001L339.138 35.6001H308.438H277.738L275.838 38.0001C272.338 42.3001 274.338 51.1001 278.838 51.1001C279.938 51.1001 280.938 52.1001 281.338 53.3001C281.638 54.6001 281.938 68.8001 281.938 84.8001V114.1H268.438H254.938V65.6001V17.1001L257.338 16.1001C260.438 15.0001 263.938 10.4001 263.938 7.60009C263.938 6.30009 263.038 4.30009 262.038 3.00009L260.138 0.600092L229.138 0.300092L198.138 9.21488e-05L196.038 2.70009ZM237.938 25.1001V34.1001H228.938H219.938V25.1001V16.1001H228.938H237.938V25.1001ZM233.538 52.1001H237.938L238.038 87.3001C238.038 125.5 238.438 129 242.938 130.2C244.338 130.6 297.538 130.9 361.238 131L476.938 131.1V242.1V353.1H348.438H219.938V202V50.8001L224.538 51.5001C227.138 51.8001 231.138 52.1001 233.538 52.1001ZM405.938 60.6001V70.1001H396.938H387.938V61.1001V52.2001L393.738 51.8001C396.838 51.6001 400.938 51.4001 402.738 51.3001L405.938 51.1001V60.6001ZM317.338 55.2001C317.638 56.9001 317.938 61.0001 317.938 64.2001V70.1001H308.438H298.938V61.1001V52.1001H307.838H316.738L317.338 55.2001ZM317.938 100.6V114.1H308.438H298.938V100.6V87.1001H308.438H317.938V100.6ZM405.938 100.6V114.1H396.938H387.938V100.6V87.1001H396.938H405.938V100.6ZM161.838 215.2L202.838 234.6L202.938 293.8V353.1H193.538H184.038L183.738 302.7L183.438 252.3L180.938 249.5L178.438 246.8L117.438 247.5C67.9378 248.1 56.1378 248.4 55.0378 249.5C52.4378 252.2 52.0378 259.9 51.9378 306.3V353.1H42.9378H33.9378V293.8V234.5L61.1378 221.6C110.138 198.4 117.438 195.1 119.138 195.5C120.038 195.7 139.338 204.6 161.838 215.2ZM166.938 273.1V282.1H117.938H68.9378V273.1V264.1H117.938H166.938V273.1ZM166.938 308.6V318.1H117.938H68.9378V308.6V299.1H117.938H166.938V308.6ZM166.938 344.1V353.1H117.938H68.9378V344.1V335.1H117.938H166.938V344.1Z" fill="#EC1515"/>
<path d="M240.938 152.6C238.538 155.2 238.438 155.7 238.038 173.8C237.638 194.7 238.438 199.6 242.538 201.1C245.838 202.4 291.038 202.4 294.338 201.1C295.838 200.6 297.238 199 297.638 197.4C298.038 195.9 298.438 185.5 298.438 174.4C298.338 156.4 298.138 153.9 296.638 152.4C295.038 150.8 292.138 150.6 269.138 150.3L243.338 150L240.938 152.6ZM281.938 176.1V185.1H268.438H254.938V176.1V167.1H268.438H281.938V176.1Z" fill="#EC1515"/>
<path d="M320.838 152C318.438 153.9 318.438 154.2 318.138 175.3C317.838 195.4 317.938 196.9 319.738 199.2L321.738 201.6L347.238 201.9L372.738 202.2L375.538 199.7L378.438 197.3V176.3C378.438 155.4 378.438 155.2 376.038 152.7L373.638 150.1H348.338C325.038 150.1 322.938 150.2 320.838 152ZM361.938 175.6V185.1H348.438H334.938V176.1V167.2L345.738 166.8C351.638 166.7 357.638 166.4 359.238 166.3L361.938 166.1V175.6Z" fill="#EC1515"/>
<path d="M402.137 151.1C397.837 152.9 396.937 157.5 397.037 176.3C397.137 185.8 397.437 194.7 397.837 196.1C398.237 197.6 399.937 199.3 401.937 200.3C404.937 201.9 408.537 202.1 429.037 202.1C451.437 202.1 452.838 202 455.338 200L457.938 198V177.1C457.938 165.6 457.638 155.5 457.338 154.6C455.838 150.7 452.037 150.1 427.737 150.2C414.937 150.2 403.437 150.6 402.137 151.1ZM441.337 170.2C441.637 171.9 441.937 176 441.937 179.2V185.1H427.937H413.937V176.1V167.1H427.337H440.737L441.337 170.2Z" fill="#EC1515"/>
<path d="M332.238 221C324.338 221.5 321.638 222 320.238 223.4C318.538 225 318.438 228.6 318.138 269.9C317.938 294.5 318.138 316.5 318.438 318.9C319.438 325.9 321.438 326.3 350.038 325.9C373.338 325.6 373.938 325.5 376.138 323.3L378.438 321V274.8C378.438 249.4 378.138 227.4 377.738 226C377.238 224.4 375.838 222.9 374.238 222.3C370.738 220.9 345.738 220.2 332.238 221ZM361.938 246.6V256.1H348.438H334.938V246.6V237.1H348.438H361.938V246.6ZM361.938 291.1V309.1H348.438H334.938V291.1V273.1H348.438H361.938V291.1Z" fill="#EC1515"/>
<path d="M240.838 223L238.438 224.9L238.138 272.5L237.838 320.2L240.138 323.1L242.438 326H267.638L292.838 326.1L295.638 323.7L298.438 321.3L298.738 281.4C298.938 259.5 298.838 237.8 298.438 233.3C297.338 220.5 298.938 221.1 268.538 221.1C245.038 221.1 242.938 221.2 240.838 223ZM281.938 246.6V256.1H268.438H254.938V246.6V237.1H268.438H281.938V246.6ZM281.938 291.1V309.1H268.438H254.938V291.1V273.1H268.438H281.938V291.1Z" fill="#EC1515"/>
<path d="M400.338 223.5L397.438 225.9L397.138 273.3L396.838 320.7L399.438 323.1L402.138 325.6H427.938C451.938 325.6 453.838 325.5 455.838 323.7C457.938 321.8 457.938 321.3 457.938 273.6C457.938 225.9 457.938 225.4 455.838 223.5C453.938 221.8 451.638 221.6 428.438 221.3L403.138 221L400.338 223.5ZM441.938 243.5C441.938 247 441.638 251.3 441.338 253L440.738 256.1H427.338H413.938V247.2V238.2L416.738 237.8C418.238 237.6 424.538 237.3 430.738 237.2L441.938 237.1V243.5ZM441.938 285C441.938 291.5 441.638 299.6 441.338 303L440.638 309.1H427.338H413.938V291.1V273.1H427.938H441.938V285Z" fill="#EC1515"/>
</svg>
