<svg width="225" height="225" viewBox="0 0 225 225" fill="none" xmlns="http://www.w3.org/2000/svg">
<path d="M82.8002 2.15302C81.4002 4.05302 81.2002 9.55302 81.2002 41.653V78.953L84.6002 80.553C87.5002 81.953 88.3002 82.053 90.8002 80.853C94.5002 79.053 95.1002 75.953 95.1002 55.853L95.2002 40.253L102.4 36.953L109.7 33.753L111.2 35.953C114.3 40.453 142.6 92.953 151.5 110.753L160.7 129.153L161 169.553L161.4 209.953H146.9C133.8 209.953 132.2 210.153 129.8 212.053C126.7 214.553 126.3 219.053 129.1 221.853C130.7 223.453 133.2 223.853 148.3 224.453C157.9 224.853 174.6 224.953 185.5 224.753L205.4 224.453L207.8 221.653C210.7 218.253 210.8 215.953 208.3 212.853C206.5 210.553 205.8 210.453 191.3 210.153L176.2 209.853L176.1 181.153C176 142.153 175.1 125.953 172.3 118.953C171.2 115.953 164.6 102.853 157.7 89.953C147.9 71.453 145.6 66.353 146.8 66.153C151.4 65.153 159 76.153 172.2 102.453C177.7 113.353 180.7 120.753 181.7 125.553C182.7 130.453 183.4 143.753 184 167.953C184.8 200.653 185 203.353 186.7 204.553C189.4 206.553 193.9 206.253 196.1 204.053C199.1 201.053 199.5 193.353 198.4 159.153C197.5 132.753 197 126.153 195.3 119.453C192.9 110.253 184.1 91.553 174.2 74.953C162.1 54.453 156.4 50.053 143.8 51.453L137.3 52.053L133.7 45.753C131.8 42.253 127.5 34.753 124.3 28.953C117 15.653 116.2 15.253 105.4 19.853C101.2 21.553 97.2002 23.253 96.6002 23.553C95.8002 23.953 95.3002 20.953 95.0002 13.553C94.7002 4.45302 94.4002 2.75302 92.7002 1.55302C89.6002 -0.746976 84.6002 -0.446976 82.8002 2.15302Z" fill="#EC1515"/>
<path d="M65.2 37.6531C59.7 39.7531 26.9 54.6531 21 57.5531C13.2 61.4531 5.6 68.5531 2.6 74.6531C1.3 77.3531 0.6 81.2531 0.4 88.0531L0 97.6531L8 113.053C20.2 136.653 33.9 160.853 38.3 166.753C42.6 172.353 47.4 175.853 53.6 177.953C58.3 179.453 71.6 179.553 75.5 178.053C82.8 175.253 147.7 132.553 151.5 128.053C153 126.253 154.2 124.153 154.2 123.353C154.2 121.053 149.5 116.953 146.9 116.953C145.6 116.953 130.2 126.253 110.3 138.953C91.5 151.053 74.4 161.853 72.4 162.953C64.1 167.453 54.2 164.153 47.9 154.753C42.2 146.153 18.6 102.453 16.1 95.8531C12.3 85.5531 15 78.1531 24.5 72.6531C26.9 71.2531 37.6 66.0531 48.5 61.0531C77.1 47.9531 79.7 45.8531 75.5 40.0531C73.5 37.4531 68.6 36.2531 65.2 37.6531Z" fill="#EC1515"/>
<path d="M81.2002 89.7531C79.4002 91.5531 78.2002 93.8531 78.2002 95.4531C78.2002 104.453 88.1002 109.153 94.3002 103.053C100.3 96.9531 97.1002 88.4531 88.3002 87.2531C84.8002 86.7531 83.9002 87.0531 81.2002 89.7531Z" fill="#EC1515"/>
<path d="M138.2 160.953C135.4 163.753 135.7 166.953 139.2 171.753C142.3 176.053 149.6 181.953 151.7 181.953C152.4 181.953 154.1 181.053 155.6 179.853C157.5 178.353 158.2 176.853 158.2 174.353C158.2 171.453 157.2 169.853 152.4 164.953C145.9 158.253 142 157.153 138.2 160.953Z" fill="#EC1515"/>
<path d="M121.2 174.953C120 176.153 119.2 178.253 119.2 180.453C119.2 183.753 119.7 184.253 127.5 189.253C132 192.253 138.1 196.753 141 199.253C143.8 201.753 147.1 204.353 148.3 204.953C151.1 206.553 154.8 205.453 156.8 202.453C158.1 200.453 158.2 199.453 157.2 196.553C155.4 191.053 144.2 181.453 132.5 175.553C126.2 172.453 123.9 172.253 121.2 174.953Z" fill="#EC1515"/>
<path d="M211.5 188.053C209.2 189.153 206.2 191.253 204.8 192.653C199.3 198.153 202.9 207.253 209.8 205.553C212.8 204.753 221 199.553 223 197.153C225.1 194.453 224.4 190.253 221.6 188.053C218.3 185.453 216.8 185.453 211.5 188.053Z" fill="#EC1515"/>
<path d="M110.2 194.953C108.9 196.253 108.2 198.253 108.2 200.953C108.2 205.953 110 206.953 120.3 207.653C129.9 208.353 133.2 206.853 133.2 201.653C133.2 196.953 131.3 194.853 126.1 193.853C118.2 192.353 112.4 192.753 110.2 194.953Z" fill="#EC1515"/>
</svg>
