<svg width="300" height="301" viewBox="0 0 300 301" fill="none" xmlns="http://www.w3.org/2000/svg">
<path d="M12 3.90078C12 7.00078 12.8 8.60078 16.1 12.4008C19.9 16.7008 20.1 17.3008 18.7 18.7008C17.3 20.1008 16.7 19.9008 12.3 16.1008C8.5 12.9008 6.5 12.0008 3.7 12.0008C0 12.0008 0 12.0008 0 16.2008C0 19.9008 0.6 21.0008 5 25.5008L10 30.6008L8 36.3008C2.7 51.3008 8 73.1008 19.3 82.6008C22 84.9008 23.1 85.2008 28.2 84.8008C33.5 84.4008 34.2 84.6008 36.7 87.2008C38.2 88.7008 38.9 90.0008 38.3 90.0008C37.7 90.0008 36.2 91.6008 35 93.5008C33.4 96.1008 32.9 98.3008 33.1 102.001L33.4 107.001L24.9 115.701C14.4 126.701 12.7 128.901 8.7 136.901C5.7 143.101 5.5 144.101 5.2 156.901C4.8 169.501 5 171.001 7.4 177.301C14.6 196.401 32.6 210.901 55.4 216.001C62 217.401 80 217.401 88.1 216.001C96 214.501 108.4 208.701 116.8 202.401C123 197.801 123.3 197.701 129.8 197.901C137.4 198.101 139.2 197.201 150.5 186.601C153.7 183.501 157 181.001 157.6 181.001C160 181.001 168.7 175.801 172.4 172.201C175.9 168.901 179 163.601 180.4 158.401C180.8 157.301 184.6 152.401 189 147.501C197.4 138.101 199 134.301 197.6 126.701C197 123.701 197.6 122.501 202.6 116.101C207.3 110.101 208.4 107.901 208.8 104.101C209.6 95.6008 203.9 94.4008 198.3 102.001C196.4 104.501 193.6 108.201 191.9 110.301C188.9 114.001 188.7 114.101 187 112.301C185.3 110.601 185.3 110.401 187.6 107.301C189 105.501 191.6 101.101 193.6 97.5008C204.6 76.7008 200.8 50.0008 184.5 33.4008C175.9 24.6008 171 22.6008 158.5 22.5008C145.2 22.5008 141.9 24.1008 129.2 36.4008C119.6 45.7008 119.3 45.9008 117.7 44.0008C116.8 42.9008 116 41.8008 116 41.6008C116 41.3008 119.8 37.4008 124.5 32.8008C136.4 21.3008 140.4 18.9008 152 16.5008C164.3 13.8008 178.9 18.9008 188.6 29.2008C193.4 34.3008 197.1 39.4008 198.9 43.5008C204.9 56.7008 205.2 58.2008 205.7 72.5008C206.2 83.8008 206.6 86.7008 207.9 87.7008C210.3 89.5008 212.5 89.3008 214.6 86.9008C216.3 85.0008 216.5 83.2008 216.5 71.6008C216.5 55.9008 215.3 50.6008 209.2 38.0008C200 19.4008 183.6 6.80078 166.2 5.10078C144.8 3.00078 132.5 7.90078 114.3 25.9008C107.1 32.9008 107 33.0008 101.7 33.0008C97.3 33.0008 95.5 33.6008 92.3 35.9008L88.4 38.8008L86.3 36.6008C84.6 34.8008 84.4 33.5008 84.8 28.5008C85.3 21.4008 83.9 19.1008 75.8 13.7008C63.8 5.90078 49.2 3.70078 36.4 8.00078L30.5 9.90078L25.5 5.00078C21 0.600778 19.9 0.000778016 16.2 0.000778016H12V3.90078ZM63.3 20.1008C68.4 22.7008 73 25.9008 73 26.8008C73 27.2008 70.3 30.4008 67 34.0008C63.6 37.5008 60.7 41.4008 60.4 42.6008C58.8 49.1008 66.1 51.3008 71.7 46.0008C73.5 44.3008 75.1 43.0008 75.4 43.0008C75.8 43.0008 76.9 43.9008 78.1 45.1008L80.2 47.2008L74.9 52.7008C50.3 77.7008 47.6 80.2008 46.1 79.3008C42.2 76.8008 42.4 75.3008 47.5 70.3008C57 61.2008 58.7 57.8008 55.4 54.6008C51.9 51.0008 48.9 52.5008 38 63.1008C26.4 74.4008 26.4 74.4008 21.8 66.7008C18.6 61.2008 16.6 51.4008 17.5 45.6008C19 36.5008 27.2 25.0008 35 20.9008C43.6 16.5008 55.5 16.2008 63.3 20.1008ZM168.2 35.6008C179.9 41.7008 188 56.3008 188 71.6008C188 81.1008 185.9 88.1008 180.6 96.5008L177 102.101L171.2 101.501C168 101.101 164.3 101.301 162.8 101.901C161.3 102.401 156 106.501 151 111.001C146 115.401 141.3 119.001 140.6 119.001C140 119.001 137.3 116.801 134.7 114.201L129.9 109.401L131.1 104.001C133 95.3008 131.7 84.1008 127.9 76.4008C124.9 70.3008 124.8 69.9008 126.4 67.6008C127.4 66.0008 128 63.0008 128 59.8008V54.5008L136.3 46.3008C147.3 35.4008 149.8 34.0008 158.3 34.0008C162.6 34.0008 166.2 34.6008 168.2 35.6008ZM103.2 46.3008C104.7 47.5008 101.7 50.8008 76.2 76.3008C53.5 98.9008 47.2 104.801 46.2 103.801C45.5 103.101 45 102.001 45 101.301C45 99.7008 99.1 45.0008 100.6 45.0008C101.1 45.0008 102.3 45.6008 103.2 46.3008ZM115.5 59.1008C116.1 60.9008 111.9 65.6008 88.2 89.3008C63.9 113.601 59.9 117.201 58.6 116.101C57.7 115.301 57 114.401 57 114.001C57 113.001 113 57.0008 114 57.0008C114.5 57.0008 115.2 58.0008 115.5 59.1008ZM118.3 83.5008C120.4 87.9008 120.6 99.7008 118.6 104.501C117.8 106.301 115.3 109.901 113 112.401C105.4 120.601 93.4 123.101 83.5 118.601L78.5 116.301L96.5 98.1008C106.3 88.2008 114.9 80.0008 115.5 80.0008C116.1 80.0008 117.4 81.6008 118.3 83.5008ZM172.4 114.501C174.3 116.001 174.3 116.101 171 119.401L167.7 122.901L163.7 120.901L159.7 118.801L162.9 115.901C166.4 112.701 169.5 112.301 172.4 114.501ZM36.4 129.301C26.1 140.001 23.2 144.901 24.9 148.601C25.7 150.501 26.7 151.001 29.9 151.001C33.2 151.001 34.2 150.501 36.1 147.701C37.4 146.001 42 140.801 46.4 136.201L54.4 128.001H60.3C64.6 128.001 66.9 127.501 68.2 126.301C69.8 124.901 70.4 124.801 72.1 125.801C80 130.701 82.1 131.301 92.9 131.401C98.7 131.501 104.7 131.201 106.2 130.701C109 130.001 110 130.701 116.9 138.301C119.1 140.701 119.2 141.101 117.7 143.301C116.9 144.601 113.2 148.801 109.6 152.601C102.1 160.601 100.5 164.101 101.4 171.501C102 176.601 101.9 176.901 98.7 179.201C91.4 184.801 79.7 189.001 71.5 189.001C56.6 189.001 39.1 178.401 34.6 166.601L32.8 161.901L28.1 162.201C23.6 162.501 23.5 162.601 23.2 166.201C22.7 172.601 28.7 182.001 37.6 188.801C49.4 197.801 63.9 201.401 80.2 199.401C88.9 198.301 99.3 193.901 106.6 188.301C109.7 186.001 110.3 185.901 111.6 187.201C113.7 189.301 112.7 191.001 106.7 195.101C95.8 202.701 85.4 205.901 72 206.001C57.8 206.001 49.3 203.401 37.5 195.601C22.8 185.901 15.9 173.901 15.9 158.501C15.9 145.701 19.5 138.401 32.4 125.201C41.4 116.001 41.4 116.001 43.4 117.901C45.3 119.901 45.3 120.001 36.4 129.301ZM126 122.501C127.9 124.501 128.1 125.201 127 126.501C125.3 128.501 124.2 128.401 121.5 125.801C119.3 123.701 119.3 123.401 120.7 121.801C122.8 119.501 123.2 119.501 126 122.501ZM185.2 127.701C187 131.001 186.4 133.401 182.7 136.901L180.2 139.201L178.2 135.401L176.2 131.501L179.3 128.201C181 126.501 182.7 125.001 183 125.001C183.3 125.001 184.3 126.201 185.2 127.701ZM162.3 134.301C172.9 143.001 171.8 159.301 160.2 167.001C155.3 170.201 146.7 170.901 141.7 168.501C134.4 165.101 129 156.701 129 148.701C129 143.101 135.7 133.501 141.5 130.901C142.6 130.401 146.7 130.101 150.6 130.301C157.2 130.501 158.1 130.801 162.3 134.301ZM121.2 164.401C122.8 167.801 122.8 167.801 119.6 170.901C117.9 172.601 116.1 174.001 115.7 174.001C115.4 174.001 114.3 172.901 113.4 171.501C111.9 169.201 111.9 168.801 113.3 166.601C115.2 163.701 117.9 161.001 118.8 161.001C119.2 161.001 120.3 162.601 121.2 164.401ZM139 180.901C138.9 181.901 131.8 187.001 130.4 187.001C129.8 187.001 128.2 186.101 126.9 185.101L124.5 183.101L127.8 179.701L131.1 176.301L135.1 178.301C137.2 179.301 139 180.501 139 180.901Z" fill="#EC1515"/>
<path d="M241.6 47.6C239.6 49.6 239.3 68.9 241.2 70.8C242.8 72.4 262.2 72.4 263.8 70.8C264.6 70 265 66 265 59.4C265 46.1 264.9 46 252.5 46C245.3 46 242.8 46.4 241.6 47.6ZM254 59C254 60.3 253.3 61 252 61C250.7 61 250 60.3 250 59C250 57.7 250.7 57 252 57C253.3 57 254 57.7 254 59Z" fill="#EC1515"/>
<path d="M266.2 81.2003C265.4 82.0003 265 86.8003 265 96.1003C265 107.7 265.2 109.9 266.6 110.4C269.6 111.6 293.5 111.1 294.8 109.8C295.6 109 296 104.4 296 95.9003C296 85.6003 295.7 82.8003 294.4 81.6003C293.2 80.3003 290.4 80.0003 280.1 80.0003C271.6 80.0003 267 80.4003 266.2 81.2003ZM285 96.0003V101H280.5H276V96.0003V91.0003H280.5H285V96.0003Z" fill="#EC1515"/>
<path d="M220.5 95.6C219.1 97 218.9 99.5 219.2 113.7C219.4 126.9 219.8 130.3 221 131C221.8 131.5 229.6 132 238.2 132C251.1 132 254.1 131.7 255.4 130.4C257.8 128.1 257.8 97.9 255.4 95.6C253.1 93.2 222.9 93.3 220.5 95.6ZM246 113V121H238H230V113V105H238H246V113Z" fill="#EC1515"/>
<path d="M276.8 130.4C275.3 131.5 275 133.4 275 142.3C275 155.1 274.9 155 287.5 155C300.1 155 300 155.1 300 142.2C300 135.1 299.6 131 298.8 130.2C297.1 128.5 279.1 128.6 276.8 130.4ZM289 142C289 143.3 288.3 144 287 144C285.7 144 285 143.3 285 142C285 140.7 285.7 140 287 140C288.3 140 289 140.7 289 142Z" fill="#EC1515"/>
<path d="M196.2 145.2C195.5 145.9 195 147.6 195 149C195 152.2 203.4 162 206.1 162C213.3 162 214.1 155.6 207.9 148.6C204.6 145 203.1 144 200.6 144C198.8 144 196.9 144.5 196.2 145.2Z" fill="#EC1515"/>
<path d="M245.6 155.2C243 155.9 239.8 158.1 236.7 161.2L231.8 166.1L227.1 165C224.6 164.3 220.4 163.6 217.8 163.3C213.4 162.8 213 163 211.8 165.5C210.8 167.7 210.9 168.7 212.1 170.8C213.3 173 215 173.9 220.5 175.2C228 177.1 230 178.8 230 183.2C230 186.8 233.5 193.8 236.8 196.9C240.8 200.6 247 203 252.8 203C257.9 203 258.2 203.1 259.6 206.6C261.1 210.1 261.1 210.2 257.9 213.4C251.6 219.9 249.4 230.9 252.6 239.1L254.3 243.2L248.7 248.8C243.1 254.3 243 254.4 239.7 253.2C231.3 250.2 218.4 252.6 213 258.3C210.2 261.3 209.2 261.5 205.7 259.9C203.6 259 203.2 257.9 202.7 252.4C201.5 239.6 194.1 231.7 181.9 230.3C179.2 230 177 229.2 177 228.6C177 228 176 224.2 174.8 220.2C172.5 212.4 170.6 210.4 166.4 211.4C162.1 212.5 161.6 215.3 164 224.2L166.1 232.2L162.3 235.5C160.2 237.3 157.4 240.9 156.1 243.4C154.1 247.4 153.8 249.3 154.2 256C154.5 262.8 154.9 264.4 157.5 268.1C162.5 275.2 167.6 278.2 175.9 278.8C184.2 279.4 190.2 277.5 195.5 272.8C198.1 270.6 199.4 270.1 201.5 270.6C204.8 271.4 206 273.8 206 279.5C206 286.8 210.3 293.4 218.2 298.3C221.8 300.5 237.8 300.7 241.9 298.5C247.2 295.8 252.8 288.3 254 282.3C255.2 276.6 254.7 269.6 252.7 265.3C251.7 263.2 252.1 262.4 256.9 257.6L262.3 252.2L266.3 253.6C270.9 255.2 279 255.4 284.1 254C288.7 252.7 295.6 246.8 298 241.9C299.5 239.1 300 236.1 300 230.5C300 221.5 298.6 218.3 292.4 212.3C287.6 207.7 283.1 206 275.9 206C271.6 206 271.3 205.8 270.3 202.6C269.3 199.5 269.5 198.9 271.6 196.9C276 192.7 278 187.1 278 178.4C278 168.4 276.5 165.7 271.2 166.2L267.5 166.5L267.2 174.9C266.9 184.2 265.2 187.8 260 190.5C251 195.2 240.3 187.5 241.3 177.2C242 170.7 245.7 167.6 256.5 164.4C259 163.6 259.6 162.9 259.8 160C260.4 154.3 255.4 152.6 245.6 155.2ZM282.9 220C289 224.5 290.5 229.9 287.5 236.4C285.8 239.9 279.6 244 276.1 244C269.2 244 263 237.5 263 230.4C263 223.7 269.3 217.2 276.1 217.1C277.5 217 280.6 218.4 282.9 220ZM183 242.6C193.2 246.7 194.7 258.6 185.8 265.1C181 268.5 176.8 268.8 172.2 266C162.6 260.2 163.1 247.8 173.1 242.8C177.3 240.6 177.9 240.6 183 242.6ZM235.6 264.6C240.5 266.9 243.2 271.1 243.2 276.5C243.2 283.7 237.4 289.3 229.9 289.3C220.7 289.3 214.3 279.1 218.4 271.2C222.2 263.8 228.7 261.3 235.6 264.6Z" fill="#EC1515"/>
<path d="M192.5 168.6C190.4 169.4 188.2 170.6 187.8 171.3C186.5 173.3 186.9 177.7 188.5 179C190.3 180.5 197 179.8 202.9 177.4C206.5 176 207 175.4 207 172.6C207 170.8 206.5 168.9 205.8 168.2C204.2 166.6 197.4 166.8 192.5 168.6Z" fill="#EC1515"/>
<path d="M170.6 188.901C168.4 191.301 167 196.401 167 201.801C167 205.401 167.4 206.201 169.5 207.201C173.8 209.101 176.4 207.101 178.3 200.101C180.5 192.401 180.4 190.701 178.2 188.701C175.8 186.501 172.7 186.601 170.6 188.901Z" fill="#EC1515"/>
<path d="M144.7 196.7C144.3 197 144 199 144 201.1C144 204.5 144.6 205.4 149.1 209C154.8 213.5 156.7 213.9 160 211.2C163.1 208.7 162.2 205.4 156.8 200.1C153.4 196.8 151.8 196 148.9 196C147 196 145 196.3 144.7 196.7Z" fill="#EC1515"/>
<path d="M94 221.9C93.5 223 93 230.3 93 238.5C93 246.7 93.5 254 94 255.1C95 256.9 96.3 257 112.4 257C127.3 257 129.9 256.8 130.4 255.4C130.7 254.5 131 246.5 131 237.5C131 223.6 130.8 221.1 129.4 220.6C128.5 220.3 120.5 220 111.5 220C96.3 220 95 220.1 94 221.9ZM120 238.5V247H112H104V238.5V230H112H120V238.5Z" fill="#EC1515"/>
<path d="M46.6 242.6C46.3 243.4 46 248.6 46 254C46 266 46 266 58.7 266C71.2 266 71.1 266 70.8 252.5L70.5 241.5L58.9 241.2C48.9 241 47.1 241.2 46.6 242.6ZM61 253C61 254.3 60.3 255 59 255C57.7 255 57 254.3 57 253C57 251.7 57.7 251 59 251C60.3 251 61 251.7 61 253Z" fill="#EC1515"/>
<path d="M80.6004 267.201C79.4004 268.901 79.0004 272.201 79.0004 281.001C79.0004 297.301 78.7004 297.001 94.8004 297.001C103.8 296.901 108 296.501 109.3 295.601C110.8 294.501 111 292.501 111 281.001C111 269.501 110.8 267.501 109.3 266.401C108 265.501 103.8 265.101 94.8004 265.001C82.8004 265.001 82.0004 265.101 80.6004 267.201ZM100 281.001V286.001H95.0004H90.0004V281.001V276.001H95.0004H100V281.001Z" fill="#EC1515"/>
<path d="M129.4 277.3C129.2 278 129.1 283.3 129.2 289.1L129.5 299.5L140.9 299.8C149.4 300 152.6 299.7 153.2 298.8C154.5 296.7 154.2 278.6 152.8 277.2C151 275.4 130.1 275.5 129.4 277.3ZM143 288.5C143 290.3 142.5 291 141 291C139.5 291 139 290.3 139 288.5C139 286.7 139.5 286 141 286C142.5 286 143 286.7 143 288.5Z" fill="#EC1515"/>
</svg>
