<svg width="53" height="15" viewBox="0 0 53 15" fill="none" xmlns="http://www.w3.org/2000/svg">
<path d="M0 7.50674V15.0002H2.356H4.712V10.5499V6.09974H4.8953C5.0785 6.09974 5.0916 6.12593 5.2814 6.76723C5.3927 7.14033 5.9162 8.84184 6.4463 10.5499C6.9764 12.2581 7.5 13.9596 7.6113 14.3261L7.8076 15.0002H9.483H11.1649L12.4018 10.9884C13.0825 8.78954 13.6911 6.79994 13.7631 6.57094C13.8809 6.19784 13.9005 6.16514 14.0772 6.16514H14.267V10.5827V15.0002H16.623H18.979V7.50674V0.0133362H16.3809C13.8154 0.0133362 13.7696 0.0198369 13.3377 0.170437C12.6243 0.425637 12.1139 0.864136 11.8128 1.48584C11.7277 1.66254 11.2107 3.40994 10.6544 5.36024C9.6728 8.85494 9.6531 8.91384 9.4895 8.91384C9.339 8.91384 9.3128 8.86804 9.1819 8.40334C9.1034 8.12854 8.6976 6.68874 8.2788 5.21624C7.2709 1.62984 7.2317 1.51854 6.983 1.15204C6.7147 0.759437 6.2369 0.386337 5.7592 0.190037C5.4123 0.0526368 5.3207 0.0460359 2.7029 0.0264359L0 0.00683594V7.50674Z" fill="#50B863"/>
<path d="M21.0078 7.50674V15.0002H23.3638C25.5955 15.0002 25.7329 14.9937 26.0863 14.8628C26.5117 14.7057 27.0484 14.2868 27.3036 13.9138C27.4607 13.6978 28.3966 11.6494 30.3861 7.15993C30.8311 6.15864 30.8704 6.09974 31.034 6.09974H31.2172V10.5499V15.0002H33.5733H35.9293V7.50674V0.00683594L33.4947 0.0264359L31.0536 0.0460358L30.674 0.235836C30.4712 0.340536 30.1505 0.582736 29.9672 0.779036C29.5942 1.17824 29.5942 1.17174 27.4803 5.81834C26.1256 8.80264 26.0733 8.91384 25.9031 8.91384H25.7199V4.46364V0.0133362H23.3638H21.0078V7.50674Z" fill="#4DB560"/>
<path d="M38.0195 10.9096V14.9999H40.3756H42.7316V12.6177V10.229L45.8271 10.2093L48.9161 10.1897L49.3742 10.0195C50.9384 9.45024 52.0837 8.38344 52.6072 6.99604L52.6792 6.81934H45.3494H38.0195V10.9096Z" fill="#4DB560"/>
<path d="M48.3008 3.0824V6.1649H50.5848H52.8688L52.9081 6.0144C52.9932 5.6806 52.9474 4.424 52.823 3.907C52.4762 2.4672 51.5861 1.322 50.251 0.582399C49.8976 0.386099 49.0207 0.0980993 48.6018 0.0457993L48.3008 0V3.0824Z" fill="#0077C7"/>
<path d="M44.3672 3.08274V6.15874L46.3305 6.16524L48.2939 6.17173V3.09584V0.026535L46.3305 0.0134354L44.3672 0.00683594V3.08274Z" fill="#0376C7"/>
<path d="M37.3672 0.123896C37.3672 0.568896 37.9496 2.02179 38.4405 2.78099C39.5203 4.46289 41.4313 5.7195 43.4405 6.0663C43.7481 6.1187 44.0818 6.1645 44.18 6.1645H44.3698V3.0886V0.0126953H40.8685C37.629 0.0126953 37.3672 0.0191956 37.3672 0.123896Z" fill="#0178C8"/>
</svg>
