<svg xmlns="http://www.w3.org/2000/svg" width="180" height="180" viewBox="0 0 180 180" fill="none">
  <path d="M39.5192 4.38224C38.4443 6.86272 37.3695 8.8471 37.0387 8.8471C36.7907 8.8471 35.7158 7.52418 34.7236 5.87053C33.318 3.6381 32.4085 3.05932 31.0856 3.39005C30.1761 3.55542 25.2978 4.38224 20.2542 5.20907C15.2932 5.95321 11.0764 6.69736 10.911 6.78004C10.8284 6.86272 12.7301 12.5678 15.2932 19.3478L19.9234 31.7502L13.0608 41.5894C3.9657 54.5706 2.89083 56.3896 1.31986 61.6813C-4.05451 80.0368 7.52106 99.3845 26.29 103.601C48.6143 108.562 68.7889 93.1007 68.7889 71.1071C68.7889 61.1852 66.9698 57.2164 52.7484 37.0419L49.0277 31.6675L53.4099 18.4383C55.8904 11.1622 57.8748 4.96102 57.8748 4.63029C57.8748 4.29956 54.154 3.14201 49.6892 2.06713L41.4209 6.86646e-05L39.5192 4.38224ZM50.5987 7.93759C50.9294 8.26833 49.6892 13.2293 47.7048 19.0171L44.2321 29.6004L34.4756 29.3524L24.6364 29.1043L21.4117 20.8361C19.6754 16.2885 18.1871 12.1544 18.1871 11.6583C18.1871 11.0795 19.9234 10.4181 22.0732 10.17C24.3056 9.83929 27.0341 9.42588 28.1917 9.17783C30.0934 8.8471 30.7549 9.42588 33.8968 14.2215C35.7985 17.198 37.5348 19.5958 37.7002 19.5958C37.8656 19.5958 39.5192 16.6193 41.3382 12.8986C44.7282 6.28394 44.7282 6.28394 47.3741 6.78004C48.8624 7.11077 50.268 7.60686 50.5987 7.93759ZM52.1697 45.3928C62.0089 59.4488 63.9933 64.0791 63.4972 72.5127C63.0011 80.4502 60.686 85.4939 54.8982 91.2816C49.0277 96.9867 43.6534 98.9711 34.0622 98.9711C27.861 98.9711 26.2073 98.6404 21.9078 96.5733C15.7893 93.6794 10.663 88.7185 7.68642 82.6827C5.8674 78.7966 5.45399 76.8949 5.45399 71.3551C5.37131 62.9215 6.94228 59.5315 17.0296 45.0621L24.3883 34.4787H34.4756H44.5629L52.1697 45.3928Z" fill="#FF0000" fill-opacity="0.4"/>
  <path d="M32.2432 49.7749V52.6688H27.6956H23.1481V58.2912C23.1481 66.8902 25.4632 69.1227 34.7236 69.9495C40.098 70.4456 40.098 70.4456 40.3461 73.0914L40.5941 75.8199H35.137C31.0856 75.8199 29.5973 75.4892 29.2666 74.5797C28.6051 72.9261 23.1481 72.8434 23.1481 74.497C23.1481 76.4814 26.4554 79.8714 29.3493 80.8636C31.8297 81.7731 32.2432 82.2692 32.2432 84.667C32.2432 87.1475 32.4912 87.3955 34.7236 87.3955C37.0387 87.3955 37.2041 87.1475 37.2041 84.5016V81.6077H41.3382H45.4724V75.7373C45.4724 72.5126 45.059 69.2053 44.5629 68.2131C43.3226 65.9807 38.8578 64.2444 34.0622 64.2444C29.5146 64.2444 27.861 63.0041 28.2744 59.9449C28.5224 58.2086 29.0185 58.0432 33.2353 57.7951C37.1214 57.6298 38.279 57.8778 39.6846 59.2834C41.917 61.5159 45.4724 61.5159 45.4724 59.2834C45.4724 57.1337 42.1651 53.7437 39.3539 52.9995C37.5348 52.5861 37.2041 52.0074 37.2041 49.6922C37.2041 47.1291 36.9561 46.881 34.7236 46.881C32.4085 46.881 32.2432 47.1291 32.2432 49.7749Z" fill="#FF0000" fill-opacity="0.4"/>
  <path d="M75.2382 4.21664C75.2382 7.52394 75.4862 7.93736 77.884 8.92955C81.9354 10.5832 89.6249 18.7688 92.1054 24.0605C94.5032 29.1041 95.9088 35.2226 95.9088 40.7623V44.3177L90.4518 44.5657L85.0774 44.8138L95.8261 59.2006C101.779 67.1381 106.74 73.7527 106.906 73.9181C107.236 74.2488 128.982 45.5579 128.982 44.8138C128.982 44.5657 126.584 44.4004 123.607 44.4004H118.233V39.6048C118.15 19.1822 99.6295 0.578606 79.2069 0.578606H75.2382V4.21664ZM93.9244 9.67369C100.456 12.8156 106.823 19.5956 110.13 26.8717C112.28 31.5846 112.776 33.6516 113.107 40.845L113.52 49.2787L116.249 49.5267L118.977 49.7747L113.189 57.3815C110.048 61.5984 107.319 65.071 107.154 65.071C106.988 65.071 104.177 61.5157 100.952 57.2162L95.082 49.3613H97.9759H100.87V41.6719C100.87 28.4426 97.2317 19.1822 88.7154 10.5832C84.664 6.53175 84.4159 6.20103 86.5657 6.69712C87.8059 7.02785 91.1132 8.35077 93.9244 9.67369Z" fill="#FF0000" fill-opacity="0.4"/>
  <path d="M100.87 82.5172C88.4673 84.915 78.38 95.4157 75.9822 108.397C74.5766 116.334 76.809 125.843 81.77 132.458L84.1678 135.682L82.5141 138.824C81.4392 140.808 81.0258 142.71 81.3566 144.033C81.6873 145.191 81.6873 146.1 81.4392 146.1C81.2739 146.1 78.4627 142.627 75.238 138.411C72.0961 134.111 68.5408 130.225 67.3832 129.729C66.2256 129.15 63.1664 128.737 60.6859 128.737C56.7171 128.737 55.8076 129.068 53.1618 131.465C50.5986 133.863 50.1025 134.855 49.7718 138.741C49.4411 143.289 49.4411 143.289 56.1384 153.128C64.0759 164.952 67.962 169.169 73.3363 171.814L77.3051 173.799L114.347 174.047L151.306 174.295V177.106V180H165.362H179.418V157.262V134.525H165.362H151.306V137.418C151.306 140.312 151.223 140.312 147.751 140.312C145.353 140.312 142.294 139.32 137.911 137.088L131.545 133.946L133.447 131.135C137.085 125.76 138.49 120.551 138.408 113.027C138.408 106.909 138.077 105.172 135.844 100.459C131.628 91.4469 124.352 85.4111 114.512 82.9306C109.138 81.525 106.492 81.4423 100.87 82.5172ZM116.91 89.1318C122.781 91.2816 128.403 96.7386 131.297 102.94C135.514 112.118 133.695 123.362 126.501 131.465L123.855 134.525H116.91H109.965V131.217V127.91H114.099H118.233V122.122C118.233 116.996 117.985 116.086 115.918 113.771C113.933 111.621 112.941 111.208 108.311 110.795C102.193 110.299 100.87 109.554 100.87 106.743C100.87 104.842 101.118 104.759 106.161 104.759C109.799 104.759 111.701 105.172 112.445 105.999C113.768 107.57 118.233 107.653 118.233 106.082C118.233 104.18 114.347 100.046 112.032 99.4672C110.295 99.0537 109.965 98.475 109.965 96.0772C109.965 93.3486 109.799 93.1833 107.071 93.1833C104.342 93.1833 104.177 93.3486 104.177 96.0772V98.9711H100.043H95.9087V104.759C95.9087 109.968 96.1567 110.795 98.3065 113.192C100.374 115.508 101.2 115.838 105.913 116.169C112.032 116.582 113.272 117.327 113.272 120.551C113.272 122.949 113.189 122.949 108.311 122.949C104.342 122.949 103.019 122.618 101.945 121.295C100.456 119.559 95.9087 118.98 95.9087 120.551C95.9087 122.701 98.9679 126.339 101.448 127.166C103.929 127.993 104.177 128.323 104.177 131.3V134.525H97.4797C90.7824 134.525 90.6997 134.525 87.8885 131.548C83.4236 126.752 81.6046 122.453 81.1912 115.425C80.6951 106.247 82.4314 101.617 88.798 95.1677C92.1053 91.943 95.1646 89.7106 97.5623 88.8011C103.019 86.8994 111.453 87.0648 116.91 89.1318ZM65.4815 134.69C66.2256 135.269 69.6156 139.486 73.0056 144.116C82.2661 156.601 81.77 156.353 99.6294 156.684C116.745 156.932 117.241 157.014 120.548 159.743L122.946 161.727L124.765 159.825L126.501 158.006L124.682 156.187C120.548 152.384 118.481 151.888 105.831 151.888C95.4126 151.888 93.5109 151.64 91.1958 150.234C87.8885 148.25 86.6482 145.935 86.979 142.545L87.227 139.899L109.551 139.651L131.958 139.486L136.754 142.379C140.805 144.777 142.376 145.273 146.428 145.273H151.306V157.262V169.334L115.174 169.086C79.6202 168.838 78.8761 168.838 75.5688 167.019C73.6671 166.027 70.9386 163.96 69.5329 162.471C65.2335 157.924 54.5674 141.801 54.5674 139.899C54.5674 136.592 57.6267 133.698 61.0993 133.698C62.753 133.698 64.7374 134.194 65.4815 134.69ZM162.882 142.379C162.882 145.025 163.047 145.273 165.362 145.273C167.677 145.273 167.843 145.025 167.843 142.379C167.843 139.568 167.925 139.486 171.15 139.486H174.457V157.262V175.039H171.15H167.843V163.463V151.888H165.362H162.882V163.463V175.039H159.574H156.267V157.262V139.486H159.574C162.799 139.486 162.882 139.568 162.882 142.379Z" fill="#FF0000" fill-opacity="0.4"/>
  <path d="M11.7378 121.13L0.741028 135.765L6.1154 136.013L11.5724 136.261V140.56C11.5724 150.565 15.7893 160.239 23.5614 168.011C31.1682 175.701 41.0074 180 50.5986 180H54.5674L54.4847 176.445C54.4847 173.137 54.2367 172.807 49.3584 169.665C40.4287 163.712 34.5582 152.797 34.3928 141.553L34.3102 136.592L39.5192 136.344C42.3304 136.178 44.6455 135.93 44.6455 135.682C44.6455 135.269 25.2978 109.224 23.6441 107.487C22.9 106.661 20.1714 109.802 11.7378 121.13ZM28.8531 123.114L34.6409 130.804L31.8297 131.052L28.9358 131.3V138.576C28.9358 151.392 33.0699 161.81 41.3382 169.995C45.6377 174.212 45.7204 174.46 43.4052 173.881C39.2711 172.889 32.8219 169.499 29.0185 166.192C20.9983 159.412 16.5334 148.746 16.5334 136.674V131.217H13.6395H10.7456L16.6161 123.362C19.8407 119.063 22.6519 115.508 22.8173 115.508C22.9826 115.508 25.7112 118.98 28.8531 123.114Z" fill="#FF0000" fill-opacity="0.4"/>
</svg>