<svg width="276" height="300" viewBox="0 0 276 300" fill="none" xmlns="http://www.w3.org/2000/svg">
<path d="M93.5 1.29875C69.8 5.39875 53 10.2988 37.3 17.6988C24.4 23.7988 19 27.4988 11.3 35.3988C2.3 44.6988 0 50.0988 0 62.2988C0 71.3988 0.2 72.3988 3.1 77.5988C4.9 80.6988 6.6 83.3988 6.9 83.6988C7.3 83.9988 8.6 85.5988 9.8 87.3988C11.8 90.2988 12 91.5987 12 106.399V122.199L9 125.399C7.4 127.099 4.7 130.999 3 134.099C0.3 139.299 0 140.599 0 149.299C0 159.899 1.1 162.999 8.1 172.399L12 177.599V193.699V209.799L8.1 214.999C1.1 224.399 0 227.499 0 238.299C0 247.199 0.2 248.399 3.3 253.999C11.7 269.999 31.3 282.499 62.8 292.199C68.1 293.799 70.8 294.399 85 297.399C96.5 299.899 172.5 300.399 185.9 298.199C220.6 292.299 248.3 280.499 263.6 265.199C272.6 256.099 275.4 250.599 275.8 240.499C276.3 231.299 274.6 226.099 268.3 216.899L264 210.599V193.599V176.499L267.4 172.399C273.7 164.699 275.5 160.099 275.8 150.499C276.2 142.399 276 141.399 273 135.399C271.3 131.899 268.6 127.599 266.9 125.799L264 122.599V106.099V89.6988L267.7 84.9988C269.7 82.2988 272.4 77.6988 273.7 74.6988C275.9 69.9988 276.1 68.0988 275.8 60.6988C275.3 50.0988 272.9 44.8988 264.8 36.0988C253.7 24.2988 237 15.0988 214.5 8.69875C203.7 5.49875 200.1 4.69875 186 1.99875C174.2 -0.20125 105.4 -0.80125 93.5 1.29875ZM165.2 27.1988C202 31.4988 230.6 41.4988 243.6 54.6988C251.1 62.2988 249.6 66.2988 236 75.1988C225.2 82.2988 211.9 87.5988 195 91.5988C173.4 96.7988 160.4 97.9987 131.5 97.3987C106.3 96.8987 99.3 96.0988 78.5 91.1988C52.7 85.1988 27 70.2988 27 61.3988C27 60.4988 29.1 57.4988 31.8 54.7988C36.5 49.7988 52.7 40.5988 61.5 37.7988C81.3 31.5988 87.9 30.0988 105.5 27.6988C122.3 25.4988 147.9 25.1988 165.2 27.1988ZM139.4 153.899C146.6 161.399 163 185.499 168.4 196.599C178.3 216.899 173.4 233.699 154.7 243.799C148.8 247.099 148 247.199 137.9 247.199C127.7 247.199 127 247.099 120.5 243.699C113.1 239.899 108.8 235.499 105 227.999C101.5 221.299 101.5 208.699 105 200.699C107.2 195.799 117.2 177.799 119.2 175.199C119.7 174.599 122.6 170.799 125.8 166.699C131.7 158.999 137 152.699 137.7 152.699C138 152.699 138.7 153.299 139.4 153.899Z" fill="#EC1515"/>
<path d="M73 50.4988C64.3 54.0988 62 56.5988 62 62.7988C62 66.4988 65.4 69.9988 71.7 72.8988C75.6 74.5988 78.5 74.9988 87 75.0988C99.8 75.1988 106.4 73.2988 111 68.0988C116.4 61.8988 114.4 56.2988 105.4 51.6988C98.7 48.3988 80 47.6988 73 50.4988Z" fill="#EC1515"/>
<path d="M128.5 172.399C126.3 176.599 124 180.499 123.5 181.099C122 182.699 114.6 195.599 112.8 199.699C109.1 208.199 108.7 209.899 109.3 215.699C110 223.399 114.1 230.899 120.3 235.899C123 237.999 125.6 239.699 126.2 239.699C127.4 239.699 126.9 235.399 124.5 226.699C121.8 216.499 123.4 205.099 131 181.199C132.6 176.199 134.2 170.499 134.6 168.399C135.7 162.199 132.9 163.899 128.5 172.399Z" fill="#EC1515"/>
</svg>
