<svg width="90" height="91" viewBox="0 0 90 91" fill="none" xmlns="http://www.w3.org/2000/svg">
<rect x="1.41421" y="45.9736" width="61.6396" height="61.6396" transform="rotate(-45 1.41421 45.9736)" stroke="#FF5F31" stroke-width="2"/>
<path d="M33.9934 30.874C33.4888 31.2664 33.0684 31.6308 33.0684 31.6869C33.0684 31.743 34.6381 33.3688 36.5723 35.289L40.0763 38.793L40.9313 37.924C41.6321 37.2232 41.7863 37.0129 41.7162 36.7466C41.604 36.3402 35.4511 30.1732 35.1427 30.1732C35.0306 30.1732 34.512 30.4956 33.9934 30.874Z" fill="white"/>
<path d="M30.5181 33.9295C29.3548 35.1629 29.1025 35.6814 29.2286 36.6485C29.7612 41.0636 33.1391 46.8101 38.381 52.2062C44.0154 58.0368 49.818 61.5268 53.9527 61.6109C55.088 61.6389 55.1721 61.6109 55.7748 61.1904C56.1252 60.9521 56.7559 60.3915 57.1764 59.957L57.9472 59.1721L54.2751 55.5139C51.5279 52.7949 50.5328 51.8838 50.3506 51.9539C49.2714 52.3744 47.141 52.1221 45.5712 51.4073C41.6748 49.5992 38.9837 45.6888 38.8856 41.6803L38.8436 40.2366L35.2274 36.6065C33.2372 34.6022 31.5553 32.9764 31.5132 32.9764C31.4572 32.9764 31.0227 33.4109 30.5181 33.9295Z" fill="white"/>
<path d="M52.7891 49.9078L51.9902 50.7067L55.5643 54.2807C57.6947 56.4112 59.1804 57.7987 59.2505 57.7146C59.9653 56.8737 60.5259 56.1168 60.61 55.8365C60.6941 55.5562 60.3437 55.1497 57.5125 52.3045C55.0037 49.7816 54.2328 49.0949 53.9525 49.0949C53.7002 49.0949 53.3498 49.3331 52.7891 49.9078Z" fill="white"/>
</svg>
