<svg width="300" height="269" viewBox="0 0 300 269" fill="none" xmlns="http://www.w3.org/2000/svg">
<path d="M34.0997 9.9999C33.4997 15.4999 32.9997 22.3999 32.9997 25.1999C32.9997 28.0999 32.5997 35.3999 31.9997 41.3999C30.0997 63.2999 28.6997 87.9999 29.2997 88.5999C29.5997 88.9999 32.3997 88.2999 35.4997 87.0999C38.4997 85.9999 43.5997 83.9999 46.7997 82.8999C49.8997 81.6999 53.8997 80.0999 55.4997 79.4999C57.1997 78.7999 63.9997 75.9999 70.7997 73.3999L83.0997 68.5999L82.5997 58.4999C81.6997 43.9999 79.9997 18.7999 79.1997 8.9999L78.4997 0.499895L56.8997 0.199895L35.2997 -0.000105082L34.0997 9.9999Z" fill="#EC1515"/>
<path d="M152.8 67.6C152.5 77.2 151.8 84.6 151.2 85.2C150.6 85.8 143.5 86.5 134.6 86.8L119 87.3V178.1V269H150.4H181.7L182.3 240.3C182.6 224.4 183.1 210.7 183.5 209.7C184.2 208.1 186.4 208 210 208C233.6 208 235.8 208.1 236.5 209.8C236.9 210.7 237.4 224.4 237.7 240.2L238.3 269H269.1H300V176.2V83.4L297.3 81.8C295.7 80.9 293.4 79.2 292 78C290.6 76.8 288.6 75.1 287.4 74.1C286.3 73.1 282.7 70.4 279.4 68C276.2 65.6 273.3 63.4 273 63C272.7 62.7 270.7 61.1 268.5 59.5C266.3 57.8 264.3 56.3 264 56C262.8 54.6 257.1 51 256.2 51C255.7 51 255 58.3 254.6 67.7C254.2 77 253.5 84.9 253 85.3C252.3 86.1 235.2 73.8 219.4 61C208.7 52.4 206.8 51 205.5 51C204.6 51 204.1 55.3 203.8 67.3C203.6 76.3 203 84.2 202.6 84.9C201.8 86.1 199.7 85.2 195.2 81.5C194.3 80.7 191.3 78.5 188.5 76.4C181.1 70.9 171.9 63.9 168.4 61C162.5 56.3 161.5 55.5 158.3 53.2C156.6 52 154.8 51 154.2 51C153.7 51 153.1 58.1 152.8 67.6ZM170.8 107.2C172.2 108.6 172.5 135.7 171.2 137.8C170.5 138.7 166.6 139 154.9 138.8L139.5 138.5L139.9 123C140.1 112.8 140.6 107.3 141.4 106.8C143.4 105.5 169.5 105.9 170.8 107.2ZM225.2 107.7C226.5 109.2 226.7 111.9 226.2 124.3L225.7 139L210.1 138.8L194.5 138.5L194.2 123.6C194 113.5 194.3 108.3 195.1 107.4C196 106.3 199.5 106 210 106C221.8 106 223.9 106.2 225.2 107.7ZM278.9 106.9C281.6 108.6 283 127.8 281 135.2C280 138.8 279.9 138.9 273.3 139.6C267 140.2 251.6 139.5 249.8 138.4C248.4 137.5 248.8 107.2 250.3 106.7C252.4 105.8 277.4 106 278.9 106.9ZM171.4 157C172.6 158.2 172.9 180.9 171.7 185.2L171 188H155.6H140.2L139.5 178.5C139.1 173.3 139.1 166.1 139.5 162.6L140.1 156.1L144.8 155.7C152.5 154.9 170.2 155.8 171.4 157ZM219.9 155.6L226 156.3L225.8 171.9L225.5 187.5H210H194.5V172V156.5L199.5 155.9C207.1 155 213.1 154.9 219.9 155.6ZM280 156.5C281.1 157.2 281.4 183.8 280.4 186.4C279.9 187.8 277.5 188 264.5 188H249.2L248.5 178.1C248.1 172.6 248.1 165.4 248.5 162.1L249.2 156.1L254.3 155.7C260.8 155.1 278.7 155.7 280 156.5ZM170.3 209.9C171.7 211.3 171.9 240.5 170.5 241.9C168.9 243.5 155 244.3 142.7 243.5L131.2 242.8L130.5 234.4C130.1 229.8 130.1 222.2 130.5 217.5L131.2 209.1L136.9 208.7C147.3 207.9 169.1 208.7 170.3 209.9ZM280.6 208.6L288.8 209.3L289.5 217.6C289.9 222.2 289.9 229.8 289.5 234.4L288.8 242.8L278.8 243.5C273.3 243.9 264.6 243.9 259.5 243.5L250.2 242.8L249.5 234.4C249.1 229.8 249.1 222.2 249.5 217.5L250.2 209.1L255.8 208.7C266.8 208 272.6 208 280.6 208.6Z" fill="#EC1515"/>
<path d="M144 122.5V134H155.5H167V122.5V111H155.5H144V122.5Z" fill="#EC1515"/>
<path d="M198 122.5V134H210H222V122.5V111H210H198V122.5Z" fill="#EC1515"/>
<path d="M253 122.5V134H264.5H276V122.5V111H264.5H253V122.5Z" fill="#EC1515"/>
<path d="M144 172V184H155.5H167V172V160H155.5H144V172Z" fill="#EC1515"/>
<path d="M198.7 160.6C198.3 161 198 166.4 198 172.7V184H210H222.1L221.8 172.2L221.5 160.5L210.4 160.2C204.4 160.1 199.1 160.3 198.7 160.6Z" fill="#EC1515"/>
<path d="M253 172V184H264.5H276V172V160H264.5H253V172Z" fill="#EC1515"/>
<path d="M135 226V239H150.5H166V226V213H150.5H135V226Z" fill="#EC1515"/>
<path d="M254 226V239H269.5H285V226V213H269.5H254V226Z" fill="#EC1515"/>
<path d="M110 62.5C108.6 63.3 106.9 63.9 106.2 64C105.5 64 103.1 64.8 100.7 65.9C96.7 67.7 84.1 72.7 55 84C47.6 86.9 40.2 89.8 38.5 90.5C36.9 91.2 30.6 93.7 24.5 96C18.5 98.3 11 101.3 7.9 102.6C4.8 103.9 1.7 105 1.1 105C0.3 105 0 126.9 0 187V269H57.5H115L114.8 165.3C114.6 97.3 114.2 61.6 113.5 61.4C113 61.2 111.4 61.7 110 62.5ZM58.8 116.1C59.1 119.8 59.7 120.8 62.3 122.5C66.7 125.3 70 130.6 70 134.9C70 137.9 70.5 138.9 73 140.4C82.9 146.2 92.9 161 95.4 173.7C96.7 179.9 96.4 183.1 91.9 206.5C91.4 209.2 90.5 214 89.9 217C88.4 224.8 87.3 229.8 85.9 235.2L84.7 240H56.9H29.1L28.1 236.2C26.9 231.7 22.5 211.8 21 203.5C20.3 200.2 19.4 195.6 18.9 193.3C17.7 187.6 17.8 173.1 19.1 168.9C22.5 158.1 29.1 149 38.8 141.9C43.3 138.4 44 137.5 44 134.5C44 129.2 46.3 125.7 51.8 122.5C54.6 120.8 55 120 55 116.5C55 114.2 55.3 112 55.7 111.6C57.2 110.1 58.5 111.9 58.8 116.1Z" fill="#EC1515"/>
<path d="M50.0996 128.6C46.3996 133.3 47.6996 138.8 53.0996 141.6C58.8996 144.5 64.9996 140.6 64.9996 134C64.9996 128.3 62.7996 126 56.9996 126C52.8996 126 51.7996 126.4 50.0996 128.6Z" fill="#EC1515"/>
<path d="M40.0002 145.7C29.6002 153.8 23.6002 164.2 22.3002 176.1L21.7002 182H56.9002C96.7002 182 92.9002 183 91.0002 173.1C89.4002 164.4 85.5002 157.5 78.2002 150C70.5002 142.3 68.9002 141.7 62.5002 145C57.6002 147.5 55.3002 147.5 51.2002 145C46.8002 142.3 44.2002 142.5 40.0002 145.7Z" fill="#EC1515"/>
<path d="M23 189.1C23 190.9 23.4 193.9 23.9 195.9C25.2 200.9 26.5 207.4 29.1 221.5C30.3 228.1 31.4 234.1 31.6 234.8C31.9 235.7 33.8 236 38.7 235.8C45.3 235.5 45.5 235.4 45.3 233C45.2 231.6 44.7 222.2 44.1 212C43.4 201.9 42.7 191.8 42.3 189.8L41.7 186H32.4H23V189.1Z" fill="#EC1515"/>
<path d="M46.6995 186.7C46.3995 187.2 46.5995 189.7 47.0995 192.5C47.4995 195.2 47.8995 201.5 47.9995 206.5C48.0995 211.4 48.6995 220 49.2995 225.5L50.4995 235.5L56.6995 235.8C64.2995 236.2 63.5995 237.9 64.9995 213.5C65.4995 203.6 66.2995 193.4 66.5995 190.7L67.2995 186H57.1995C51.6995 186 46.8995 186.3 46.6995 186.7Z" fill="#EC1515"/>
<path d="M71.6 188.7C70.9 191.8 69 222.6 69 230.7V236H75.4C81.6 236 81.8 235.9 82.2 233.2C82.5 231.7 84.1 223.5 85.9 215C91.1 189.3 91.3 188.2 90.6 187.1C90.2 186.4 86.4 186 81 186C72.2 186 72.2 186 71.6 188.7Z" fill="#EC1515"/>
<path d="M188 241.5V269H210H232V241.5V214H210H188V241.5Z" fill="#EC1515"/>
</svg>
