<svg width="261" height="300" viewBox="0 0 261 300" fill="none" xmlns="http://www.w3.org/2000/svg">
<path d="M76.7044 4.5C74.1044 7 71.5044 9 70.7044 9C67.1044 9 53.0044 17.3 47.4044 22.7C36.7044 33 31.5044 42.5 28.4044 57.4C26.9044 64.5 26.1044 66.4 24.4044 67C21.3044 68.2 17.2044 73.6 16.4044 77.5C16.1044 79.3 16.3044 82.5 17.0044 84.4C18.2044 88.1 23.1044 93 25.6044 93C27.8044 93 27.5044 102.8 25.1044 105.4C22.2044 108.7 21.0044 113.7 21.0044 122.4C21.0044 132.5 23.2044 137.7 29.0044 141.9C31.3044 143.5 35.1044 145.2 37.4044 145.5C42.8044 146.4 43.3044 146.7 45.8044 151.5C48.8044 157.3 54.5044 163.6 59.6044 166.6L64.1044 169.2L58.8044 174L53.5044 178.7L40.1044 179.4C32.7044 179.7 23.9044 180 20.5044 180C13.9044 180 11.2044 181 6.40443 185C-0.395568 190.8 0.00443213 187.5 0.00443213 245.3C0.00443213 284.6 0.304432 297.9 1.20443 298.8C2.10443 299.7 16.9044 300 61.7044 300H121.004L121.604 297.6C121.904 296.2 121.904 294.2 121.504 293.1C120.904 291.2 120.104 291 110.404 291H100.004V250V209.1L104.304 211.9C122.804 224.3 126.604 226.4 130.304 226.4C136.504 226.5 137.004 225.1 137.004 206.8V191H142.004H147.004V241V290.9L139.804 291.2L132.504 291.5V295.5V299.5L194.904 299.8C240.104 299.9 257.704 299.7 258.604 298.9C260.504 297.3 260.704 227.1 258.804 225.2C257.004 223.4 253.504 223.7 251.704 225.8C250.204 227.4 250.004 231.3 250.004 259.3V291H204.004H158.004V233.5V176H160.504H163.004V229.5C163.004 281.3 163.104 283 164.904 284C167.904 285.5 242.204 285.4 243.804 283.8C244.704 282.9 245.004 269.4 245.004 229.3V176H247.504H250.004V193.3C250.004 212 250.704 215 255.404 215C259.804 215 260.004 213.8 260.004 191C260.004 171.6 259.804 169.1 258.304 167.8C257.004 166.6 253.604 166.1 245.604 165.8C237.304 165.5 234.504 165.1 234.204 164C233.204 161.2 229.004 158 226.304 158C223.904 158 223.204 157.2 221.304 153.1C218.204 145.8 212.504 142 204.904 142C201.704 142 198.004 142.4 196.704 142.9C192.804 144.4 187.104 150.9 186.404 154.6C185.904 157.5 185.404 158 183.004 158C180.004 158 175.004 161.4 175.004 163.4C175.004 165.2 170.504 166 161.004 166C156.704 166 152.404 166.3 151.504 166.6C149.204 167.5 147.004 172.3 147.004 176.5V180H141.204C135.604 180 135.304 179.9 130.204 174.8L124.904 169.5L127.704 167.6C131.504 165 142.004 154.1 142.004 152.8C142.004 152.3 142.904 150.6 144.004 149C145.504 146.9 147.104 146.1 150.504 145.6C156.304 144.7 162.804 139.8 165.804 134C167.804 130.1 168.104 128.4 167.804 121.5C167.504 115 166.804 112.2 164.204 106.9C160.504 99.3 159.904 93 162.904 93C163.904 93 166.404 91.2 168.404 89C171.404 85.6 172.004 84.3 172.004 80.4C172.004 74.6 169.504 70.3 164.804 67.9C161.704 66.3 161.004 65.4 161.004 63.1C161.004 58.1 158.004 47.8 154.204 40C149.204 29.5 137.504 18 126.704 12.7C122.504 10.7 118.404 9 117.604 9C116.804 9 114.104 7 111.604 4.5L106.904 -4.47035e-06H94.1044H81.2044L76.7044 4.5ZM101.904 11.6C104.004 13.1 104.204 13.8 103.704 18.9C101.804 36 99.9044 47.4 98.8044 48.2C95.5044 50.2 88.0044 48.1 88.0044 45.1C88.0044 43.9 85.1044 21.6 84.4044 17.9C83.4044 12.4 86.3044 10 93.8044 10C97.5044 10 100.404 10.6 101.904 11.6ZM74.8044 31.2C76.3044 43.5 77.8044 53.7 78.5044 56.7C79.0044 59 79.3044 59 94.0044 59C102.204 59 109.104 58.6 109.404 58.1C109.704 57.6 110.404 54.1 111.004 50.4C112.004 43.3 115.004 21.9 115.004 21.3C115.004 20.4 118.104 21.3 122.304 23.6C136.304 31 146.904 46.3 149.504 62.7L150.204 67H115.204C76.7044 67 77.6044 66.9 78.2044 73.2L78.5044 76.5L118.204 77C157.604 77.6 161.404 77.9 159.604 80.9C159.104 81.7 139.604 82 94.0044 82C30.5044 82 25.8044 81.8 28.6044 79C29.1044 78.5 37.8044 77.8 48.0044 77.4C59.7044 77 66.8044 76.3 67.2044 75.6C68.4044 73.9 68.1044 69.5 66.8044 68.2C66.0044 67.4 61.3044 67 52.3044 67H39.0044V63.7C39.0044 54.7 48.0044 37.5 56.3044 30.5C61.7044 26 69.9044 21 72.0044 21C73.3044 21 73.9044 23.2 74.8044 31.2ZM41.8044 95.2C41.3044 98.6 38.0044 98.9 38.0044 95.6C38.0044 93.6 38.5044 93 40.1044 93C41.6044 93 42.1044 93.5 41.8044 95.2ZM135.704 115.9C135.004 141.2 134.304 144.2 128.004 151.4C122.404 157.7 117.304 160 106.304 161.1C94.8044 162.3 79.7044 161.5 72.1044 159.4C65.0044 157.4 58.1044 150.6 55.1044 142.7C53.2044 137.4 53.0044 135 53.0044 115V93H94.7044H136.304L135.704 115.9ZM150.004 95.6C150.004 98.7 147.704 98.4 147.204 95.2C147.004 93.7 147.404 93 148.404 93C149.504 93 150.004 93.9 150.004 95.6ZM41.9044 123.7C42.0044 136.6 41.5044 137.2 35.6044 131.6C32.2044 128.5 32.0044 127.8 32.0044 122.3C32.0044 115.8 34.2044 111.6 38.4044 110C41.4044 108.9 41.8044 110.7 41.9044 123.7ZM150.404 110.2C154.504 112 156.204 115.6 156.204 122.3C156.204 128 156.004 128.6 152.604 131.7C150.604 133.5 148.604 135 148.004 135C147.404 135 147.004 130.1 147.004 122C147.004 114.8 147.204 109 147.504 109C147.704 109 149.004 109.5 150.404 110.2ZM207.404 154.1C208.804 154.8 210.104 155.9 210.404 156.6C210.804 157.7 209.504 158 204.504 158C197.604 158 196.604 157.1 200.204 154.6C202.904 152.7 204.104 152.6 207.404 154.1ZM223.004 173.5V178H204.504H186.004V173.5V169H204.504H223.004V173.5ZM109.004 176.8C109.004 181.4 108.704 181.8 101.504 189L94.0044 196.4L87.0044 189.5C80.1044 182.6 80.0044 182.5 80.0044 177.3V172H94.5044H109.004V176.8ZM69.4044 185.2C69.7044 186.9 72.3044 191 75.1044 194.2C77.9044 197.5 80.1044 200.2 79.9044 200.3C79.7044 200.5 77.9044 201.7 76.0044 203.1C74.1044 204.5 70.4044 206.9 67.9044 208.3L63.3044 211L62.7044 199.3C62.2044 187.6 62.2044 187.5 64.9044 184.8C68.2044 181.3 68.6044 181.3 69.4044 185.2ZM126.004 199.2C126.004 205.7 125.704 211 125.304 211C124.504 211 112.304 203.3 109.804 201.2C108.204 199.8 108.404 199.3 113.004 194.3C115.704 191.4 118.404 187.4 119.104 185.6L120.304 182.2L123.204 184.8C126.004 187.5 126.004 187.6 126.004 199.2ZM234.904 234.7L235.004 275H204.504H174.004V235.6C174.004 214 174.304 193.6 174.604 190.2C175.304 184.2 175.304 184.1 177.004 186.3C178.804 188.5 179.304 188.5 204.204 188.5C226.704 188.5 229.804 188.3 231.304 186.8C232.204 185.9 233.104 184.5 233.104 183.8C233.204 183.1 233.604 185.2 234.004 188.5C234.404 191.8 234.804 212.6 234.904 234.7ZM51.0044 206.9V222.9L53.6044 224.9C58.3044 228.6 58.8044 228.3 77.3044 216.2C82.7044 212.7 87.4044 210 87.7044 210.4C88.0044 210.7 88.5044 228.9 88.8044 251L89.3044 291H49.5044H9.70443L10.3044 280.3C10.7044 274.5 11.0044 253.4 11.0044 233.5C11.0044 187.8 9.20443 191.1 34.8044 191H51.0044V206.9Z" fill="#EC1515"/>
<path d="M69.2045 102.2C67.6045 103.8 67.7045 116 69.4045 118.2C70.9045 120.3 76.0045 120.6 77.8045 118.8C79.4045 117.2 79.4045 103.8 77.8045 102.2C77.1045 101.5 75.2045 101 73.5045 101C71.8045 101 69.9045 101.5 69.2045 102.2Z" fill="#EC1515"/>
<path d="M110.704 102.8C108.204 105.5 108.404 116.1 110.804 118.3C113.004 120.3 117.104 120.5 118.804 118.8C120.404 117.2 120.404 103.8 118.804 102.2C117.004 100.4 112.504 100.8 110.704 102.8Z" fill="#EC1515"/>
<path d="M87.7047 111.6C86.5047 112.9 86.9047 130.5 88.2047 131.8C89.8047 133.4 101.205 133.4 102.805 131.8C105.805 128.8 103.105 122 99.0047 122C97.4047 122 97.1047 121.1 96.8047 116.7L96.5047 111.5L92.5047 111.2C90.2047 111 88.1047 111.2 87.7047 111.6Z" fill="#EC1515"/>
<path d="M75.3042 139.1C73.2042 141.2 73.7042 146.4 76.3042 148.8C83.4042 155.5 97.5042 157.1 107.104 152.2C113.204 149.2 115.604 145.7 114.604 141.7C113.604 137.4 109.804 137.1 103.004 140.9C99.8042 142.6 96.1042 144 94.6042 144C91.6042 144 84.9042 141.4 84.0042 139.9C82.9042 138.3 76.6042 137.7 75.3042 139.1Z" fill="#EC1515"/>
<path d="M188.404 200.4C187.104 201.3 185.904 201.5 184.904 200.9C182.904 199.6 178.604 199.8 177.204 201.2C174.704 203.7 175.804 208.4 179.804 212.3C185.104 217.5 188.304 217.3 194.004 211.5L198.404 207L199.504 210.3L200.504 213.5L214.404 213.8C229.604 214.1 233.004 213.1 233.004 208.7C232.904 203.5 231.504 203 215.604 203C202.604 203 200.904 203.2 200.204 204.7C199.704 206.1 199.404 205.6 199.004 203C198.504 199.7 198.204 199.5 194.504 199.2C192.204 199 189.604 199.5 188.404 200.4Z" fill="#EC1515"/>
<path d="M176.405 221.4C176.105 222.2 176.005 224.3 176.205 226.2L176.505 229.5L184.005 229.8C194.905 230.2 196.005 229.8 196.005 225.1C196.005 220.3 195.305 220 184.905 220C179.005 220 176.805 220.4 176.405 221.4Z" fill="#EC1515"/>
<path d="M200.205 221.2C198.805 222.6 198.605 226.9 199.805 228.8C200.505 229.7 204.405 230 216.005 229.8C229.105 229.5 231.405 229.3 232.405 227.8C233.105 226.7 233.105 225.2 232.405 223.3L231.505 220.5L216.505 220.2C205.605 220 201.105 220.3 200.205 221.2Z" fill="#EC1515"/>
<path d="M177.805 237C175.305 239.3 175.505 244.6 177.905 246C180.605 247.4 193.305 247.3 194.805 245.8C196.705 243.9 196.305 238.2 194.305 237.2C193.305 236.7 189.605 236 186.005 235.8C180.805 235.4 179.105 235.6 177.805 237Z" fill="#EC1515"/>
<path d="M200.804 237.1C198.804 238.2 198.504 242.1 200.004 245.1C201.004 246.8 202.304 247 215.704 247C228.404 247 230.404 246.8 231.604 245.2C233.604 242.6 233.304 239.3 230.804 237.6C229.004 236.3 225.704 236 215.504 236C208.404 236 201.704 236.5 200.804 237.1Z" fill="#EC1515"/>
<path d="M176.704 253.7C175.404 254.9 176.004 260.9 177.604 262.4C179.404 264.3 190.904 264.6 194.104 263C196.604 261.6 196.804 254.5 194.404 253.6C192.304 252.8 177.504 252.8 176.704 253.7Z" fill="#EC1515"/>
<path d="M200.205 254.2C198.605 255.8 198.705 260.1 200.405 262.2C201.505 263.8 203.505 264 215.105 264C225.705 264 229.005 263.7 230.805 262.4C233.205 260.8 233.605 258 232.005 254.9C231.005 253.2 229.705 253 216.205 253C206.005 253 201.005 253.4 200.205 254.2Z" fill="#EC1515"/>
</svg>
