<svg width="300" height="299" viewBox="0 0 300 299" fill="none" xmlns="http://www.w3.org/2000/svg">
<path d="M84.5 76.1001C42.7 118 7.8 152.9 6.9 153.9C6 154.8 4.1 157.3 2.6 159.4C0.3 162.9 0 164.2 0 172.7V182.2L22.3 204.8C69.6 252.8 111.5 293.9 115.2 295.9C120.2 298.6 134.9 298.9 140.8 296.5C143.3 295.4 168.3 271.1 222.2 217.2L300 139.5V134.9C300 130.8 299 127.1 296 120.5C293.1 114 291 109 291 108.6C291 108.3 289.7 105.2 288.1 101.8C286.5 98.3001 282.2 88.5001 278.5 80.0001C274.8 71.5001 270.7 62.2001 269.5 59.5001C264.7 48.5001 264.1 50.7001 275.1 39.4001C284.9 29.3001 285 29.3001 285 24.3001C285 18.8001 282.8 15.8001 277.8 14.6001C273.4 13.6001 269.9 15.7001 260 25.6001L250.4 35.0001L246.5 33.1001C244.3 32.1001 239.1 29.8001 235 28.0001C230.9 26.3001 225.7 24.0001 223.5 23.0001C221.3 21.9001 208.5 16.4001 195.1 10.6001C174.6 1.70007 169.8 6.87997e-05 165.6 6.87997e-05H160.5L84.5 76.1001ZM172.6 22.9001C173.1 23.3001 179.6 26.3001 187 29.5001C194.4 32.6001 203.4 36.6001 207 38.2001C210.6 39.8001 216.2 42.3001 219.5 43.7001C222.8 45.0001 227.6 47.2001 230.2 48.4001L235 50.6001L229.2 56.3001C223.6 61.8001 223.3 62.0001 220 61.0001C210.1 58.2001 198.1 61.2001 191.3 68.2001C185.6 74.1001 183.5 79.7001 183.6 89.0001C183.6 100.3 188.3 108.1 198.2 113.5C202.8 116.1 204.5 116.5 211.5 116.4C220.3 116.4 224.9 114.7 231.4 109C238.1 103.1 241.5 90.4001 239 81.1001L237.8 76.7001L243.4 71.1001C246.4 68.1001 249.2 65.9001 249.6 66.2001C250.6 67.3001 278 130.1 278 131.5C278 132.1 244.9 165.6 204.5 205.8C143.7 266.4 130.6 279 128.4 279C126.1 279 116.3 269.7 72.2 225.4L18.7 171.9L45.1 145.2C125.3 64.0001 167.8 22.0001 169.6 22.0001C170.7 22.0001 172 22.4001 172.6 22.9001ZM216.3 82.4001C220.2 86.0001 220.8 89.6001 217.9 92.6001C212.8 98.1001 208.4 98.0001 204.9 92.4001C202.5 88.5001 203 85.8001 206.8 82.3001C210 79.3001 213 79.4001 216.3 82.4001Z" fill="#EC1515"/>
<path d="M93.8999 122.9C89.4999 127.3 89.7999 132.7 94.7999 138.2C99.4999 143.5 104.5 148.5 109.8 153.2C115 157.9 120.3 158.4 124.7 154.6C127.1 152.5 127.5 151.4 127.5 147.1V142L116.4 131C105.8 120.5 105.1 120 101 120C97.6999 120 96.1999 120.6 93.8999 122.9Z" fill="#EC1515"/>
<path d="M178.5 140.2C177.2 141 173.1 141.3 167.4 141.1C157.1 140.8 153.5 141.9 147.6 147C138 155.5 137.4 165.9 145.4 185.4C147.4 190.1 149 194.4 149 195C149 195.5 147.8 197.1 146.3 198.5C141.9 202.5 137.6 201.9 132.6 196.7C130.2 194.3 127.9 190.6 127.1 188.1C124.4 178.9 116.3 176.1 110 182C106.9 184.9 106.8 185.3 107.3 190.5C107.6 193.4 108.8 198 109.9 200.6C111.8 204.9 111.9 205.5 110.5 207.6C107.4 212.4 109.6 219.8 114.9 222C118.4 223.4 124.2 222.6 126.4 220.4C127.6 219.3 128.4 219.2 129.9 220C132.8 221.5 146.1 221.2 151 219.5C157.1 217.3 163.4 211.8 166.1 206.3C168 202.5 168.4 199.9 168.4 194C168.3 187.5 167.7 185.1 163.8 175.5C159.6 165.5 159.4 164.3 160.8 162.7C161.6 161.8 163.3 161 164.4 161C167.5 161 172 165.3 173.1 169.3C173.6 171.2 175.2 174 176.6 175.5C178.9 178 179.6 178.2 184.3 177.7C191.6 177 193.4 174.5 192.5 166.5C191.7 159.1 191.7 155.7 192.6 150.1C193.3 145.1 191.9 141.8 188.3 140.1C185.2 138.7 181 138.7 178.5 140.2Z" fill="#EC1515"/>
</svg>
