<svg width="300" height="300" viewBox="0 0 300 300" fill="none" xmlns="http://www.w3.org/2000/svg">
<path d="M0 105.8V211.5L34.8 246.3L69.5 281H130.2H190.8L199.7 286.1C216.1 295.6 224.8 300 227 300C231.2 300 273.3 275.9 280 269.7C288.6 261.7 295.1 251.1 298.4 239.8C299.8 235 300 227.8 300 189.2V144.3L293.9 143.6C290.5 143.3 284.3 143 280.1 143C260.8 143 243.8 133.4 231.7 115.8C230 113.1 227.9 111 227.3 111C226.6 111 225.3 112.2 224.3 113.7C217.7 124 203.9 136.1 196 138.5C194.6 138.9 193.1 139.6 192.5 140C190.8 141.4 180 142.9 166.7 143.6L153.9 144.3L154.2 190.4L154.5 236.5L157.2 243.6C160 251.3 164.8 259.4 170 265.3L173.2 269H126.1H79V260.5V252H110H141V207.5V163H89.5H38V182.5V202H24.5H11V106.5V11H116H221V54V97H227H233V48.5V-4.47035e-06H116.5H0V105.8ZM234.1 137.9C248 149.6 259.1 153.9 276.9 154.7L289.3 155.3L288.7 193.4C288.2 227.5 287.9 232.1 286.2 237C280.3 253.9 274.8 259.4 248.3 274.9L227.7 286.9L219.2 282.4C187.7 265.3 179.5 259.1 172.5 246.6C166.7 236.3 166.1 231.5 165.4 191.8L164.7 156.2L169.1 155.6C171.5 155.3 177.3 154.9 182 154.6C196.2 153.7 209.3 147.9 220.8 137.3C224 134.4 226.6 132.1 226.8 132C227 132 230.3 134.7 234.1 137.9ZM130 207.5V240H104.5H79V221V202H64.5H50V188.5V175H90H130V207.5ZM66.8 234.9C66.7 247 66.2 257.2 65.8 257.5C65.4 257.9 54.9 248.1 42.5 235.6L19.9 213H43.5H67.2L66.8 234.9Z" fill="#EC1515"/>
<path d="M234.3 196.2L203 227.5L195.7 220.2C191.7 216.3 187.8 213 186.9 213C185.3 213 179 219 179 220.6C179 222.1 201.4 244 203 244C204.9 244 275 174 275 172.1C275 170.3 269.1 165 267.1 165C266.2 165 251.4 179.1 234.3 196.2Z" fill="#EC1515"/>
<path d="M268.8 211.7C268.5 231.4 268.5 231.5 265.6 236.5C264 239.2 260.3 243.8 257.3 246.6L251.9 251.8L254.7 256.4C256.2 258.9 258 261 258.7 261C260.4 261 269.5 253.6 272.4 249.7C273.8 247.9 276.2 243.7 277.7 240.4C280.4 234.6 280.5 234 280.8 213.2L281.1 192H275.2H269.2L268.8 211.7Z" fill="#EC1515"/>
<path d="M57 188.5V194H89.5H122V188.5V183H89.5H57V188.5Z" fill="#EC1515"/>
<path d="M86.7 201.7C86.3 202 86 204.7 86 207.7V213H104.3H122.5L122.2 207L121.8 201H104.6C95.1 201 87 201.3 86.7 201.7Z" fill="#EC1515"/>
<path d="M86 227V233H104H122V227V221H104H86V227Z" fill="#EC1515"/>
<path d="M29 33.5V49H116.5H204V33.5V18H116.5H29V33.5ZM193 33.5V37H116.5H40V33.5V30H116.5H193V33.5Z" fill="#EC1515"/>
<path d="M29 72.5V78H107H185V72.5V67H107H29V72.5Z" fill="#EC1515"/>
<path d="M193 72.5V78H198.5H204V72.5V67H198.5H193V72.5Z" fill="#EC1515"/>
<path d="M29 91.5V97H107H185V91.5V86H107H29V91.5Z" fill="#EC1515"/>
<path d="M193 91.5V97H198.5H204V91.5V86H198.5H193V91.5Z" fill="#EC1515"/>
<path d="M29 111V117H107H185V111V105H107H29V111Z" fill="#EC1515"/>
<path d="M193 111V117H198.5H204V111V105H198.5H193V111Z" fill="#EC1515"/>
<path d="M29 130.5V136H75.5H122V130.5V125H75.5H29V130.5Z" fill="#EC1515"/>
<path d="M130 130.5V136H135.5H141V130.5V125H135.5H130V130.5Z" fill="#EC1515"/>
<path d="M29 149.5V155H75.5H122V149.5V144H75.5H29V149.5Z" fill="#EC1515"/>
<path d="M130 149.5V155H135.5H141V149.5V144H135.5H130V149.5Z" fill="#EC1515"/>
</svg>
