<svg width="300" height="280" viewBox="0 0 300 280" fill="none" xmlns="http://www.w3.org/2000/svg">
<path d="M0 140V280H14.4C24.9 280 29 279.7 29.8 278.7C30.4 278 31 273.8 31.2 269.5L31.5 261.5H150H268.5L268.8 269.5C269 273.8 269.6 278 270.2 278.7C271 279.7 275.1 280 285.6 280H300V140V-4.17233e-06H285.7C275.9 -4.17233e-06 271 0.399996 270.2 1.2C269.3 2.1 269 16.7 269 60.7V119H258.1H247.3L246.6 115.2C246.3 113.2 246 95.7 246 76.3C246 42.5 245.9 41 244.1 40C242.8 39.4 227 39 199.7 39C159.9 39 157.2 39.1 155.7 40.8C154.2 42.5 154 46.7 154 80.8V119H150H146V80.6C146 47 145.8 41.9 144.4 40.6C143 39.2 137.7 39 100.4 39C73 39 57.2 39.4 55.9 40C54.1 41 54 42.5 54 76.3C54 95.7 53.7 113.2 53.4 115.2L52.7 119H41.9H31V60.7C31 16.7 30.7 2.1 29.8 1.2C29 0.399996 24.1 -4.17233e-06 14.3 -4.17233e-06H0V140ZM19 140V269H15H11V140V11H15H19V140ZM289 140V269H285H281V140V11H285H289V140ZM84 59.2C84 63.8 84.5 68.2 85 69C85.7 70.2 88.8 70.6 99.3 70.8C116.1 71.2 116 71.3 116 59.4V51H125H134V85V119H100H66V85V51H75H84V59.2ZM104 55V59H100H96V55V51H100H104V55ZM184 59.4C184 71.3 183.9 71.2 200.7 70.8C211.2 70.6 214.3 70.2 215 69C215.5 68.2 216 63.8 216 59.2V51H225H234V85V119H200H166V85V51H175H184V59.4ZM204 55V59H200H196V55V51H200H204V55ZM269 190V249H258.1H247.3L246.6 245.3C246.3 243.2 246 225.7 246 206.5C246 180.5 245.7 171.1 244.8 170.2C243.3 168.7 158.4 168.5 156 170C154.7 170.8 154.5 176.6 154.2 210L153.9 249H150H146.1L145.8 210C145.5 176.6 145.3 170.8 144 170C141.6 168.5 56.7 168.7 55.2 170.2C54.3 171.1 54 180.5 54 206.4C54 225.7 53.7 243.2 53.4 245.3L52.7 249H41.9H31V190V131H150H269V190ZM84 190C84 197.8 84.2 199.1 85.9 200C87 200.5 93.5 201 100.4 201C116 201 116 201 116 189.4V181H125H134V215V249H100H66V215V181H75H84V190ZM104 185V189H100H96V185V181H100H104V185ZM184 189.4C184 201 184 201 199.6 201C206.5 201 213 200.5 214.1 200C215.8 199.1 216 197.8 216 190V181H225H234V215V249H200H166V215V181H175H184V189.4ZM204 185V189H200H196V185V181H200H204V185Z" fill="#EC1515"/>
</svg>
