<svg width="26" height="25" viewBox="0 0 26 25" fill="none" xmlns="http://www.w3.org/2000/svg">
<path d="M19.3712 24.4151L13.3702 22.0147C13.145 21.9247 12.8947 21.9195 12.666 22.0002L5.58616 24.499C4.91194 24.737 4.21308 24.211 4.25506 23.4973L4.66725 16.4902C4.68037 16.2671 4.61838 16.046 4.49116 15.8622L0.774052 10.4931C0.390093 9.93847 0.65413 9.17058 1.29797 8.96938L8.00514 6.87339C8.21782 6.80693 8.40222 6.67133 8.52906 6.48812L12.1494 1.25877C12.5602 0.665428 13.445 0.689275 13.8232 1.30389L16.9863 6.44389C17.1158 6.65436 17.3187 6.80942 17.5558 6.87916L24.5687 8.94177C25.2621 9.14572 25.5168 9.99531 25.0499 10.5471L20.5709 15.8405C20.405 16.0365 20.3209 16.2888 20.336 16.5451L20.7409 23.4279C20.7839 24.1594 20.0515 24.6873 19.3712 24.4151Z" fill="#FF0000"/>
</svg>
