<svg width="210" height="300" viewBox="0 0 210 300" fill="none" xmlns="http://www.w3.org/2000/svg">
<path d="M57.5001 1.86269C37.1001 10.2627 24.6001 33.5627 26.4001 59.7627C27.6001 78.4627 32.3001 90.7627 42.2001 101.263C52.3001 112.063 62.9001 116.763 77.5001 116.763C92.0001 116.763 102.7 112.063 112.7 101.463C121.7 91.7627 124.8 84.3627 128.6 62.9627C129 60.9627 129.6 60.7627 136.3 60.7627C145.7 60.7627 148 59.3627 148 53.2627C148 49.7627 147.5 48.4627 145.4 46.8627C142.8 44.7627 141.8 44.7627 92.7001 44.7627H42.8001L43.4001 41.5627C45.2001 32.3627 54.0001 21.0627 62.5001 17.1627C66.8001 15.1627 69.1001 14.7627 78.3001 14.7627C87.8001 14.7627 89.6001 15.0627 93.8001 17.2627C99.4001 20.1627 103.5 23.7627 107.9 29.4627C110.8 33.2627 111.7 33.7627 115.1 33.7627C122.2 33.7627 124.8 28.4627 121.4 21.2627C119 16.1627 107.8 6.06269 101.3 2.96269C95.8001 0.362694 94.6001 0.262694 79.0001 0.0626936C64.3001 -0.137306 61.9001 0.0626936 57.5001 1.86269ZM112.5 64.9627C108.7 87.7627 95.7001 101.063 77.3001 101.063C61.1001 101.063 48.4001 89.7627 43.6001 71.0627C40.6001 59.5627 36.8001 60.7627 77.6001 60.7627H113.2L112.5 64.9627Z" fill="#EC1515"/>
<path d="M63.8 130.763C50.2 133.163 38.9 138.863 29.9 147.763C19.5 158.063 16.8 164.963 11.6 194.763C10.8 199.463 8.9 209.563 7.5 217.263C1.8 247.663 0 259.063 0 264.263C0 272.663 0.2 272.763 26.2 272.763C46.7 272.763 48.1 272.663 50 270.763C52.6 268.163 52.7 261.763 50.2 259.463C48.8 258.163 45 257.663 32.2 257.163C18 256.563 16 256.263 16.5 254.863C16.7 253.963 17.6 249.163 18.5 244.263C21.2 228.263 29.5 184.163 31.1 176.863C32.4 171.163 35.2 165.763 39.3 161.163C42.6 157.263 49.6 151.763 51.2 151.763C51.6 151.763 52 156.263 52 161.763C52 170.863 51.8 171.763 50.1 171.763C47.1 171.763 43.3 175.463 42.7 178.963C42.4 180.763 41.2 187.463 40.1 193.763C32.2 238.063 32.2 239.063 40.2 240.363C46.1 241.363 48.2 238.463 50.3 226.263C52.7 212.963 55.7 196.163 56.5 191.463L57.1 187.763H77.5H97.8L98.5 191.863C99.4 197.163 102 199.763 106.5 199.763C113.5 199.763 115.1 195.663 112.9 182.963C111.6 175.663 108.7 171.763 104.5 171.763H102V161.163V150.563L105.8 152.763C111.6 156.263 119.7 165.463 121.9 171.163C122.9 173.963 124.5 180.263 125.5 185.163C127.8 197.863 129 199.763 134.6 199.763C139.2 199.763 142.2 196.963 142.2 192.763C142.2 188.063 139.3 172.863 137.1 166.463C133.6 155.763 124.5 145.063 113.6 138.863C103.7 133.163 93.7 130.563 80.5 130.163C73.9 130.063 66.4 130.263 63.8 130.763ZM87 158.763V171.763H77.5H68V158.763V145.763H77.5H87V158.763Z" fill="#EC1515"/>
<path d="M93.5004 220.263C91.1004 222.563 91.0004 223.063 91.0004 237.263V251.763H84.0004C77.8004 251.763 76.6004 252.063 74.4004 254.263L71.9004 256.763L72.2004 276.663C72.4004 291.563 72.8004 296.863 73.9004 298.063C75.1004 299.663 81.1004 299.763 141.4 299.763C191.6 299.763 207.9 299.463 208.8 298.563C209.7 297.663 210 291.263 210 276.163C210 255.263 210 254.863 207.8 253.363C206 252.063 202.2 251.763 186.8 251.763H168V237.363C168 224.363 167.8 222.763 165.9 220.363L163.9 217.763H129.9H95.9004L93.5004 220.263ZM153 242.263V251.763H130H107V242.263V232.763H130H153V242.263ZM134 275.763V284.763H111H88.0004V275.763V266.763H111H134V275.763ZM195 275.763V284.763H172H149V275.763V266.763H172H195V275.763Z" fill="#EC1515"/>
</svg>
