<svg xmlns="http://www.w3.org/2000/svg" width="40" height="24" viewBox="0 0 40 24" fill="none">
  <path d="M39.8055 2.58429C39.5477 2.03752 37.9074 0.428423 37.3762 0.194089C36.8529 -0.0402445 36.103 -0.0402445 35.5797 0.194089C35.2516 0.33469 33.955 1.60009 27.5889 7.95835L19.9965 15.5508L12.3572 7.9271C3.90556 -0.524534 4.49921 0.00662225 3.4369 0.00662225C2.65578 0.0144334 2.30428 0.217523 1.28102 1.24078C0.218712 2.30309 0 2.68584 0 3.52163C0 3.93562 0.0468668 4.16214 0.187467 4.45896C0.335878 4.77141 2.14025 6.61483 9.6155 14.0745C17.2157 21.6591 18.9185 23.3228 19.1763 23.4088C19.6762 23.5806 20.5198 23.5415 20.9729 23.3385C21.3009 23.19 22.9022 21.62 30.479 14.0432C40.6022 3.92 39.993 4.59956 39.993 3.52163C39.993 3.10764 39.9461 2.88112 39.8055 2.58429Z" fill="white"/>
</svg>