<svg xmlns="http://www.w3.org/2000/svg" width="36" height="40" viewBox="0 0 36 40" fill="none">
  <path d="M14.6074 0.358902C14.457 0.374031 13.8552 0.426968 13.2739 0.472343C6.70876 0.97905 1.29251 3.00587 0.211999 5.35033C0.0410322 5.71334 0.0410322 5.7436 0.0205161 7.8763L0 10.0317L6.57198 17.2919L13.1371 24.5522V30.7991V37.0535L13.3628 37.4165C13.9714 38.4072 15.5717 39.0349 17.5139 39.0349C19.4561 39.0349 21.0563 38.4072 21.6718 37.4165L21.8907 37.0535V30.7991V24.5522L28.4558 17.2919L35.0278 10.0317L35.0073 7.8763C34.9868 5.7436 34.9868 5.71334 34.8158 5.35033C34.4875 4.647 33.5506 3.77728 32.4428 3.15713C30.1244 1.87146 26.6641 0.963924 22.2326 0.495033C21.1794 0.381592 15.3802 0.275715 14.6074 0.358902ZM21.8223 2.95293C25.9392 3.39157 29.1739 4.20079 31.2255 5.30495C31.964 5.70578 32.5932 6.1898 32.5932 6.36374C32.5932 6.53769 31.964 7.02171 31.2255 7.42253C29.1397 8.54182 25.7887 9.37373 21.6855 9.78212C20.3383 9.91825 14.6895 9.91825 13.3423 9.78212C9.23907 9.37373 5.88811 8.54182 3.80231 7.42253C3.06373 7.02171 2.43457 6.53769 2.43457 6.36374C2.43457 6.1898 3.06373 5.70578 3.80231 5.30495C5.90179 4.1781 9.60152 3.27057 13.3423 2.96049C13.8894 2.92268 14.457 2.86974 14.6074 2.85462C15.1887 2.79412 21.0768 2.87731 21.8223 2.95293Z" fill="white"/>
</svg>