<svg xmlns="http://www.w3.org/2000/svg" width="171" height="25" viewBox="0 0 171 25" fill="none">
  <path d="M12.54 0.135452C12.4288 0.204929 12.2829 0.323038 12.2204 0.392515C12.1578 0.46199 11.2269 1.94878 10.143 3.68569C9.06616 5.42259 8.16992 6.86075 8.15602 6.87464C8.14212 6.88854 6.45385 7.31234 4.4043 7.81952C1.97959 8.41702 0.617852 8.78524 0.499742 8.87556C0.0203566 9.22989 -0.139439 9.86212 0.131519 10.3207C0.207942 10.4527 1.36125 11.8561 2.68824 13.4262L5.09907 16.2887L4.842 19.9779C4.6961 21.9996 4.578 23.7851 4.58494 23.9449C4.58494 24.5146 5.21718 25.0635 5.77993 24.994C5.91889 24.9732 7.628 24.3132 9.56639 23.5281L13.0958 22.0899L16.6043 23.5211C18.5358 24.3062 20.224 24.9662 20.363 24.9871C20.6965 25.0427 21.1898 24.8273 21.3982 24.5216C21.5163 24.3618 21.5719 24.1742 21.5858 23.9102C21.5997 23.6948 21.4885 21.8954 21.3426 19.9084L21.0716 16.2956L23.545 13.3637C24.9067 11.7519 26.06 10.3207 26.1156 10.1887C26.3171 9.67453 26.0183 8.96588 25.5181 8.77134C25.407 8.72966 23.7326 8.2989 21.7803 7.81952C19.835 7.34013 18.1814 6.93022 18.1189 6.90243C18.0494 6.86769 17.1046 5.4087 16.0138 3.65095C14.9161 1.8932 13.9712 0.399462 13.9086 0.323038C13.603 -0.0104485 12.929 -0.107714 12.54 0.135452ZM15.8957 5.71439C16.5557 6.77043 17.1879 7.71531 17.2991 7.80562C17.4658 7.95152 18.1745 8.14606 21.2245 8.8964C23.274 9.40358 24.9415 9.84128 24.9276 9.86212C24.9137 9.88991 23.8437 11.1752 22.5445 12.7106C21.2453 14.253 20.1198 15.6078 20.0503 15.719C19.8767 15.9969 19.8767 16.0594 20.1823 20.2419C20.3213 22.1525 20.4186 23.7226 20.4047 23.7435C20.3838 23.7574 18.7859 23.1321 16.8475 22.347C14.5617 21.416 13.2486 20.9158 13.0819 20.9158C12.9221 20.9158 11.6159 21.416 9.33017 22.34C7.39873 23.1251 5.80078 23.7574 5.77993 23.7365C5.76604 23.7157 5.87025 22.0205 6.01615 19.964C6.16205 17.9075 6.25932 16.115 6.23153 15.976C6.18984 15.7884 5.61319 15.0589 3.69565 12.7801L1.2084 9.83433L4.97401 8.8964C8.00317 8.14606 8.77436 7.93068 8.91331 7.79868C9.00363 7.71531 9.98324 6.19378 11.081 4.42213L13.0888 1.19844L13.8948 2.4907C14.3394 3.2063 15.2426 4.65835 15.8957 5.71439Z" fill="#FF0000"/>
  <path d="M48.7192 0.135452C48.608 0.204929 48.4621 0.323038 48.3996 0.392515C48.337 0.46199 47.4061 1.94878 46.3222 3.68569C45.2454 5.42259 44.3491 6.86075 44.3352 6.87464C44.3213 6.88854 42.6331 7.31234 40.5835 7.81952C38.1588 8.41702 36.7971 8.78524 36.6789 8.87556C36.1996 9.22989 36.0398 9.86212 36.3107 10.3207C36.3871 10.4527 37.5404 11.8561 38.8674 13.4262L41.2783 16.2887L41.0212 19.9779C40.8753 21.9996 40.7572 23.7851 40.7641 23.9449C40.7641 24.5146 41.3964 25.0635 41.9591 24.994C42.0981 24.9732 43.8072 24.3132 45.7456 23.5281L49.275 22.0899L52.7835 23.5211C54.715 24.3062 56.4032 24.9662 56.5422 24.9871C56.8757 25.0427 57.369 24.8273 57.5774 24.5216C57.6955 24.3618 57.7511 24.1742 57.765 23.9102C57.7789 23.6948 57.6677 21.8954 57.5218 19.9084L57.2508 16.2956L59.7242 13.3637C61.0859 11.7519 62.2392 10.3207 62.2948 10.1887C62.4963 9.67453 62.1975 8.96588 61.6973 8.77134C61.5862 8.72966 59.9118 8.2989 57.9595 7.81952C56.0142 7.34013 54.3606 6.93022 54.2981 6.90243C54.2286 6.86769 53.2838 5.4087 52.193 3.65095C51.0953 1.8932 50.1504 0.399462 50.0878 0.323038C49.7822 -0.0104485 49.1082 -0.107714 48.7192 0.135452ZM52.0749 5.71439C52.7349 6.77043 53.3671 7.71531 53.4783 7.80562C53.645 7.95152 54.3537 8.14606 57.4037 8.8964C59.4532 9.40358 61.1207 9.84128 61.1068 9.86212C61.0929 9.88991 60.0229 11.1752 58.7237 12.7106C57.4245 14.253 56.299 15.6078 56.2295 15.719C56.0559 15.9969 56.0559 16.0594 56.3615 20.2419C56.5005 22.1525 56.5978 23.7226 56.5839 23.7435C56.563 23.7574 54.9651 23.1321 53.0267 22.347C50.7409 21.416 49.4278 20.9158 49.2611 20.9158C49.1013 20.9158 47.7951 21.416 45.5094 22.34C43.5779 23.1251 41.98 23.7574 41.9591 23.7365C41.9452 23.7157 42.0495 22.0205 42.1954 19.964C42.3413 17.9075 42.4385 16.115 42.4107 15.976C42.369 15.7884 41.7924 15.0589 39.8748 12.7801L37.3876 9.83433L41.1532 8.8964C44.1824 8.14606 44.9536 7.93068 45.0925 7.79868C45.1828 7.71531 46.1624 6.19378 47.2602 4.42213L49.268 1.19844L50.074 2.4907C50.5186 3.2063 51.4218 4.65835 52.0749 5.71439Z" fill="#FF0000"/>
  <path d="M84.8984 0.135452C84.7872 0.204929 84.6413 0.323038 84.5788 0.392515C84.5162 0.46199 83.5853 1.94878 82.5014 3.68569C81.4246 5.42259 80.5283 6.86075 80.5144 6.87464C80.5005 6.88854 78.8123 7.31234 76.7627 7.81952C74.338 8.41702 72.9763 8.78524 72.8581 8.87556C72.3788 9.22989 72.219 9.86212 72.4899 10.3207C72.5663 10.4527 73.7196 11.8561 75.0466 13.4262L77.4575 16.2887L77.2004 19.9779C77.0545 21.9996 76.9364 23.7851 76.9433 23.9449C76.9433 24.5146 77.5756 25.0635 78.1383 24.994C78.2773 24.9732 79.9864 24.3132 81.9248 23.5281L85.4542 22.0899L88.9627 23.5211C90.8942 24.3062 92.5824 24.9662 92.7214 24.9871C93.0549 25.0427 93.5482 24.8273 93.7566 24.5216C93.8747 24.3618 93.9303 24.1742 93.9442 23.9102C93.9581 23.6948 93.8469 21.8954 93.701 19.9084L93.43 16.2956L95.9034 13.3637C97.2651 11.7519 98.4184 10.3207 98.474 10.1887C98.6755 9.67453 98.3767 8.96588 97.8765 8.77134C97.7654 8.72966 96.091 8.2989 94.1387 7.81952C92.1934 7.34013 90.5398 6.93022 90.4773 6.90243C90.4078 6.86769 89.463 5.4087 88.3722 3.65095C87.2745 1.8932 86.3296 0.399462 86.267 0.323038C85.9614 -0.0104485 85.2874 -0.107714 84.8984 0.135452ZM88.2541 5.71439C88.9141 6.77043 89.5463 7.71531 89.6575 7.80562C89.8242 7.95152 90.5329 8.14606 93.5829 8.8964C95.6324 9.40358 97.2999 9.84128 97.286 9.86212C97.2721 9.88991 96.2021 11.1752 94.9029 12.7106C93.6037 14.253 92.4782 15.6078 92.4087 15.719C92.2351 15.9969 92.2351 16.0594 92.5407 20.2419C92.6797 22.1525 92.777 23.7226 92.7631 23.7435C92.7422 23.7574 91.1443 23.1321 89.2059 22.347C86.9201 21.416 85.607 20.9158 85.4403 20.9158C85.2805 20.9158 83.9743 21.416 81.6886 22.34C79.7571 23.1251 78.1592 23.7574 78.1383 23.7365C78.1244 23.7157 78.2287 22.0205 78.3746 19.964C78.5205 17.9075 78.6177 16.115 78.5899 15.976C78.5482 15.7884 77.9716 15.0589 76.054 12.7801L73.5668 9.83433L77.3324 8.8964C80.3616 8.14606 81.1328 7.93068 81.2717 7.79868C81.362 7.71531 82.3416 6.19378 83.4394 4.42213L85.4472 1.19844L86.2532 2.4907C86.6978 3.2063 87.601 4.65835 88.2541 5.71439Z" fill="#FF0000"/>
  <path d="M121.078 0.135452C120.966 0.204929 120.821 0.323038 120.758 0.392515C120.695 0.46199 119.764 1.94878 118.681 3.68569C117.604 5.42259 116.708 6.86075 116.694 6.87464C116.68 6.88854 114.991 7.31234 112.942 7.81952C110.517 8.41702 109.155 8.78524 109.037 8.87556C108.558 9.22989 108.398 9.86212 108.669 10.3207C108.746 10.4527 109.899 11.8561 111.226 13.4262L113.637 16.2887L113.38 19.9779C113.234 21.9996 113.116 23.7851 113.123 23.9449C113.123 24.5146 113.755 25.0635 114.318 24.994C114.456 24.9732 116.166 24.3132 118.104 23.5281L121.633 22.0899L125.142 23.5211C127.073 24.3062 128.762 24.9662 128.901 24.9871C129.234 25.0427 129.727 24.8273 129.936 24.5216C130.054 24.3618 130.109 24.1742 130.123 23.9102C130.137 23.6948 130.026 21.8954 129.88 19.9084L129.609 16.2956L132.083 13.3637C133.444 11.7519 134.598 10.3207 134.653 10.1887C134.855 9.67453 134.556 8.96588 134.056 8.77134C133.945 8.72966 132.27 8.2989 130.318 7.81952C128.373 7.34013 126.719 6.93022 126.657 6.90243C126.587 6.86769 125.642 5.4087 124.551 3.65095C123.454 1.8932 122.509 0.399462 122.446 0.323038C122.141 -0.0104485 121.467 -0.107714 121.078 0.135452ZM124.433 5.71439C125.093 6.77043 125.726 7.71531 125.837 7.80562C126.003 7.95152 126.712 8.14606 129.762 8.8964C131.812 9.40358 133.479 9.84128 133.465 9.86212C133.451 9.88991 132.381 11.1752 131.082 12.7106C129.783 14.253 128.657 15.6078 128.588 15.719C128.414 15.9969 128.414 16.0594 128.72 20.2419C128.859 22.1525 128.956 23.7226 128.942 23.7435C128.921 23.7574 127.323 23.1321 125.385 22.347C123.099 21.416 121.786 20.9158 121.619 20.9158C121.46 20.9158 120.154 21.416 117.868 22.34C115.936 23.1251 114.338 23.7574 114.318 23.7365C114.304 23.7157 114.408 22.0205 114.554 19.964C114.7 17.9075 114.797 16.115 114.769 15.976C114.727 15.7884 114.151 15.0589 112.233 12.7801L109.746 9.83433L113.512 8.8964C116.541 8.14606 117.312 7.93068 117.451 7.79868C117.541 7.71531 118.521 6.19378 119.619 4.42213L121.626 1.19844L122.432 2.4907C122.877 3.2063 123.78 4.65835 124.433 5.71439Z" fill="#FF0000"/>
  <path d="M157.257 0.135452C157.145 0.204929 156.999 0.323038 156.937 0.392515C156.874 0.46199 155.943 1.94878 154.86 3.68569C153.783 5.42259 152.886 6.86075 152.873 6.87464C152.859 6.88854 151.17 7.31234 149.121 7.81952C146.696 8.41702 145.334 8.78524 145.216 8.87556C144.737 9.22989 144.577 9.86212 144.848 10.3207C144.924 10.4527 146.078 11.8561 147.405 13.4262L149.816 16.2887L149.559 19.9779C149.413 21.9996 149.295 23.7851 149.301 23.9449C149.301 24.5146 149.934 25.0635 150.496 24.994C150.635 24.9732 152.345 24.3132 154.283 23.5281L157.812 22.0899L161.321 23.5211C163.252 24.3062 164.941 24.9662 165.08 24.9871C165.413 25.0427 165.906 24.8273 166.115 24.5216C166.233 24.3618 166.288 24.1742 166.302 23.9102C166.316 23.6948 166.205 21.8954 166.059 19.9084L165.788 16.2956L168.262 13.3637C169.623 11.7519 170.777 10.3207 170.832 10.1887C171.034 9.67453 170.735 8.96588 170.235 8.77134C170.124 8.72966 168.449 8.2989 166.497 7.81952C164.552 7.34013 162.898 6.93022 162.835 6.90243C162.766 6.86769 161.821 5.4087 160.73 3.65095C159.633 1.8932 158.688 0.399462 158.625 0.323038C158.32 -0.0104485 157.646 -0.107714 157.257 0.135452ZM160.612 5.71439C161.272 6.77043 161.904 7.71531 162.016 7.80562C162.182 7.95152 162.891 8.14606 165.941 8.8964C167.991 9.40358 169.658 9.84128 169.644 9.86212C169.63 9.88991 168.56 11.1752 167.261 12.7106C165.962 14.253 164.836 15.6078 164.767 15.719C164.593 15.9969 164.593 16.0594 164.899 20.2419C165.038 22.1525 165.135 23.7226 165.121 23.7435C165.1 23.7574 163.502 23.1321 161.564 22.347C159.278 21.416 157.965 20.9158 157.798 20.9158C157.639 20.9158 156.332 21.416 154.047 22.34C152.115 23.1251 150.517 23.7574 150.496 23.7365C150.483 23.7157 150.587 22.0205 150.733 19.964C150.879 17.9075 150.976 16.115 150.948 15.976C150.906 15.7884 150.33 15.0589 148.412 12.7801L145.925 9.83433L149.691 8.8964C152.72 8.14606 153.491 7.93068 153.63 7.79868C153.72 7.71531 154.7 6.19378 155.798 4.42213L157.805 1.19844L158.611 2.4907C159.056 3.2063 159.959 4.65835 160.612 5.71439Z" fill="#FF0000"/>
</svg>