<svg xmlns="http://www.w3.org/2000/svg" width="51" height="50" viewBox="0 0 51 50" fill="none">
  <path d="M3.1031 0.0731735C1.92291 0.307175 0.702014 1.33476 0.234005 2.47426L0 3.06436V24.9896V46.9148L0.234005 47.5049C0.712188 48.6851 1.94326 49.6821 3.21502 49.9162C3.58129 49.9874 9.65523 50.0077 21.2741 49.9975L38.7634 49.967L39.3535 49.7228C40.5845 49.2345 41.5002 48.156 41.7546 46.8944C41.836 46.4976 41.8665 43.3844 41.8665 36.6186V26.9227L45.6614 22.7004C50.1889 17.6642 50.1584 17.7049 50.1584 15.9855C50.1482 14.5815 49.9346 13.9608 49.1308 13.096C47.9303 11.7937 45.9666 11.4478 44.2777 12.2516C43.6266 12.5568 43.1789 12.9333 42.3548 13.8794L41.8767 14.4187L41.8461 8.74151L41.8156 3.06436L41.5714 2.45391C41.2357 1.60946 40.2183 0.592052 39.3738 0.256306L38.7634 0.0121269L21.1622 0.00195312C11.3441 -0.00822067 3.35746 0.0223007 3.1031 0.0731735ZM39.0991 2.0266C39.3331 2.17921 39.6485 2.49461 39.8011 2.72861L40.086 3.15593L40.1165 9.74875L40.1369 16.3517L39.8927 16.6265C38.9262 17.6947 26.8088 31.2975 26.1983 31.9894C25.7812 32.4675 25.2623 33.0475 25.0283 33.2713C24.8045 33.4951 24.5298 33.8004 24.4179 33.953C24.306 34.1056 23.9499 34.5227 23.6345 34.889L23.0444 35.5401L22.4848 38.806C21.9557 41.8379 21.9252 42.1024 22.0677 42.3771C22.2304 42.6824 22.4136 42.7943 22.7697 42.7943C22.8918 42.7943 24.3975 42.3873 26.117 41.8989L29.2302 41.0138L34.6632 34.9602L40.086 28.9066L40.1165 37.6563C40.1369 43.7405 40.1165 46.518 40.0351 46.7927C39.8927 47.2912 39.3738 47.8712 38.8651 48.095C38.4785 48.2781 37.6646 48.2883 20.9282 48.2883H3.40833L2.95049 48.0746C2.45196 47.8406 2.02465 47.4031 1.81099 46.8944C1.60751 46.4061 1.60751 3.57307 1.81099 3.08471C2.02465 2.59635 2.44179 2.13852 2.93014 1.90451L3.35746 1.69086L21.0197 1.7112L38.6718 1.74173L39.0991 2.0266ZM47.2282 13.7472C47.8387 14.0524 48.2457 14.5408 48.439 15.2021C48.8052 16.4026 48.5916 16.8706 46.8416 18.8241L45.4172 20.4112L44.9187 19.9839C42.833 18.1526 41.7749 17.1962 41.7749 17.1453C41.7647 17.1148 42.3955 16.3924 43.1586 15.5378C44.2676 14.2966 44.6644 13.9201 45.0713 13.737C45.7733 13.4013 46.5466 13.4114 47.2282 13.7472ZM42.7415 20.3298L44.2676 21.6932L43.6876 22.3443C43.1382 22.9548 43.0874 22.9853 42.9144 22.8428C41.8258 21.8865 39.5163 19.8008 39.4959 19.7499C39.4857 19.7092 39.7299 19.3938 40.0351 19.0377L40.5947 18.3866L40.8999 18.6714C41.0729 18.8241 41.897 19.5668 42.7415 20.3298ZM40.1064 22.6088C41.0729 23.4838 41.8665 24.2672 41.8461 24.3384C41.8258 24.4096 41.4595 24.8573 41.022 25.3151C40.5947 25.7832 38.5802 28.0113 36.5658 30.2801C34.5411 32.5489 32.7403 34.5532 32.5673 34.7364L32.2418 35.0721L30.4613 33.4951C29.4846 32.6202 28.691 31.8774 28.691 31.8266C28.691 31.7554 38.2241 21.0217 38.2954 21.0217C38.3157 21.0217 39.1296 21.7339 40.1064 22.6088ZM29.3828 34.7974C30.3189 35.6317 31.0819 36.3439 31.0819 36.3744C31.0717 36.4049 30.8784 36.6491 30.6343 36.9136L30.1866 37.402L28.5791 35.9674C27.6838 35.1739 26.8698 34.4413 26.7681 34.3498C26.5748 34.1666 26.585 34.1463 27.0021 33.6477C27.287 33.312 27.4803 33.1594 27.5617 33.2103C27.6329 33.251 28.457 33.9631 29.3828 34.7974ZM27.2666 37.0561L29.0369 38.6534L28.6707 39.0909C28.2739 39.5793 28.3858 39.5386 25.4556 40.3525C24.6214 40.5865 23.9193 40.7594 23.899 40.7289C23.8786 40.7086 24.0211 39.7115 24.2246 38.511C24.5908 36.3846 24.6112 36.3235 24.9673 35.9064C25.1708 35.6826 25.3641 35.4791 25.4149 35.4791C25.4556 35.4689 26.2899 36.1811 27.2666 37.0561Z" fill="#FF0000"/>
  <path d="M13.6939 6.44215C13.521 6.58459 13.4396 6.83894 13.3277 7.58165C13.2463 8.10053 13.1751 8.53802 13.1547 8.54819C13.1344 8.55836 12.7172 8.72115 12.2289 8.90428L11.3336 9.24003L10.6519 8.71097C10.2754 8.4261 9.86848 8.17175 9.73622 8.13105C9.33943 8.03948 8.94264 8.29384 8.03714 9.22985C6.94851 10.3694 6.92816 10.4813 7.73192 11.5597C8.03714 11.9667 8.29149 12.3228 8.29149 12.333C8.29149 12.3431 8.14905 12.6992 7.98627 13.1164C7.81331 13.5437 7.68105 13.9303 7.68105 13.9913C7.68105 14.1134 7.47756 14.1745 6.53137 14.2966C5.33082 14.4593 5.23926 14.612 5.23926 16.3619C5.23926 17.9796 5.39187 18.1729 6.82642 18.3255C7.16217 18.3662 7.48774 18.4273 7.53861 18.4578C7.59965 18.4985 7.76244 18.8444 7.90488 19.2412C8.04731 19.6278 8.18975 20.0246 8.23045 20.106C8.27114 20.2077 8.09818 20.5333 7.73192 21.0217C6.92816 22.1001 6.94851 22.212 8.03714 23.3515C8.94264 24.2875 9.33943 24.5419 9.74639 24.4402C9.86848 24.4096 10.2958 24.1349 10.6926 23.8297C11.2115 23.4227 11.4455 23.3007 11.5574 23.3719C11.6388 23.4227 12.0254 23.5855 12.412 23.728C12.8088 23.8806 13.1344 24.0128 13.1547 24.023C13.1751 24.0434 13.2463 24.4809 13.3277 24.9997C13.5312 26.3224 13.521 26.3122 15.3523 26.3122C17.1633 26.3122 17.1735 26.302 17.3566 24.9285L17.4787 24.0027L18.1502 23.7687C18.5165 23.6466 18.9438 23.494 19.0862 23.4431C19.3202 23.3515 19.422 23.3922 20.0833 23.9111C21.1516 24.725 21.2126 24.7149 22.4742 23.4736C23.746 22.212 23.7663 22.1205 22.9219 20.9911L22.3419 20.2281L22.7286 19.3327L23.1253 18.4273L24.0207 18.3052C25.3433 18.1119 25.384 18.0508 25.384 16.2907C25.384 14.5306 25.3433 14.4695 24.0207 14.2762L23.1152 14.1541L22.7489 13.2385L22.3725 12.3228L22.932 11.5699C23.7663 10.4609 23.746 10.3694 22.4742 9.10777C21.2126 7.86652 21.1617 7.85635 20.0935 8.6601C19.6763 8.9755 19.2897 9.20951 19.2287 9.19933C19.1778 9.17898 18.7607 9.03655 18.3028 8.86359L17.4787 8.56854L17.3566 7.65287C17.1735 6.27936 17.1633 6.26919 15.3523 6.26919C14.1314 6.26919 13.8771 6.29971 13.6939 6.44215ZM15.7186 7.95809C15.7186 8.25314 15.9526 9.5249 16.0442 9.70804C16.1357 9.87082 16.3596 9.99291 16.8784 10.1455C17.2752 10.2676 17.9772 10.5423 18.4351 10.7661C18.9947 11.051 19.3406 11.1629 19.5034 11.1222C19.6356 11.0815 20.0324 10.8475 20.3783 10.583L21.0193 10.1048L21.2737 10.3592L21.5382 10.6135L21.0193 11.2952C20.7243 11.6818 20.5004 12.0888 20.5004 12.221C20.5004 12.3635 20.6632 12.7704 20.8565 13.1469C21.0498 13.5132 21.2838 14.0727 21.3754 14.3881C21.701 15.5785 21.7722 15.6497 22.7387 15.782C23.7561 15.9244 23.7561 15.9244 23.7561 16.2907C23.7561 16.657 23.7561 16.657 22.7387 16.7994C21.7824 16.9317 21.7315 16.9724 21.3551 18.1729C21.2635 18.4781 21.0295 19.0377 20.8463 19.4141C20.653 19.7906 20.5004 20.2179 20.5004 20.3502C20.5004 20.4926 20.7243 20.8894 21.0193 21.2862L21.5382 21.9678L21.2737 22.2222L21.0193 22.4766L20.3783 21.9984C19.4932 21.3371 19.3711 21.3269 18.5673 21.7542C18.2011 21.9577 17.5092 22.2324 17.0311 22.385C16.3799 22.5783 16.1357 22.7004 16.0442 22.8733C15.9526 23.0565 15.7186 24.3282 15.7186 24.6335C15.7186 24.664 15.5456 24.6843 15.3422 24.664L14.9555 24.6335L14.8334 23.7788C14.7521 23.2091 14.6605 22.8632 14.5282 22.7513C14.4265 22.6495 13.9992 22.4664 13.582 22.3443C13.1649 22.2222 12.5137 21.9678 12.1475 21.7745C11.7812 21.5812 11.3844 21.4286 11.2623 21.4286C11.1504 21.4286 10.7536 21.6524 10.3874 21.9373C10.0211 22.212 9.68535 22.446 9.63447 22.446C9.5836 22.446 9.45134 22.3443 9.32925 22.212L9.1156 21.9882L9.52256 21.4795C9.74639 21.1946 10.0007 20.8182 10.0821 20.635C10.2246 20.3095 10.2144 20.2688 9.82778 19.465C9.60395 19.0072 9.3496 18.3357 9.24786 17.9694C9.02403 17.1046 8.79002 16.891 7.96592 16.7994C7.00955 16.6977 6.96886 16.6773 6.96886 16.2907C6.96886 15.9041 7.00955 15.8837 7.96592 15.782C8.7595 15.6904 9.0342 15.4666 9.19699 14.7646C9.26821 14.4797 9.52256 13.8184 9.77691 13.269C10.2144 12.3228 10.2246 12.2821 10.0821 11.9463C10.0007 11.7632 9.74639 11.3868 9.52256 11.1019L9.1156 10.5932L9.32925 10.3694C9.45134 10.2371 9.5836 10.1354 9.63447 10.1354C9.68535 10.1354 10.0211 10.3592 10.3874 10.6441C10.7536 10.9188 11.1402 11.1528 11.242 11.1528C11.3539 11.1528 11.7914 10.9696 12.2289 10.756C12.6664 10.5321 13.3277 10.2778 13.7041 10.176C14.0806 10.0845 14.457 9.93187 14.5486 9.83013C14.6401 9.72839 14.7622 9.31125 14.8131 8.89411C14.8741 8.48714 14.9352 8.09035 14.9555 8.01913C14.9962 7.90722 15.7186 7.836 15.7186 7.95809Z" fill="#FF0000"/>
  <path d="M14.4875 13.1164C12.9105 13.564 11.9541 14.907 12.0864 16.5043C12.1779 17.6744 12.7986 18.5799 13.8567 19.1089C15.2098 19.7702 16.6851 19.4854 17.6923 18.3662C18.2417 17.7558 18.4655 17.1351 18.4655 16.2398C18.4655 15.3242 18.2315 14.7137 17.6414 14.0626C16.8479 13.1876 15.5863 12.8111 14.4875 13.1164ZM16.1357 14.9579C17.1124 15.6192 17.0208 17.1046 15.9831 17.6032C15.159 17.9898 14.3247 17.6845 13.8974 16.8197C13.6735 16.3721 13.6634 16.2907 13.7855 15.9041C13.8465 15.6701 13.9788 15.3852 14.0703 15.2835C14.6096 14.673 15.5049 14.5306 16.1357 14.9579Z" fill="#FF0000"/>
  <path d="M24.6922 6.50318C24.387 6.82875 24.3972 7.32728 24.7228 7.64268C24.9466 7.87669 25.0382 7.89703 25.9742 7.89703C26.8898 7.89703 26.9916 7.87669 27.1849 7.66303C27.4799 7.34763 27.5308 7.13398 27.4087 6.77788C27.2459 6.34039 27.0526 6.26918 25.9131 6.26918C24.9975 6.26918 24.8957 6.28952 24.6922 6.50318Z" fill="#FF0000"/>
  <path d="M30.2172 6.52356C30.0545 6.67617 29.9629 6.88983 29.9629 7.08314C29.9629 7.27644 30.0545 7.4901 30.2172 7.64271L30.4614 7.89706H33.2593C34.7956 7.89706 36.1284 7.86654 36.22 7.83602C36.4743 7.73428 36.6982 7.20522 36.6269 6.86948C36.4947 6.28955 36.4031 6.26921 33.2898 6.26921H30.4614L30.2172 6.52356Z" fill="#FF0000"/>
  <path d="M28.1922 12.3838C27.8565 12.6484 27.8158 13.2792 28.1312 13.5946C28.3245 13.7879 28.4669 13.798 32.2822 13.798C35.9245 13.798 36.2501 13.7879 36.3925 13.6149C36.7792 13.1774 36.6876 12.5059 36.2094 12.2821C36.0364 12.2109 34.7749 12.1702 32.211 12.1702C28.5788 12.1702 28.4567 12.1804 28.1922 12.3838Z" fill="#FF0000"/>
  <path d="M26.9509 18.2441C26.6456 18.3052 26.4218 18.5799 26.3404 18.9665C26.2895 19.231 26.3302 19.3328 26.5846 19.5973L26.8898 19.9025H31.4783H36.0567L36.3314 19.6583C36.6977 19.3531 36.7282 18.7834 36.3924 18.4476L36.1584 18.2238L31.6615 18.2136C29.1892 18.2034 27.0628 18.2136 26.9509 18.2441Z" fill="#FF0000"/>
  <path d="M5.51459 24.2978C5.09745 24.6233 5.1178 25.4678 5.54511 25.7018C5.64685 25.7628 6.12503 25.8035 6.61339 25.8035C7.40697 25.8035 7.50871 25.7832 7.73254 25.5492C8.06829 25.2236 8.06829 24.7556 7.73254 24.43C7.50871 24.196 7.40697 24.1757 6.58287 24.1757C6.02329 24.1757 5.6265 24.2265 5.51459 24.2978Z" fill="#FF0000"/>
  <path d="M23.9807 24.4097C23.6755 24.7352 23.6857 25.2948 23.9909 25.5797C24.2147 25.7934 24.3165 25.8035 26.3411 25.8035C28.437 25.8035 28.4472 25.8035 28.6913 25.5492C28.8541 25.3966 28.9457 25.1829 28.9457 24.9896C28.9457 24.7963 28.8541 24.5826 28.6913 24.43C28.4472 24.1757 28.437 24.1757 26.3208 24.1757C24.2351 24.1757 24.1944 24.1757 23.9807 24.4097Z" fill="#FF0000"/>
  <path d="M5.59576 30.4124C5.23966 30.7074 5.21931 31.3179 5.53471 31.6434L5.75854 31.8571H14.2946H22.8307L23.0647 31.6333C23.4005 31.2975 23.3699 30.7278 23.0037 30.4225L22.729 30.1784H14.2946H5.86028L5.59576 30.4124Z" fill="#FF0000"/>
  <path d="M5.61618 36.3032C5.372 36.4965 5.22956 36.9543 5.34148 37.2392C5.56531 37.8293 5.31095 37.809 12.3311 37.809C16.8891 37.809 18.8324 37.7784 19.0155 37.6971C19.4937 37.4732 19.5852 36.8017 19.1986 36.3541C19.0562 36.1913 18.5983 36.1811 12.4125 36.1811C7.27456 36.1811 5.74844 36.2116 5.61618 36.3032Z" fill="#FF0000"/>
  <path d="M5.57508 42.4077C5.46317 42.5399 5.34108 42.7231 5.31056 42.8146C5.21899 43.0588 5.42247 43.5879 5.6463 43.71C5.76839 43.771 8.47471 43.8117 12.8597 43.8117H19.8799L20.0834 43.5472C20.3682 43.1809 20.3581 42.7434 20.0427 42.4382L19.7985 42.1838H12.7885H5.77857L5.57508 42.4077Z" fill="#FF0000"/>
  <path d="M27.4803 42.3975C27.1445 42.662 27.1038 43.2928 27.4192 43.6082C27.6126 43.8015 27.755 43.8117 31.8755 43.8117C36.5352 43.8117 36.4946 43.8219 36.6268 43.2114C36.698 42.8859 36.5556 42.5196 36.2809 42.3161C36.1588 42.2245 35.06 42.194 31.9366 42.1838C27.8567 42.1838 27.7448 42.194 27.4803 42.3975Z" fill="#FF0000"/>
</svg>